<svg width="24" height="24" viewBox="0 0 24 24" fill="none" xmlns="http://www.w3.org/2000/svg">
<g id="icon-park-outline:doc-add">
<path id="Vector" d="M8.78125 15H15.7812M8.78125 18H12.2812M9.78125 8.5H14.7812M12.2812 11V6M19.2812 2H5.28125C5.01603 2 4.76168 2.10536 4.57414 2.29289C4.38661 2.48043 4.28125 2.73478 4.28125 3V21C4.28125 21.2652 4.38661 21.5196 4.57414 21.7071C4.76168 21.8946 5.01603 22 5.28125 22H19.2812C19.5465 22 19.8008 21.8946 19.9884 21.7071C20.1759 21.5196 20.2812 21.2652 20.2812 21V3C20.2812 2.73478 20.1759 2.48043 19.9884 2.29289C19.8008 2.10536 19.5465 2 19.2812 2Z" stroke="#7B7E7B" stroke-width="1.5" stroke-linecap="round" stroke-linejoin="round"/>
</g>
</svg>
