<svg width="26" height="26" viewBox="0 0 26 26" fill="none" xmlns="http://www.w3.org/2000/svg">
<path d="M5.33281 19.1984V23.2155L6.94881 22.2459L12.0283 19.1984H17.0661C18.2427 19.1984 19.1995 18.2416 19.1995 17.0651V8.53177C19.1995 7.35524 18.2427 6.39844 17.0661 6.39844H4.26615C3.08961 6.39844 2.13281 7.35524 2.13281 8.53177V17.0651C2.13281 18.2416 3.08961 19.1984 4.26615 19.1984H5.33281ZM4.26615 8.53177H17.0661V17.0651H11.4373L7.46615 19.448V17.0651H4.26615V8.53177Z" fill="white"/>
<path d="M21.3318 2.13281H8.53177C7.35524 2.13281 6.39844 3.08961 6.39844 4.26615H19.1984C20.375 4.26615 21.3318 5.22295 21.3318 6.39948V14.9328C22.5083 14.9328 23.4651 13.976 23.4651 12.7995V4.26615C23.4651 3.08961 22.5083 2.13281 21.3318 2.13281Z" fill="white"/>
</svg>
