<svg width="17" height="18" viewBox="0 0 17 18" fill="none" xmlns="http://www.w3.org/2000/svg">
<path d="M14.75 8.72754C15.1016 8.96777 15.415 9.24023 15.6904 9.54492C15.9658 9.84961 16.2031 10.1836 16.4023 10.5469C16.6016 10.9102 16.748 11.2939 16.8418 11.6982C16.9355 12.1025 16.9883 12.5156 17 12.9375C17 13.6348 16.8682 14.291 16.6045 14.9062C16.3408 15.5215 15.9775 16.0576 15.5146 16.5146C15.0518 16.9717 14.5156 17.332 13.9062 17.5957C13.2969 17.8594 12.6406 17.9941 11.9375 18C11.4043 18 10.8887 17.9209 10.3906 17.7627C9.89258 17.6045 9.43555 17.376 9.01953 17.0771C8.60352 16.7783 8.23438 16.4209 7.91211 16.0049C7.58984 15.5889 7.34082 15.1289 7.16504 14.625H0.125V1.125H2.375V0H3.5V1.125H11.375V0H12.5V1.125H14.75V8.72754ZM1.25 2.25V4.5H13.625V2.25H12.5V3.375H11.375V2.25H3.5V3.375H2.375V2.25H1.25ZM6.90137 13.5C6.88379 13.3184 6.875 13.1309 6.875 12.9375C6.875 12.4336 6.94531 11.9443 7.08594 11.4697C7.22656 10.9951 7.44043 10.5469 7.72754 10.125H6.875V9H8V9.75586C8.24023 9.45703 8.50684 9.19336 8.7998 8.96484C9.09277 8.73633 9.40918 8.54004 9.74902 8.37598C10.0889 8.21191 10.4434 8.08887 10.8125 8.00684C11.1816 7.9248 11.5566 7.88086 11.9375 7.875C12.5234 7.875 13.0859 7.97168 13.625 8.16504V5.625H1.25V13.5H6.90137ZM11.9375 16.875C12.4824 16.875 12.9922 16.7725 13.4668 16.5674C13.9414 16.3623 14.3574 16.0811 14.7148 15.7236C15.0723 15.3662 15.3535 14.9502 15.5586 14.4756C15.7637 14.001 15.8691 13.4883 15.875 12.9375C15.875 12.3926 15.7725 11.8828 15.5674 11.4082C15.3623 10.9336 15.0811 10.5176 14.7236 10.1602C14.3662 9.80273 13.9502 9.52148 13.4756 9.31641C13.001 9.11133 12.4883 9.00586 11.9375 9C11.3926 9 10.8828 9.10254 10.4082 9.30762C9.93359 9.5127 9.51758 9.79395 9.16016 10.1514C8.80273 10.5088 8.52148 10.9248 8.31641 11.3994C8.11133 11.874 8.00586 12.3867 8 12.9375C8 13.4824 8.10254 13.9922 8.30762 14.4668C8.5127 14.9414 8.79395 15.3574 9.15137 15.7148C9.50879 16.0723 9.9248 16.3535 10.3994 16.5586C10.874 16.7637 11.3867 16.8691 11.9375 16.875ZM12.5 12.375H14.1875V13.5H11.375V10.125H12.5V12.375ZM2.375 9H3.5V10.125H2.375V9ZM4.625 9H5.75V10.125H4.625V9ZM4.625 6.75H5.75V7.875H4.625V6.75ZM2.375 11.25H3.5V12.375H2.375V11.25ZM4.625 11.25H5.75V12.375H4.625V11.25ZM8 7.875H6.875V6.75H8V7.875ZM10.25 7.875H9.125V6.75H10.25V7.875ZM12.5 7.875H11.375V6.75H12.5V7.875Z" fill="black"/>
</svg>
