<svg width="25" height="25" viewBox="0 0 25 25" fill="none" xmlns="http://www.w3.org/2000/svg">
<path d="M22.625 5H18.5V2.375H17V5H8V2.375H6.5V5H2.375C2.07674 5.00035 1.79079 5.11899 1.57989 5.32989C1.36899 5.54079 1.25035 5.82674 1.25 6.125V21.875C1.25035 22.1733 1.36899 22.4592 1.57989 22.6701C1.79079 22.881 2.07674 22.9997 2.375 23H22.625C22.9233 22.9997 23.2092 22.881 23.4201 22.6701C23.631 22.4592 23.7497 22.1733 23.75 21.875V6.125C23.7497 5.82674 23.631 5.54079 23.4201 5.32989C23.2092 5.11899 22.9233 5.00035 22.625 5ZM22.25 21.5H2.75V6.5H6.5V8.375H8V6.5H17V8.375H18.5V6.5H22.25V21.5Z" fill="#B7B7B7"/>
<path d="M5.75 11H7.25V12.5H5.75V11ZM9.875 11H11.375V12.5H9.875V11ZM13.625 11H15.125V12.5H13.625V11ZM17.75 11H19.25V12.5H17.75V11ZM5.75 14.375H7.25V15.875H5.75V14.375ZM9.875 14.375H11.375V15.875H9.875V14.375ZM13.625 14.375H15.125V15.875H13.625V14.375ZM17.75 14.375H19.25V15.875H17.75V14.375ZM5.75 17.75H7.25V19.25H5.75V17.75ZM9.875 17.75H11.375V19.25H9.875V17.75ZM13.625 17.75H15.125V19.25H13.625V17.75ZM17.75 17.75H19.25V19.25H17.75V17.75Z" fill="#B7B7B7"/>
</svg>
