<svg width="20" height="21" viewBox="0 0 20 21" fill="none" xmlns="http://www.w3.org/2000/svg">
<path fill-rule="evenodd" clip-rule="evenodd" d="M15.0437 16.87C13.4816 18.107 11.5195 18.7268 9.53024 18.6117C7.54101 18.4965 5.66345 17.6545 4.2545 16.2455C2.84555 14.8366 2.00346 12.959 1.88832 10.9698C1.77318 8.98053 2.39302 7.01835 3.63 5.45625L15.0437 16.87ZM16.37 15.545L4.95625 4.12875C6.51835 2.89177 8.48053 2.27193 10.4698 2.38707C12.459 2.50221 14.3366 3.3443 15.7455 4.75325C17.1545 6.1622 17.9965 8.03976 18.1117 10.029C18.2268 12.0182 17.607 13.9804 16.37 15.5425V15.545ZM20 10.5C20 13.1522 18.9464 15.6957 17.0711 17.5711C15.1957 19.4464 12.6522 20.5 10 20.5C7.34784 20.5 4.8043 19.4464 2.92893 17.5711C1.05357 15.6957 0 13.1522 0 10.5C0 7.84784 1.05357 5.3043 2.92893 3.42893C4.8043 1.55357 7.34784 0.5 10 0.5C12.6522 0.5 15.1957 1.55357 17.0711 3.42893C18.9464 5.3043 20 7.84784 20 10.5Z" fill="#7B7E7B"/>
</svg>
