<svg width="19" height="16" viewBox="0 0 19 16" fill="none" xmlns="http://www.w3.org/2000/svg">
<path d="M5.06994 10.0772L2.84588 1.36884H0.412757V0H3.90905L4.43335 2.05285L18.5873 2.04273L17.0825 10.0772H5.06994V10.0772ZM4.78285 3.42145L6.1331 8.70838H15.9463L16.9381 3.41275L4.78285 3.42145Z" fill="#A9AFBB"/>
<path d="M6.9438 15.0655C5.73678 15.0655 4.7548 14.0835 4.7548 12.8765C4.7548 11.6695 5.73678 10.6875 6.9438 10.6875H15.1911C16.3981 10.6875 17.3801 11.6695 17.3801 12.8765C17.3801 14.0835 16.3981 15.0655 15.1911 15.0655C13.984 15.0655 13.0021 14.0835 13.0021 12.8765C13.0021 12.5866 13.0589 12.3098 13.1616 12.0563H8.97322C9.07602 12.3098 9.13281 12.5866 9.13281 12.8765C9.13279 14.0835 8.15081 15.0655 6.9438 15.0655ZM14.3709 12.8765C14.3709 13.3287 14.7388 13.6966 15.1911 13.6966C15.6433 13.6966 16.0112 13.3287 16.0112 12.8765C16.0112 12.4243 15.6433 12.0563 15.1911 12.0563C14.7388 12.0563 14.3709 12.4243 14.3709 12.8765ZM6.12362 12.8765C6.12362 13.3287 6.49154 13.6966 6.94378 13.6966C7.39602 13.6966 7.76393 13.3287 7.76393 12.8765C7.76393 12.4243 7.39602 12.0563 6.94378 12.0563C6.49154 12.0563 6.12362 12.4243 6.12362 12.8765Z" fill="#A9AFBB"/>
</svg>
