<svg width="16" height="16" viewBox="0 0 16 16" fill="none" xmlns="http://www.w3.org/2000/svg">
	<path d="M13.7543 16.0005H1.65051C0.738947 16.0005 0 15.2615 0 14.35V2.24621C0 1.33465 0.738947 0.595703 1.65051 0.595703H13.7543C14.6658 0.595703 15.4048 1.33465 15.4048 2.24621V14.35C15.4048 15.2615 14.6658 16.0005 13.7543 16.0005ZM6.716 12.6286L13.043 6.30169C13.2578 6.08685 13.2578 5.73849 13.043 5.52365L12.2649 4.7456C12.0501 4.53076 11.7017 4.53073 11.4868 4.7456L6.32696 9.90544L3.91793 7.49642C3.70309 7.28158 3.35473 7.28158 3.13986 7.49642L2.36181 8.27446C2.14697 8.4893 2.14697 8.83766 2.36181 9.05251L5.93792 12.6286C6.15279 12.8435 6.50112 12.8435 6.716 12.6286Z" fill="#132f6e" />
</svg>
