<svg width="27" height="27" viewBox="0 0 27 27" fill="none" xmlns="http://www.w3.org/2000/svg">
	<path d="M18.0592 13.095L25.5047 5.64945C26.4184 4.73578 26.4184 3.25441 25.5047 2.33999L23.85 0.685255C22.9363 -0.228418 21.455 -0.228418 20.5406 0.685255L13.095 8.1308L5.64945 0.685255C4.73578 -0.228418 3.25441 -0.228418 2.33999 0.685255L0.685255 2.33999C-0.228418 3.25366 -0.228418 4.73503 0.685255 5.64945L8.1308 13.095L0.685255 20.5406C-0.228418 21.4542 -0.228418 22.9356 0.685255 23.85L2.33999 25.5047C3.25366 26.4184 4.73578 26.4184 5.64945 25.5047L13.095 18.0592L20.5406 25.5047C21.4542 26.4184 22.9363 26.4184 23.85 25.5047L25.5047 23.85C26.4184 22.9363 26.4184 21.455 25.5047 20.5406L18.0592 13.095Z" fill="#A9AFBB" />
</svg>
