<svg width="15" height="18" viewBox="0 0 15 18" fill="none" xmlns="http://www.w3.org/2000/svg">
<path d="M1.78125 3.375L2.59243 16.1179C2.63096 16.8542 3.17648 17.3922 3.89032 17.3922H11.3532C12.0698 17.3922 12.6052 16.8542 12.6511 16.1179L13.4622 3.375" stroke="#7B7E7B" stroke-linecap="round" stroke-linejoin="round"/>
<path d="M1 3.375H14.2385H1Z" fill="black"/>
<path d="M1 3.375H14.2385" stroke="#7B7E7B" stroke-miterlimit="10" stroke-linecap="round"/>
<path d="M5.20128 3.59546V2.0026C5.20093 1.87699 5.22419 1.75254 5.26972 1.63642C5.31526 1.52031 5.38216 1.4148 5.4666 1.32598C5.55103 1.23716 5.65132 1.16678 5.76171 1.11888C5.87209 1.07098 5.99039 1.04651 6.1098 1.04688H9.1382C9.25761 1.04651 9.37591 1.07098 9.48629 1.11888C9.59668 1.16678 9.69697 1.23716 9.78141 1.32598C9.86584 1.4148 9.93275 1.52031 9.97828 1.63642C10.0238 1.75254 10.0471 1.87699 10.0467 2.0026V3.59546M7.624 6.14404V15.0641M4.89844 6.14404L5.20128 15.0641M10.3496 6.14404L10.0467 15.0641" stroke="#7B7E7B" stroke-linecap="round" stroke-linejoin="round"/>
</svg>
