<svg width="19" height="18" viewBox="0 0 19 18" fill="none" xmlns="http://www.w3.org/2000/svg">
<path d="M2.8086 18C2.2586 18 1.7876 17.804 1.3956 17.412C1.0036 17.02 0.807929 16.5493 0.808595 16V3.50001C0.808595 3.25001 0.850262 3.02501 0.933595 2.82501C1.01693 2.62501 1.12526 2.43334 1.2586 2.25001L2.6586 0.550007C2.79193 0.366674 2.9586 0.229007 3.1586 0.137007C3.3586 0.0450073 3.57526 -0.000659472 3.8086 7.19423e-06H15.8086C16.0419 7.19423e-06 16.2586 0.045674 16.4586 0.137007C16.6586 0.228341 16.8253 0.366007 16.9586 0.550007L18.3586 2.25001C18.4919 2.43334 18.6003 2.62501 18.6836 2.82501C18.7669 3.02501 18.8086 3.25001 18.8086 3.50001V16C18.8086 16.55 18.6126 17.021 18.2206 17.413C17.8286 17.805 17.3579 18.0007 16.8086 18H2.8086ZM3.2086 3.00001H16.4086L15.5586 2.00001H4.0586L3.2086 3.00001ZM2.8086 5.00001V16H16.8086V5.00001H2.8086ZM9.8086 15L13.8086 11L12.4086 9.60001L10.8086 11.2V7.00001H8.8086V11.2L7.2086 9.60001L5.8086 11L9.8086 15Z" fill="#7B7E7B" fill-opacity="0.7"/>
</svg>