<svg width="21" height="15" viewBox="0 0 21 15" fill="none" xmlns="http://www.w3.org/2000/svg">
<path fill-rule="evenodd" clip-rule="evenodd" d="M19.0006 7.50781H6.91016H19.0006Z" fill="#7B7E7B"/>
<path d="M19.0006 7.50781H6.91016" stroke="#7B7E7B" stroke-width="2.60442" stroke-linecap="round" stroke-linejoin="round"/>
<path fill-rule="evenodd" clip-rule="evenodd" d="M19.0006 13.5156H6.91016H19.0006Z" fill="#7B7E7B"/>
<path d="M19.0006 13.5156H6.91016" stroke="#7B7E7B" stroke-width="2.60442" stroke-linecap="round" stroke-linejoin="round"/>
<path fill-rule="evenodd" clip-rule="evenodd" d="M19.0006 1.50781H6.91016H19.0006Z" fill="#7B7E7B"/>
<path d="M19.0006 1.50781H6.91016" stroke="#7B7E7B" stroke-width="2.60442" stroke-linecap="round" stroke-linejoin="round"/>
<path fill-rule="evenodd" clip-rule="evenodd" d="M1.7252 3C2.58881 3 3.45241 2.25 3.45241 1.5C3.45241 0.75 2.58881 0 1.7252 0C0.861601 0 0 0.75 0 1.5C0 2.25 0.861601 3 1.7252 3ZM1.7252 9C2.58881 9 3.45241 8.25 3.45241 7.5C3.45241 6.75 2.58881 6 1.7252 6C0.861601 6 0 6.75 0 7.5C0 8.25 0.861601 9 1.7252 9ZM1.7252 15C2.58881 15 3.45241 14.25 3.45241 13.5C3.45241 12.75 2.58881 12 1.7252 12C0.861601 12 0 12.75 0 13.5C0 14.25 0.861601 15 1.7252 15Z" fill="#7B7E7B"/>
</svg>
