<svg width="22" height="24" viewBox="0 0 22 24" fill="none" xmlns="http://www.w3.org/2000/svg">
<path d="M17.4408 1.632L15.9708 0H4.3944C3.5592 0 3.2364 0.6192 3.2364 1.1028V5.4588H4.86V1.9836C4.86 1.7988 5.016 1.6428 5.196 1.6428H13.4796C13.662 1.6428 13.7532 1.6752 13.7532 1.8252V7.6092H19.6488C19.8804 7.6092 19.9704 7.7292 19.9704 7.9044V22.0284C19.9704 22.3236 19.8504 22.368 19.6704 22.368H5.196C5.10674 22.3658 5.02182 22.3291 4.95913 22.2655C4.89645 22.2019 4.86091 22.1165 4.86 22.0272V20.736H3.2472V22.77C3.2256 23.49 3.6096 24 4.3944 24H20.472C21.312 24 21.5988 23.3916 21.5988 22.8372V6.2244L21.1788 5.7684L17.4408 1.632ZM15.4032 1.824L15.8676 2.3448L18.9828 5.7684L19.1544 5.976H15.9708C15.7308 5.976 15.5784 5.9364 15.5148 5.856C15.4512 5.778 15.414 5.652 15.4032 5.4804V1.824ZM14.0952 12.8004H19.5876V14.4012H14.094L14.0952 12.8004ZM14.0952 9.6012H19.5876V11.2008H14.094L14.0952 9.6012ZM14.0952 16.0008H19.5876V17.6016H14.094L14.0952 16.0008ZM0 6.7512V19.5516H12.558V6.7512H0ZM6.2796 14.196L5.5116 15.3696H6.2796V16.8H2.4192L5.22 12.588L2.7384 8.8008H4.812L6.2808 11.004L7.7484 8.8008H9.8208L7.3344 12.588L10.1388 16.8H7.9872L6.2796 14.196Z" 
fill="#7B7E7B"
/>
</svg>
