<svg width="19" height="14" viewBox="0 0 19 14" fill="none" xmlns="http://www.w3.org/2000/svg">
<path d="M18.8917 6.75C18.8683 6.6875 18.2042 5.21875 16.7355 3.74219C14.7745 1.78906 12.298 0.75 9.57139 0.75C6.84483 0.75 4.36827 1.78906 2.40733 3.74219C0.938581 5.21875 0.274519 6.6875 0.251081 6.75C0.216201 6.82873 0.198181 6.91389 0.198181 7C0.198181 7.08611 0.216201 7.17127 0.251081 7.25C0.274519 7.3125 0.938581 8.78125 2.40733 10.2578C4.36827 12.2109 6.84483 13.25 9.57139 13.25C12.298 13.25 14.7745 12.2109 16.7355 10.2578C18.2042 8.78125 18.8683 7.3125 18.8917 7.25C18.9266 7.17127 18.9446 7.08611 18.9446 7C18.9446 6.91389 18.9266 6.82873 18.8917 6.75V6.75ZM9.57139 12C7.16514 12 5.06358 11.125 3.32921 9.39844C2.61243 8.69253 2.00426 7.88426 1.52452 7C2.00361 6.11298 2.61181 5.30205 3.32921 4.59375C5.06358 2.875 7.16514 2 9.57139 2C11.9776 2 14.0792 2.875 15.8136 4.59375C16.531 5.30205 17.1392 6.11298 17.6183 7C17.0558 8.05469 14.6026 12 9.57139 12ZM9.57139 3.25C8.82971 3.25 8.10469 3.46993 7.48801 3.88199C6.87132 4.29404 6.39067 4.87971 6.10685 5.56494C5.82302 6.25016 5.74876 7.00416 5.89345 7.73159C6.03814 8.45902 6.3953 9.1272 6.91974 9.65165C7.44419 10.1761 8.11238 10.5333 8.83981 10.6779C9.56723 10.8226 10.3212 10.7484 11.0065 10.4645C11.6917 10.1807 12.2774 9.70007 12.6894 9.08339C13.1015 8.4667 13.3214 7.74168 13.3214 7C13.3214 6.00544 12.9263 5.05161 12.223 4.34835C11.5198 3.64509 10.566 3.25 9.57139 3.25ZM9.57139 9.5C9.07694 9.5 8.59359 9.35338 8.18247 9.07867C7.77135 8.80397 7.45091 8.41352 7.2617 7.95671C7.07248 7.49989 7.02297 6.99723 7.11943 6.51227C7.21589 6.02732 7.454 5.58186 7.80363 5.23223C8.15326 4.8826 8.59872 4.6445 9.08367 4.54804C9.56862 4.45157 10.0713 4.50108 10.5281 4.6903C10.9849 4.87952 11.3754 5.19995 11.6501 5.61107C11.9248 6.0222 12.0714 6.50555 12.0714 7C12.0693 7.66241 11.8053 8.2971 11.3369 8.76549C10.8685 9.23389 10.2338 9.49794 9.57139 9.5Z" fill="#7B7E7B"/>
</svg>
