<svg xmlns="http://www.w3.org/2000/svg" xmlns:xlink="http://www.w3.org/1999/xlink" width="26" height="26" viewBox="0 0 26 26">
  <defs>
    <clipPath id="clip-path">
      <rect id="Rectangle_138" data-name="Rectangle 138" width="14.887" height="14.941" fill="#fff"/>
    </clipPath>
  </defs>
  <g id="Group_59740" data-name="Group 59740" transform="translate(-63 -5702.6)">
    <circle id="Ellipse_45" data-name="Ellipse 45" cx="13" cy="13" r="13" transform="translate(63 5702.6)" fill="#707070"/>
    <g id="Instagram" transform="translate(68.566 5707.809)">
      <g id="Group_181" data-name="Group 181" clip-path="url(#clip-path)">
        <path id="Path_325" data-name="Path 325" d="M9.7,14.941H5.211c-.091-.008-.182-.021-.274-.023a8.263,8.263,0,0,1-1.777-.182A3.821,3.821,0,0,1,.476,12.585,5.327,5.327,0,0,1,.027,10.33C.01,8.711-.008,7.093,0,5.474A14.681,14.681,0,0,1,.15,3.442,3.786,3.786,0,0,1,1.663.89,4.523,4.523,0,0,1,4.137.06C4.495.034,4.853.02,5.211,0H9.67c.348.02.7.038,1.044.059a4.962,4.962,0,0,1,1.765.393A3.893,3.893,0,0,1,14.8,3.629c.04.258.06.519.089.778v6.011c-.008.052-.018.1-.024.157-.032.294-.046.591-.1.882a3.967,3.967,0,0,1-1.277,2.389,4.4,4.4,0,0,1-2.733,1.037c-.352.024-.705.039-1.058.059m-2.243-1.32V13.6c.394,0,.788.012,1.18,0,.843-.03,1.692-.03,2.529-.122a2.464,2.464,0,0,0,2.215-1.96,6.858,6.858,0,0,0,.158-1.416q.04-2.078.025-4.157a19.785,19.785,0,0,0-.113-2.168,2.473,2.473,0,0,0-2.078-2.25A8.792,8.792,0,0,0,9.8,1.38Q7.7,1.35,5.6,1.374A14.615,14.615,0,0,0,3.655,1.5,2.45,2.45,0,0,0,1.514,3.533,8.369,8.369,0,0,0,1.37,5.024q-.038,1.8-.022,3.6c.01.84.031,1.683.112,2.519A2.471,2.471,0,0,0,2.705,13.13a3.214,3.214,0,0,0,1.533.408c1.073.038,2.146.056,3.218.083" transform="translate(0 0)" fill="#fff"/>
        <path id="Path_326" data-name="Path 326" d="M8.355,12.215a3.833,3.833,0,1,1,3.834,3.842,3.838,3.838,0,0,1-3.834-3.842m3.821,2.49a2.487,2.487,0,1,0-2.471-2.5,2.478,2.478,0,0,0,2.471,2.5" transform="translate(-4.736 -4.746)" fill="#fff"/>
        <path id="Path_327" data-name="Path 327" d="M26.128,6.869a.893.893,0,1,1-.892-.9.889.889,0,0,1,.892.9" transform="translate(-13.798 -3.38)" fill="#fff"/>
      </g>
    </g>
  </g>
</svg>
