<svg width="24" height="24" viewBox="0 0 24 24" fill="none" xmlns="http://www.w3.org/2000/svg">
<g clip-path="url(#clip0_27878_424736)">
<path d="M7.11012 13.0694L4.37162 11.5214C4.32058 11.4926 4.27832 11.4505 4.24935 11.3996C4.22038 11.3486 4.20578 11.2908 4.20712 11.2322C4.20845 11.1737 4.22567 11.1165 4.25693 11.067C4.28819 11.0174 4.33232 10.9773 4.38462 10.9509L16.0406 5.04688L14.0306 16.7534C14.0209 16.8102 13.9974 16.8637 13.9622 16.9094C13.9269 16.955 13.8811 16.9913 13.8286 17.0151C13.7761 17.0389 13.7186 17.0495 13.6611 17.046C13.6036 17.0425 13.5478 17.0249 13.4986 16.9949L9.42562 14.5074L7.54462 16.8649C7.50561 16.9136 7.4523 16.9488 7.39221 16.9656C7.33212 16.9824 7.26827 16.9799 7.20967 16.9585C7.15107 16.937 7.10067 16.8978 7.06559 16.8462C7.0305 16.7946 7.0125 16.7332 7.01412 16.6709L7.11012 13.0694Z" stroke="#7B7E7B" stroke-linecap="round" stroke-linejoin="round"/>
<path d="M7.10938 13.0694L16.0399 5.04688L9.42488 14.5074M19.4164 20.3644V16.7869M17.6274 18.5759H21.2049M19.4164 22.7494C22.9489 21.3919 22.7464 18.6724 22.7464 17.0494V15.8194C21.667 15.4808 20.5469 15.2891 19.4164 15.2494C18.2858 15.2891 17.1658 15.4808 16.0864 15.8194V17.0494C16.0864 18.6724 15.8839 21.3919 19.4164 22.7494Z" stroke="#7B7E7B" stroke-linecap="round" stroke-linejoin="round"/>
<path d="M17.269 21.3721C15.215 22.5275 12.8382 22.9761 10.5043 22.6488C8.1704 22.3215 6.00871 21.2363 4.3518 19.5604C2.6949 17.8844 1.63457 15.7105 1.33394 13.373C1.03331 11.0355 1.50905 8.66398 2.68795 6.6233C3.86686 4.58262 5.68362 2.98583 7.85873 2.07858C10.0338 1.17134 12.4468 1.00391 14.7264 1.60205C17.0059 2.20019 19.0258 3.53077 20.4753 5.38907C21.9247 7.24738 22.7234 9.53045 22.7485 11.8871M22.749 11.9736C22.7536 13.2241 22.5395 14.4658 22.1165 15.6426" stroke="#7B7E7B" stroke-linecap="round" stroke-linejoin="round"/>
</g>
<defs>
<clipPath id="clip0_27878_424736">
<rect width="24" height="24" fill="white"/>
</clipPath>
</defs>
</svg>
