<svg width="20" height="24" viewBox="0 0 20 24" fill="none" xmlns="http://www.w3.org/2000/svg">
<path d="M14.2868 2.57031H16.8583C17.3129 2.57031 17.7489 2.75092 18.0704 3.07242C18.3919 3.39391 18.5725 3.82994 18.5725 4.2846V21.4275C18.5725 21.8821 18.3919 22.3181 18.0704 22.6396C17.7489 22.9611 17.3129 23.1417 16.8583 23.1417H3.14397C2.68932 23.1417 2.25328 22.9611 1.93179 22.6396C1.6103 22.3181 1.42969 21.8821 1.42969 21.4275V4.2846C1.42969 3.82994 1.6103 3.39391 1.93179 3.07242C2.25328 2.75092 2.68932 2.57031 3.14397 2.57031H5.7154" stroke="#7B7E7B" stroke-linecap="round" stroke-linejoin="round"/>
<path d="M12.572 0.859375H7.42913C6.48236 0.859375 5.71484 1.62689 5.71484 2.57366V3.4308C5.71484 4.37758 6.48236 5.14509 7.42913 5.14509H12.572C13.5188 5.14509 14.2863 4.37758 14.2863 3.4308V2.57366C14.2863 1.62689 13.5188 0.859375 12.572 0.859375Z" stroke="#7B7E7B" stroke-linecap="round" stroke-linejoin="round"/>
<path d="M10.0028 10.2891V17.1462M13.4314 13.7176H6.57422" stroke="#7B7E7B" stroke-linecap="round" stroke-linejoin="round"/>
</svg>
