<svg width="24" height="24" viewBox="0 0 24 24" fill="none" xmlns="http://www.w3.org/2000/svg">
<path d="M12 22.4984C12 22.4984 20.9986 19.4988 20.9986 12" stroke="#7B7E7B" stroke-width="2" stroke-linecap="round" stroke-linejoin="round"/>
<path d="M20.9986 11.9984V2.99977C20.9986 2.99977 17.9991 1.5 12 1.5" stroke="#7B7E7B" stroke-width="2" stroke-linecap="round" stroke-linejoin="round"/>
<path d="M11.9986 22.4984C11.9986 22.4984 3 19.4988 3 12" stroke="#7B7E7B" stroke-width="2" stroke-linecap="round" stroke-linejoin="round"/>
<path d="M3 11.9984V2.99977C3 2.99977 5.99953 1.5 11.9986 1.5" stroke="#7B7E7B" stroke-width="2" stroke-linecap="round" stroke-linejoin="round"/>
<path d="M11.9974 7.66667C11.6307 7.66667 11.3167 7.536 11.0554 7.27467C10.7941 7.01333 10.6636 6.69956 10.6641 6.33333C10.6641 5.96667 10.7947 5.65267 11.0561 5.39133C11.3174 5.13 11.6312 4.99956 11.9974 5C12.3641 5 12.6781 5.13067 12.9394 5.392C13.2007 5.65333 13.3312 5.96711 13.3307 6.33333C13.3307 6.7 13.2001 7.014 12.9387 7.27533C12.6774 7.53667 12.3636 7.66711 11.9974 7.66667ZM10.9974 17V9H12.9974V17H10.9974Z" fill="#7B7E7B"/>
</svg>
