<svg width="38" height="24" viewBox="0 0 38 24" fill="none" xmlns="http://www.w3.org/2000/svg">
<rect x="1.5" y="2.5" width="36" height="17" rx="3.5" stroke="#7B7E7B"/>
<path d="M10.1707 14.6074C9.37869 14.6074 8.66735 14.4278 8.03669 14.0684C7.40602 13.7091 6.91102 13.2178 6.55169 12.5944C6.19969 11.9638 6.02369 11.2671 6.02369 10.5044C6.02369 9.74177 6.19969 9.04877 6.55169 8.42544C6.90369 7.8021 7.39502 7.31077 8.02569 6.95144C8.65635 6.58477 9.37135 6.40144 10.1707 6.40144C10.97 6.40144 11.685 6.58477 12.3157 6.95144C12.9464 7.31077 13.4377 7.8021 13.7897 8.42544C14.1417 9.04877 14.3177 9.74177 14.3177 10.5044C14.3177 11.2671 14.138 11.9638 13.7787 12.5944C13.4267 13.2178 12.9354 13.7091 12.3047 14.0684C11.674 14.4278 10.9627 14.6074 10.1707 14.6074ZM10.1707 13.7494C10.7794 13.7494 11.3257 13.6064 11.8097 13.3204C12.301 13.0344 12.6824 12.6458 12.9537 12.1544C13.225 11.6558 13.3607 11.1058 13.3607 10.5044C13.3607 9.89577 13.225 9.34577 12.9537 8.85444C12.6824 8.35577 12.3047 7.9671 11.8207 7.68844C11.3367 7.40244 10.7867 7.25944 10.1707 7.25944C9.55469 7.25944 9.00469 7.40244 8.52069 7.68844C8.03669 7.9671 7.65902 8.35577 7.38769 8.85444C7.11635 9.34577 6.98069 9.89577 6.98069 10.5044C6.98069 11.1058 7.11635 11.6558 7.38769 12.1544C7.65902 12.6458 8.03669 13.0344 8.52069 13.3204C9.01202 13.6064 9.56202 13.7494 10.1707 13.7494ZM17.709 7.44644H15.025V6.61044H21.306V7.44644H18.622V14.3984H17.709V7.44644ZM26.0561 14.6074C25.2861 14.6074 24.5931 14.4314 23.9771 14.0794C23.3611 13.7201 22.8771 13.2288 22.5251 12.6054C22.1804 11.9821 22.0081 11.2818 22.0081 10.5044C22.0081 9.7271 22.1804 9.02677 22.5251 8.40344C22.8771 7.7801 23.3611 7.29244 23.9771 6.94044C24.5931 6.5811 25.2824 6.40144 26.0451 6.40144C27.6657 6.40144 28.8537 7.10177 29.6091 8.50244L28.9821 8.94244L28.7951 8.89844C28.4797 8.33377 28.0984 7.91944 27.6511 7.65544C27.2037 7.39144 26.6721 7.25944 26.0561 7.25944C25.4694 7.25944 24.9414 7.40244 24.4721 7.68844C24.0027 7.9671 23.6324 8.35577 23.3611 8.85444C23.0971 9.34577 22.9651 9.89577 22.9651 10.5044C22.9651 11.1131 23.1007 11.6668 23.3721 12.1654C23.6434 12.6568 24.0137 13.0454 24.4831 13.3314C24.9597 13.6101 25.4877 13.7494 26.0671 13.7494C26.7271 13.7494 27.2771 13.6211 27.7171 13.3644C28.1644 13.1078 28.5457 12.6971 28.8611 12.1324L29.0481 12.0884L29.6531 12.5284C29.2424 13.2324 28.7437 13.7568 28.1571 14.1014C27.5704 14.4388 26.8701 14.6074 26.0561 14.6074Z" fill="#7B7E7B"/>
</svg>
