<svg width="25" height="24" viewBox="0 0 25 24" fill="none" xmlns="http://www.w3.org/2000/svg">
<path d="M17 19.5C17.8284 19.5 18.5 18.8284 18.5 18C18.5 17.1716 17.8284 16.5 17 16.5C16.1716 16.5 15.5 17.1716 15.5 18C15.5 18.8284 16.1716 19.5 17 19.5Z" fill="#7B7E7B"/>
<path d="M22.8328 17.6093C22.3693 16.4287 21.5697 15.41 20.5329 14.6796C19.4961 13.9491 18.2677 13.539 17 13.5C15.7323 13.539 14.5039 13.9491 13.4671 14.6796C12.4303 15.41 11.6307 16.4287 11.1672 17.6093L11 18L11.1672 18.3907C11.6307 19.5713 12.4303 20.59 13.4671 21.3204C14.5039 22.0509 15.7323 22.461 17 22.5C18.2677 22.461 19.4961 22.0509 20.5329 21.3204C21.5697 20.59 22.3693 19.5713 22.8328 18.3907L23 18L22.8328 17.6093ZM17 21C16.4067 21 15.8266 20.8241 15.3333 20.4944C14.8399 20.1648 14.4554 19.6962 14.2284 19.148C14.0013 18.5999 13.9419 17.9967 14.0576 17.4147C14.1734 16.8328 14.4591 16.2982 14.8787 15.8787C15.2982 15.4591 15.8328 15.1734 16.4147 15.0576C16.9967 14.9419 17.5999 15.0013 18.148 15.2284C18.6962 15.4554 19.1648 15.8399 19.4944 16.3333C19.8241 16.8266 20 17.4067 20 18C19.999 18.7953 19.6826 19.5578 19.1202 20.1202C18.5578 20.6826 17.7953 20.999 17 21Z" fill="#7B7E7B"/>
<path d="M9.5 21.0003H6.5V3.00025H12.5V7.50025C12.5012 7.89771 12.6596 8.27856 12.9407 8.5596C13.2217 8.84065 13.6025 8.99907 14 9.00025H18.5V12.0003H20V7.50025C20.0027 7.40169 19.9839 7.30372 19.9451 7.21308C19.9062 7.12245 19.8482 7.04132 19.775 6.97525L14.525 1.72525C14.459 1.65201 14.3778 1.59397 14.2872 1.55512C14.1966 1.51628 14.0986 1.49756 14 1.50026H6.5C6.10254 1.50144 5.7217 1.65986 5.44065 1.94091C5.1596 2.22195 5.00119 2.6028 5 3.00025V21.0003C5.00119 21.3977 5.1596 21.7786 5.44065 22.0596C5.7217 22.3406 6.10254 22.4991 6.5 22.5003H9.5V21.0003ZM14 3.30025L18.2 7.50025H14V3.30025Z" fill="#7B7E7B"/>
</svg>