<?xml version="1.0" encoding="UTF-8"?>
<svg id="Layer_1" data-name="Layer 1" xmlns="http://www.w3.org/2000/svg" viewBox="0 0 102.24 76.08">
  <defs>
    <style>
      .cls-1 {
        stroke-width: 0px;
      }
    </style>
  </defs>
  <path class="cls-1" d="m67.68,8.81c8.05-.06,15.43.5,22.58,2.71,1.96.6,3.88,1.48,5.63,2.53,2.66,1.59,3.32,3.49,2.64,6.53-.82,3.66-3.08,6.33-6,8.5-4.34,3.23-9.31,5.01-14.58,5.96-9.28,1.67-18.42,1.18-27.27-2.28-4.17-1.63-8-3.88-10.58-7.67-.98-1.44-1.6-3.18-2.11-4.88-.76-2.57.26-4.59,2.44-6.06,2.86-1.93,6.12-2.87,9.43-3.6,6.06-1.33,12.21-1.83,17.8-1.73Zm.58,16.31c.96,0,1.91.03,2.87,0,6.27-.19,12.5-.78,18.51-2.69,1.87-.6,3.69-1.49,5.37-2.52,1.53-.94,1.5-2.09.04-3.13-1.09-.78-2.31-1.43-3.56-1.91-4.76-1.83-9.77-2.58-14.82-3.01-9.07-.76-18.08-.45-26.98,1.59-2.75.63-5.48,1.42-7.85,3.06-1.81,1.25-1.87,2.43-.03,3.59,1.4.88,2.94,1.62,4.51,2.13,7.12,2.34,14.51,2.86,21.94,2.9Zm-25.47-.94c2.11,2.58,4.96,4.37,8.12,5.68,8.9,3.68,18.09,4.17,27.45,2.28,5.02-1.01,9.72-2.8,13.67-6.18.66-.56,1.23-1.23,1.77-1.78-17.05,5.07-34.02,5.09-51.01,0Z"/>
  <path class="cls-1" d="m34.45,39.73c7.31.12,14.79.56,21.99,2.89,2.05.67,4.03,1.7,5.89,2.82,2.06,1.24,2.66,3.24,2.22,5.6-.86,4.59-3.8,7.61-7.52,10.02-4.63,3.01-9.79,4.6-15.21,5.32-8.04,1.07-15.99.67-23.71-2.04-4.02-1.42-7.75-3.37-10.72-6.52-2.13-2.26-3.55-4.85-3.63-8.08-.04-1.72.62-2.99,1.89-4.04,2.04-1.69,4.46-2.61,6.95-3.33,7.07-2.05,14.33-2.55,21.84-2.64Zm-.4,16.47c6.85-.11,13.66-.5,20.25-2.42,2.26-.66,4.47-1.67,6.53-2.83,1.67-.95,1.63-2.2,0-3.26-1.38-.9-2.92-1.63-4.48-2.19-4.04-1.44-8.24-2.12-12.5-2.51-9.58-.87-19.12-.76-28.51,1.56-2.63.65-5.2,1.76-7.61,3.01-1.9.99-1.86,2.46,0,3.54,1.74,1.01,3.62,1.86,5.54,2.45,6.77,2.08,13.77,2.5,20.77,2.64Zm25.76-.86c-17.22,4.92-34.19,4.95-51.08-.16.05.07.22.32.42.54,2.23,2.43,5,4.07,8.01,5.3,8.61,3.49,17.5,3.94,26.54,2.25,5.07-.94,9.83-2.71,13.89-6.01.76-.62,1.48-1.28,2.22-1.92Z"/>
</svg>