<svg width="24" height="25" viewBox="0 0 24 25" fill="none" xmlns="http://www.w3.org/2000/svg">
<path d="M2 17.5156C2 16.5806 2 16.1136 2.201 15.7656C2.33265 15.5376 2.52199 15.3483 2.75 15.2166C3.098 15.0156 3.565 15.0156 4.5 15.0156C5.435 15.0156 5.902 15.0156 6.25 15.2166C6.47801 15.3483 6.66735 15.5376 6.799 15.7656C7 16.1136 7 16.5806 7 17.5156C7 18.4506 7 18.9176 6.799 19.2656C6.66735 19.4936 6.47801 19.683 6.25 19.8146C5.902 20.0156 5.435 20.0156 4.5 20.0156C3.565 20.0156 3.098 20.0156 2.75 19.8146C2.52199 19.683 2.33265 19.4936 2.201 19.2656C2 18.9176 2 18.4506 2 17.5156ZM9.5 17.5156C9.5 16.5806 9.5 16.1136 9.701 15.7656C9.83265 15.5376 10.022 15.3483 10.25 15.2166C10.598 15.0156 11.065 15.0156 12 15.0156C12.935 15.0156 13.402 15.0156 13.75 15.2166C13.978 15.3483 14.1674 15.5376 14.299 15.7656C14.5 16.1136 14.5 16.5806 14.5 17.5156C14.5 18.4506 14.5 18.9176 14.299 19.2656C14.1674 19.4936 13.978 19.683 13.75 19.8146C13.402 20.0156 12.935 20.0156 12 20.0156C11.065 20.0156 10.598 20.0156 10.25 19.8146C10.022 19.683 9.83265 19.4936 9.701 19.2656C9.5 18.9176 9.5 18.4506 9.5 17.5156ZM17 17.5156C17 16.5806 17 16.1136 17.201 15.7656C17.3326 15.5376 17.522 15.3483 17.75 15.2166C18.098 15.0156 18.565 15.0156 19.5 15.0156C20.435 15.0156 20.902 15.0156 21.25 15.2166C21.478 15.3483 21.6674 15.5376 21.799 15.7656C22 16.1136 22 16.5806 22 17.5156C22 18.4506 22 18.9176 21.799 19.2656C21.6674 19.4936 21.478 19.683 21.25 19.8146C20.902 20.0156 20.435 20.0156 19.5 20.0156C18.565 20.0156 18.098 20.0156 17.75 19.8146C17.522 19.683 17.3326 19.4936 17.201 19.2656C17 18.9176 17 18.4506 17 17.5156Z" stroke="#7B7E7B" stroke-width="1.5"/>
<path d="M4.5 15.0156V9.01562C4.5 6.65862 4.5 5.47962 5.232 4.74762C5.964 4.01562 7.143 4.01563 9.5 4.01563H14.5C16.857 4.01563 18.035 4.01562 18.768 4.74762C19.5 5.47962 19.5 6.65862 19.5 9.01562V12.0156M19.5 12.0156L21.5 10.0156M19.5 12.0156L17.5 10.0156" stroke="#7B7E7B" stroke-width="1.5" stroke-linecap="round" stroke-linejoin="round"/>
</svg>
