<svg width="24" height="24" viewBox="0 0 24 24" fill="none" xmlns="http://www.w3.org/2000/svg">
<path d="M12 22C13.1046 22 14 21.1046 14 20C14 18.8954 13.1046 18 12 18C10.8954 18 10 18.8954 10 20C10 21.1046 10.8954 22 12 22Z" fill="#7B7E7B"/>
<path d="M12 6C13.1046 6 14 5.10457 14 4C14 2.89543 13.1046 2 12 2C10.8954 2 10 2.89543 10 4C10 5.10457 10.8954 6 12 6Z" fill="#7B7E7B"/>
<path d="M6.34375 19.6562C7.44832 19.6562 8.34375 18.7608 8.34375 17.6562C8.34375 16.5517 7.44832 15.6562 6.34375 15.6562C5.23918 15.6562 4.34375 16.5517 4.34375 17.6562C4.34375 18.7608 5.23918 19.6562 6.34375 19.6562Z" fill="#7B7E7B"/>
<path d="M17.6562 8.34375C18.7608 8.34375 19.6562 7.44832 19.6562 6.34375C19.6562 5.23918 18.7608 4.34375 17.6562 4.34375C16.5517 4.34375 15.6562 5.23918 15.6562 6.34375C15.6562 7.44832 16.5517 8.34375 17.6562 8.34375Z" fill="#7B7E7B"/>
<path d="M4.001 14.002C5.10612 14.002 6.002 13.1061 6.002 12.001C6.002 10.8959 5.10612 10 4.001 10C2.89588 10 2 10.8959 2 12.001C2 13.1061 2.89588 14.002 4.001 14.002Z" fill="#7B7E7B"/>
<path d="M20 14C21.1046 14 22 13.1046 22 12C22 10.8954 21.1046 10 20 10C18.8954 10 18 10.8954 18 12C18 13.1046 18.8954 14 20 14Z" fill="#7B7E7B"/>
<path d="M6.34375 8.34375C7.44832 8.34375 8.34375 7.44832 8.34375 6.34375C8.34375 5.23918 7.44832 4.34375 6.34375 4.34375C5.23918 4.34375 4.34375 5.23918 4.34375 6.34375C4.34375 7.44832 5.23918 8.34375 6.34375 8.34375Z" fill="#7B7E7B"/>
<path d="M17.6562 19.6563C18.7608 19.6563 19.6562 18.7608 19.6562 17.6563C19.6562 16.5517 18.7608 15.6562 17.6562 15.6562C16.5517 15.6562 15.6562 16.5517 15.6562 17.6563C15.6562 18.7608 16.5517 19.6563 17.6562 19.6563Z" fill="#7B7E7B"/>
</svg>
