<svg width="24" height="24" viewBox="0 0 24 24" fill="none" xmlns="http://www.w3.org/2000/svg">
<rect x="1.5" y="2.5" width="21" height="17" rx="3.5" stroke="#7B7E7B"/>
<path d="M5.968 7.212H6.881V14.164H10.566L10.467 15H5.968V7.212ZM15.2065 15.209C14.4365 15.209 13.7435 15.033 13.1275 14.681C12.5115 14.3217 12.0275 13.8303 11.6755 13.207C11.3308 12.5837 11.1585 11.8833 11.1585 11.106C11.1585 10.3287 11.3308 9.62833 11.6755 9.005C12.0275 8.38167 12.5115 7.894 13.1275 7.542C13.7435 7.18267 14.4328 7.003 15.1955 7.003C16.8161 7.003 18.0041 7.70333 18.7595 9.104L18.1325 9.544L17.9455 9.5C17.6301 8.93533 17.2488 8.521 16.8015 8.257C16.3541 7.993 15.8225 7.861 15.2065 7.861C14.6198 7.861 14.0918 8.004 13.6225 8.29C13.1531 8.56867 12.7828 8.95733 12.5115 9.456C12.2475 9.94733 12.1155 10.4973 12.1155 11.106C12.1155 11.7147 12.2511 12.2683 12.5225 12.767C12.7938 13.2583 13.1641 13.647 13.6335 13.933C14.1101 14.2117 14.6381 14.351 15.2175 14.351C15.8775 14.351 16.4275 14.2227 16.8675 13.966C17.3148 13.7093 17.6961 13.2987 18.0115 12.734L18.1985 12.69L18.8035 13.13C18.3928 13.834 17.8941 14.3583 17.3075 14.703C16.7208 15.0403 16.0205 15.209 15.2065 15.209Z" fill="#7B7E7B"/>
</svg>
