<svg
      width="110"
      height="26"
      viewBox="0 0 143 32"
      fill="none"
      xmlns="http://www.w3.org/2000/svg"
    >
      <path
        d="M15 2H140C141.657 2 143 3.34315 143 5V27C143 28.6569 141.657 30 140 30H15V2Z"
        fill="#A9AFBB"
      />
      <path d="M0 16L15 2.14359L15 29.8564L0 16Z" fill="#A9AFBB" />
      <path
        d="M27.232 11.088H28.394V19.936H33.084L32.958 21H27.232V11.088ZM35.0898 12.614C34.8752 12.614 34.6885 12.5393 34.5298 12.39C34.3805 12.2407 34.3058 12.054 34.3058 11.83C34.3058 11.6153 34.3805 11.4333 34.5298 11.284C34.6885 11.1253 34.8752 11.046 35.0898 11.046C35.3045 11.046 35.4865 11.1253 35.6358 11.284C35.7945 11.4427 35.8738 11.6293 35.8738 11.844C35.8738 12.0587 35.7945 12.2407 35.6358 12.39C35.4865 12.5393 35.3045 12.614 35.0898 12.614ZM34.5578 21V14.784H35.6218V21H34.5578ZM45.4258 14.518C46.1164 14.518 46.6578 14.7327 47.0498 15.162C47.4418 15.5913 47.6378 16.198 47.6378 16.982V21H46.5738V17.458C46.5738 16.7953 46.4478 16.3053 46.1958 15.988C45.9531 15.6707 45.5891 15.512 45.1038 15.512C44.7584 15.512 44.4458 15.6193 44.1658 15.834C43.8951 16.0487 43.6804 16.3473 43.5218 16.73C43.3724 17.1033 43.2978 17.5233 43.2978 17.99V21H42.2338V17.458C42.2338 16.7953 42.1078 16.3053 41.8558 15.988C41.6131 15.6707 41.2491 15.512 40.7638 15.512C40.4184 15.512 40.1058 15.6193 39.8258 15.834C39.5551 16.0487 39.3404 16.3473 39.1818 16.73C39.0324 17.1033 38.9578 17.5233 38.9578 17.99V21H37.8938V14.784H38.9578V15.89C39.4804 14.9753 40.1898 14.518 41.0858 14.518C41.6178 14.518 42.0564 14.6533 42.4018 14.924C42.7471 15.1947 42.9851 15.5867 43.1158 16.1C43.3678 15.5773 43.6991 15.1853 44.1098 14.924C44.5204 14.6533 44.9591 14.518 45.4258 14.518ZM50.4433 12.614C50.2287 12.614 50.042 12.5393 49.8833 12.39C49.734 12.2407 49.6593 12.054 49.6593 11.83C49.6593 11.6153 49.734 11.4333 49.8833 11.284C50.042 11.1253 50.2287 11.046 50.4433 11.046C50.658 11.046 50.84 11.1253 50.9893 11.284C51.148 11.4427 51.2273 11.6293 51.2273 11.844C51.2273 12.0587 51.148 12.2407 50.9893 12.39C50.84 12.5393 50.658 12.614 50.4433 12.614ZM49.9113 21V14.784H50.9753V21H49.9113ZM56.4533 21.07C56.0893 21.2007 55.7066 21.266 55.3053 21.266C54.7453 21.266 54.3066 21.1073 53.9893 20.79C53.6719 20.4633 53.5133 20.006 53.5133 19.418V15.694H52.3233V14.784H53.5133V12.824L54.4373 12.264H54.5773V14.784H56.4393V15.694H54.5773V19.096C54.5773 19.5347 54.6426 19.8427 54.7733 20.02C54.9133 20.188 55.1606 20.272 55.5153 20.272C55.7486 20.272 56.0099 20.2067 56.2993 20.076L56.4113 20.132L56.4533 21.07ZM58.6078 18.088V18.144C58.6078 18.7973 58.8038 19.32 59.1958 19.712C59.5878 20.104 60.0871 20.3 60.6938 20.3C61.0951 20.3 61.4451 20.2067 61.7438 20.02C62.0518 19.8333 62.3364 19.5393 62.5978 19.138L62.7098 19.11L63.4798 19.628C63.1624 20.16 62.7611 20.566 62.2758 20.846C61.7998 21.126 61.2584 21.266 60.6518 21.266C60.0264 21.266 59.4711 21.126 58.9858 20.846C58.5098 20.5567 58.1364 20.16 57.8658 19.656C57.6044 19.1427 57.4738 18.5593 57.4738 17.906C57.4738 17.234 57.6044 16.6413 57.8658 16.128C58.1364 15.6147 58.5051 15.218 58.9718 14.938C59.4384 14.658 59.9751 14.518 60.5818 14.518C61.4871 14.518 62.2104 14.812 62.7518 15.4C63.2931 15.988 63.5638 16.8047 63.5638 17.85C63.5638 17.934 63.5591 18.0133 63.5498 18.088H58.6078ZM60.5818 15.47C60.0684 15.47 59.6391 15.624 59.2938 15.932C58.9484 16.24 58.7338 16.6693 58.6498 17.22H62.4298C62.3924 16.6787 62.2058 16.254 61.8698 15.946C61.5431 15.6287 61.1138 15.47 60.5818 15.47ZM67.7962 21.266C67.2082 21.266 66.6902 21.1307 66.2422 20.86C65.8036 20.58 65.4629 20.188 65.2202 19.684C64.9776 19.1707 64.8562 18.5733 64.8562 17.892C64.8562 17.248 64.9869 16.6693 65.2482 16.156C65.5096 15.6427 65.8642 15.2413 66.3122 14.952C66.7602 14.6627 67.2596 14.518 67.8102 14.518C68.2862 14.518 68.7296 14.6393 69.1402 14.882C69.5509 15.1153 69.8822 15.4513 70.1342 15.89V13.86V10.738H71.1982V21H70.1762V19.922C69.9429 20.3327 69.6069 20.6593 69.1682 20.902C68.7389 21.1447 68.2816 21.266 67.7962 21.266ZM67.9782 20.272C68.6502 20.272 69.1822 20.0573 69.5742 19.628C69.9756 19.1893 70.1762 18.6153 70.1762 17.906C70.1762 17.4487 70.0829 17.038 69.8962 16.674C69.7096 16.31 69.4529 16.0253 69.1262 15.82C68.7996 15.6147 68.4356 15.512 68.0342 15.512C67.4089 15.512 66.9096 15.7267 66.5362 16.156C66.1629 16.5853 65.9762 17.164 65.9762 17.892C65.9762 18.6387 66.1536 19.222 66.5082 19.642C66.8629 20.062 67.3529 20.272 67.9782 20.272ZM77.7633 11.088H78.9253V21H77.7633V11.088ZM82.3523 14.784V15.89C82.6136 15.4513 82.9403 15.1153 83.3323 14.882C83.7243 14.6393 84.1536 14.518 84.6203 14.518C85.367 14.518 85.9456 14.7327 86.3563 15.162C86.767 15.582 86.9723 16.1887 86.9723 16.982V21H85.9083V17.444C85.9083 16.772 85.7776 16.282 85.5163 15.974C85.2643 15.666 84.8676 15.512 84.3263 15.512C83.7383 15.512 83.2623 15.736 82.8983 16.184C82.5343 16.6227 82.3523 17.192 82.3523 17.892V21H81.2883V14.784H82.3523ZM91.2053 21.224L88.2233 14.784H89.3993L91.2753 19.082H91.3033L93.1653 14.784H94.3133L91.3453 21.224H91.2053ZM96.1917 18.088V18.144C96.1917 18.7973 96.3877 19.32 96.7797 19.712C97.1717 20.104 97.6711 20.3 98.2777 20.3C98.6791 20.3 99.0291 20.2067 99.3277 20.02C99.6357 19.8333 99.9204 19.5393 100.182 19.138L100.294 19.11L101.064 19.628C100.746 20.16 100.345 20.566 99.8597 20.846C99.3837 21.126 98.8424 21.266 98.2357 21.266C97.6104 21.266 97.0551 21.126 96.5697 20.846C96.0937 20.5567 95.7204 20.16 95.4497 19.656C95.1884 19.1427 95.0577 18.5593 95.0577 17.906C95.0577 17.234 95.1884 16.6413 95.4497 16.128C95.7204 15.6147 96.0891 15.218 96.5557 14.938C97.0224 14.658 97.5591 14.518 98.1657 14.518C99.0711 14.518 99.7944 14.812 100.336 15.4C100.877 15.988 101.148 16.8047 101.148 17.85C101.148 17.934 101.143 18.0133 101.134 18.088H96.1917ZM98.1657 15.47C97.6524 15.47 97.2231 15.624 96.8777 15.932C96.5324 16.24 96.3177 16.6693 96.2337 17.22H100.014C99.9764 16.6787 99.7897 16.254 99.4537 15.946C99.1271 15.6287 98.6977 15.47 98.1657 15.47ZM104.022 14.784V15.89C104.284 15.4513 104.61 15.1153 105.002 14.882C105.394 14.6393 105.824 14.518 106.29 14.518C107.037 14.518 107.616 14.7327 108.026 15.162C108.437 15.582 108.642 16.1887 108.642 16.982V21H107.578V17.444C107.578 16.772 107.448 16.282 107.186 15.974C106.934 15.666 106.538 15.512 105.996 15.512C105.408 15.512 104.932 15.736 104.568 16.184C104.204 16.6227 104.022 17.192 104.022 17.892V21H102.958V14.784H104.022ZM114.121 21.07C113.757 21.2007 113.375 21.266 112.973 21.266C112.413 21.266 111.975 21.1073 111.657 20.79C111.34 20.4633 111.181 20.006 111.181 19.418V15.694H109.991V14.784H111.181V12.824L112.105 12.264H112.245V14.784H114.107V15.694H112.245V19.096C112.245 19.5347 112.311 19.8427 112.441 20.02C112.581 20.188 112.829 20.272 113.183 20.272C113.417 20.272 113.678 20.2067 113.967 20.076L114.079 20.132L114.121 21.07ZM118.53 21.266C117.895 21.266 117.316 21.1167 116.794 20.818C116.28 20.5193 115.874 20.1133 115.576 19.6C115.277 19.0867 115.128 18.5173 115.128 17.892C115.128 17.2667 115.272 16.6973 115.562 16.184C115.86 15.6707 116.271 15.2647 116.794 14.966C117.316 14.6673 117.895 14.518 118.53 14.518C119.164 14.518 119.743 14.6673 120.266 14.966C120.788 15.2647 121.194 15.6707 121.484 16.184C121.782 16.6973 121.932 17.2667 121.932 17.892C121.932 18.5173 121.782 19.0867 121.484 19.6C121.185 20.1133 120.774 20.5193 120.252 20.818C119.738 21.1167 119.164 21.266 118.53 21.266ZM118.53 20.272C118.95 20.272 119.332 20.1693 119.678 19.964C120.032 19.7493 120.308 19.46 120.504 19.096C120.709 18.732 120.812 18.3307 120.812 17.892C120.812 17.4533 120.709 17.052 120.504 16.688C120.308 16.324 120.037 16.0393 119.692 15.834C119.346 15.6193 118.959 15.512 118.53 15.512C118.1 15.512 117.713 15.6193 117.368 15.834C117.022 16.0393 116.747 16.324 116.542 16.688C116.346 17.052 116.248 17.4533 116.248 17.892C116.248 18.3307 116.346 18.732 116.542 19.096C116.747 19.46 117.022 19.7493 117.368 19.964C117.722 20.1693 118.11 20.272 118.53 20.272ZM123.685 14.784H124.637V16.044C124.898 15.512 125.192 15.1247 125.519 14.882C125.855 14.6393 126.237 14.518 126.667 14.518C126.956 14.518 127.213 14.602 127.437 14.77C127.661 14.938 127.833 15.1853 127.955 15.512L127.045 16.044L126.933 16.016C126.849 15.8293 126.751 15.6987 126.639 15.624C126.527 15.5493 126.387 15.512 126.219 15.512C125.967 15.512 125.729 15.6193 125.505 15.834C125.281 16.0393 125.099 16.338 124.959 16.73C124.819 17.1127 124.749 17.5653 124.749 18.088V21H123.685V14.784ZM128.999 24.052L130.777 20.384L128.257 14.784H129.475L131.323 19.236H131.351L133.269 14.784H134.473L130.203 24.052H128.999Z"
        fill="#E1E6EA"
      />
      <circle cx="19" cy="16" r="2" fill="white" />
    </svg>