<svg width="34px" height="34" viewBox="0 0 30 29" xmlns="http://www.w3.org/2000/svg">
<g id="Group_34" data-name="Group 34" transform="translate(0 0)">
<path id="Path_23" data-name="Path 23" d="M156.94,494.546h-1.05c-.205-.025-.41-.047-.615-.076a8.419,8.419,0,0,1-7.131-6.861c-.057-.31-.088-.625-.131-.938v-1.05c.053-.367.092-.737.162-1.1a8.407,8.407,0,0,1,7.415-6.737,7.981,7.981,0,0,1,5.037,1.1,8.2,8.2,0,0,1,4.141,8.1,7.83,7.83,0,0,1-1.831,4.449,8.272,8.272,0,0,1-5.058,2.981C157.569,494.472,157.253,494.5,156.94,494.546Zm-1.823-10.253v6.139h2.033c0-.53,0-1.049,0-1.568,0-.689,0-1.378.015-2.066a1.054,1.054,0,0,1,.515-.869.985.985,0,0,1,1.532.555,2.763,2.763,0,0,1,.087.712c.009,1.022,0,2.044,0,3.067v.169h2.045v-.141c0-1.121,0-2.242,0-3.362a5.947,5.947,0,0,0-.044-.67,2.195,2.195,0,0,0-2.011-2.095,2.034,2.034,0,0,0-2.057.876.529.529,0,0,0-.039.083l-.053-.031v-.8Zm-1.15,6.146c0-.042.008-.068.008-.095q0-2.962,0-5.923c0-.127-.057-.139-.159-.138-.58,0-1.159,0-1.739,0-.048,0-.1.007-.143.011v6.143Zm-1-9.118a1.1,1.1,0,0,0-1.113.745,1.044,1.044,0,0,0,.7,1.325,1.174,1.174,0,0,0,1.5-.664A1.066,1.066,0,0,0,152.966,481.321Z" transform="translate(-148.013 -477.742)" fill="#062F6E">
</path>
</g>
</svg>
