<svg width="13" height="14" viewBox="0 0 13 14" fill="none" xmlns="http://www.w3.org/2000/svg">
<path d="M2.57129 5.411V0.5C2.57129 0.367392 2.6242 0.240215 2.71838 0.146447C2.81256 0.0526784 2.94029 0 3.07349 0C3.20668 0 3.33441 0.0526784 3.42859 0.146447C3.52277 0.240215 3.57568 0.367392 3.57568 0.5V5.411C3.86955 5.30756 4.12395 5.11592 4.30384 4.86249C4.48373 4.60906 4.58024 4.30633 4.58008 3.996V0.5C4.58008 0.367392 4.63299 0.240215 4.72717 0.146447C4.82135 0.0526784 4.94908 0 5.08227 0C5.21546 0 5.3432 0.0526784 5.43738 0.146447C5.53156 0.240215 5.58447 0.367392 5.58447 0.5V3.996C5.58459 4.57233 5.38471 5.13099 5.01865 5.57745C4.65259 6.02391 4.14285 6.33073 3.57568 6.446V13.5C3.57568 13.6326 3.52277 13.7598 3.42859 13.8536C3.33441 13.9473 3.20668 14 3.07349 14C2.94029 14 2.81256 13.9473 2.71838 13.8536C2.6242 13.7598 2.57129 13.6326 2.57129 13.5V6.446C2.00412 6.33073 1.49438 6.02391 1.12832 5.57745C0.762266 5.13099 0.562382 4.57233 0.5625 3.996V0.5C0.5625 0.367392 0.61541 0.240215 0.70959 0.146447C0.80377 0.0526784 0.931506 0 1.0647 0C1.19789 0 1.32562 0.0526784 1.4198 0.146447C1.51398 0.240215 1.56689 0.367392 1.56689 0.5V3.996C1.56673 4.30633 1.66324 4.60906 1.84313 4.86249C2.02302 5.11592 2.27742 5.30756 2.57129 5.411ZM9.09985 7.945C7.67461 7.627 6.58887 5.982 6.58887 4C6.58887 1.79 7.93777 0 9.60205 0C11.2663 0 12.6152 1.79 12.6152 4C12.6152 5.982 11.5295 7.627 10.1042 7.945V13.5C10.1042 13.6326 10.0513 13.7598 9.95716 13.8536C9.86298 13.9473 9.73524 14 9.60205 14C9.46886 14 9.34112 13.9473 9.24694 13.8536C9.15276 13.7598 9.09985 13.6326 9.09985 13.5V7.945ZM9.60205 7C10.6386 7 11.6108 5.71 11.6108 4C11.6108 2.29 10.6386 1 9.60205 1C8.56551 1 7.59326 2.29 7.59326 4C7.59326 5.71 8.56551 7 9.60205 7Z" fill="#7B7E7B"/>
</svg>
