
<svg width="62" height="40" viewBox="0 0 62 40" fill="none" xmlns="http://www.w3.org/2000/svg">
<rect width="62" height="40" rx="4" fill="#FC8100"/>
<path d="M21.3291 14.2031V27H19.624L13.1816 17.1299V27H11.4854V14.2031H13.1816L19.6504 24.0996V14.2031H21.3291ZM28.0352 27.1758C27.373 27.1758 26.7725 27.0645 26.2334 26.8418C25.7002 26.6133 25.2402 26.2939 24.8535 25.8838C24.4727 25.4736 24.1797 24.9873 23.9746 24.4248C23.7695 23.8623 23.667 23.2471 23.667 22.5791V22.21C23.667 21.4365 23.7812 20.748 24.0098 20.1445C24.2383 19.5352 24.5488 19.0195 24.9414 18.5977C25.334 18.1758 25.7793 17.8564 26.2773 17.6396C26.7754 17.4229 27.291 17.3145 27.8242 17.3145C28.5039 17.3145 29.0898 17.4316 29.582 17.666C30.0801 17.9004 30.4873 18.2285 30.8037 18.6504C31.1201 19.0664 31.3545 19.5586 31.5068 20.127C31.6592 20.6895 31.7354 21.3047 31.7354 21.9727V22.7021H24.6338V21.375H30.1094V21.252C30.0859 20.8301 29.998 20.4199 29.8457 20.0215C29.6992 19.623 29.4648 19.2949 29.1426 19.0371C28.8203 18.7793 28.3809 18.6504 27.8242 18.6504C27.4551 18.6504 27.1152 18.7295 26.8047 18.8877C26.4941 19.04 26.2275 19.2686 26.0049 19.5732C25.7822 19.8779 25.6094 20.25 25.4863 20.6895C25.3633 21.1289 25.3018 21.6357 25.3018 22.21V22.5791C25.3018 23.0303 25.3633 23.4551 25.4863 23.8535C25.6152 24.2461 25.7998 24.5918 26.04 24.8906C26.2861 25.1895 26.582 25.4238 26.9277 25.5938C27.2793 25.7637 27.6777 25.8486 28.123 25.8486C28.6973 25.8486 29.1836 25.7314 29.582 25.4971C29.9805 25.2627 30.3291 24.9492 30.6279 24.5566L31.6123 25.3389C31.4072 25.6494 31.1465 25.9453 30.8301 26.2266C30.5137 26.5078 30.124 26.7363 29.6611 26.9121C29.2041 27.0879 28.6621 27.1758 28.0352 27.1758ZM36.042 25.3125L38.4854 17.4902H39.5576L39.3467 19.0459L36.8594 27H35.8135L36.042 25.3125ZM34.3984 17.4902L36.4814 25.4004L36.6309 27H35.5322L32.7725 17.4902H34.3984ZM41.8955 25.3389L43.8818 17.4902H45.499L42.7393 27H41.6494L41.8955 25.3389ZM39.7949 17.4902L42.1855 25.1807L42.458 27H41.4209L38.8633 19.0283L38.6523 17.4902H39.7949ZM49.1025 14.2031L48.9883 23.3877H47.5205L47.3975 14.2031H49.1025ZM47.3447 26.1826C47.3447 25.9189 47.4238 25.6963 47.582 25.5146C47.7461 25.333 47.9863 25.2422 48.3027 25.2422C48.6133 25.2422 48.8506 25.333 49.0146 25.5146C49.1846 25.6963 49.2695 25.9189 49.2695 26.1826C49.2695 26.4346 49.1846 26.6514 49.0146 26.833C48.8506 27.0146 48.6133 27.1055 48.3027 27.1055C47.9863 27.1055 47.7461 27.0146 47.582 26.833C47.4238 26.6514 47.3447 26.4346 47.3447 26.1826Z" fill="white"/>
</svg>
