<svg width="24" height="25" viewBox="0 0 24 25" fill="none" xmlns="http://www.w3.org/2000/svg">
<path d="M4.60938 19.8923L5.80937 15.1403L12.9614 7.98828L16.5134 11.5403L9.36137 18.6923L4.60938 19.8923ZM6.67337 15.6203L5.95337 18.5483L8.88137 17.8283L15.1694 11.5403L12.9614 9.33228L6.67337 15.6203Z" fill="#7B7F86"/>
<path d="M8.54175 18.4039C8.25375 17.2039 7.29375 16.2439 6.09375 15.9559L6.33375 15.0439C7.86975 15.4279 9.06975 16.6279 9.45375 18.1639L8.54175 18.4039Z" fill="#7B7F86"/>
<path d="M14.0643 9.75753L14.743 10.4362L8.49821 16.6858L7.81949 16.009L14.0643 9.75753ZM5.28125 19.2198L6.67325 18.8838C6.52925 18.3558 6.14525 17.9718 5.61725 17.8278L5.28125 19.2198ZM16.8013 11.2518L13.2493 7.69977L14.6893 6.25977L14.9293 6.30777C16.6573 6.54777 18.0013 7.89177 18.2413 9.61977L18.2893 9.85977L16.8013 11.2518ZM14.5933 7.69977L16.8013 9.90777L17.2333 9.47577C16.9933 8.37177 16.1293 7.50777 15.0253 7.26777L14.5933 7.69977Z" fill="#7B7F86"/>
</svg>
