<svg width="65" height="64" viewBox="0 0 65 64" fill="none" xmlns="http://www.w3.org/2000/svg">
<path d="M0 10.2595C0 7.53848 1.09779 4.92895 3.05188 3.00493C5.00596 1.0809 7.65627 0 10.4198 0H47.2897C50.0532 0 52.7035 1.0809 54.6576 3.00493C56.6117 4.92895 57.7095 7.53848 57.7095 10.2595V28.4803C53.7082 25.9606 48.9528 24.8623 44.2309 25.3673C39.509 25.8723 35.104 27.9503 31.7455 31.2571C28.387 34.564 26.2765 38.9012 25.7636 43.5504C25.2507 48.1996 26.3662 52.8819 28.9253 56.8216H10.4198C7.65627 56.8216 5.00596 55.7407 3.05188 53.8167C1.09779 51.8927 0 49.2831 0 46.5622V10.2595ZM30.4578 19.7297C30.4578 21.0366 31.535 22.0973 32.8623 22.0973H44.0836C44.7213 22.0973 45.333 21.8479 45.7839 21.4039C46.2348 20.9598 46.4882 20.3576 46.4882 19.7297C46.4882 19.1018 46.2348 18.4996 45.7839 18.0556C45.333 17.6116 44.7213 17.3622 44.0836 17.3622H32.8623C32.2246 17.3622 31.613 17.6116 31.162 18.0556C30.7111 18.4996 30.4578 19.1018 30.4578 19.7297ZM24.9433 18.2461C25.1796 18.0293 25.369 17.7679 25.5005 17.4775C25.6319 17.1871 25.7026 16.8736 25.7083 16.5557C25.714 16.2378 25.6546 15.922 25.5336 15.6272C25.4127 15.3324 25.2327 15.0646 25.0043 14.8398C24.776 14.615 24.504 14.4377 24.2046 14.3187C23.9052 14.1996 23.5845 14.1411 23.2616 14.1467C22.9388 14.1523 22.6204 14.2219 22.3254 14.3513C22.0305 14.4807 21.765 14.6673 21.5449 14.8999L16.8319 19.5403L15.3251 18.0566C14.8692 17.6384 14.2664 17.4108 13.6434 17.4216C13.0205 17.4324 12.4261 17.6809 11.9855 18.1147C11.545 18.5484 11.2926 19.1337 11.2816 19.747C11.2706 20.3604 11.5019 20.954 11.9266 21.4028L15.1327 24.5596C15.5836 25.0029 16.1947 25.252 16.8319 25.252C17.4691 25.252 18.0803 25.0029 18.5311 24.5596L24.9433 18.2461ZM24.9433 32.2621C24.4925 31.8187 23.8813 31.5696 23.2441 31.5696C22.6069 31.5696 21.9957 31.8187 21.5449 32.2621L16.8319 36.9025L15.3251 35.4188C14.8692 35.0006 14.2664 34.7729 13.6434 34.7837C13.0205 34.7946 12.4261 35.043 11.9855 35.4768C11.545 35.9106 11.2926 36.4958 11.2816 37.1092C11.2706 37.7225 11.5019 38.3162 11.9266 38.765L15.1327 41.9217C15.5836 42.3651 16.1947 42.6141 16.8319 42.6141C17.4691 42.6141 18.0803 42.3651 18.5311 41.9217L24.9433 35.6082C25.3936 35.1643 25.6465 34.5625 25.6465 33.9351C25.6465 33.3077 25.3936 32.706 24.9433 32.2621ZM64.1216 45.773C64.1216 41.1682 62.2638 36.7521 58.9569 33.4961C55.65 30.24 51.1649 28.4108 46.4882 28.4108C41.8115 28.4108 37.3264 30.24 34.0194 33.4961C30.7125 36.7521 28.8547 41.1682 28.8547 45.773C28.8547 50.3777 30.7125 54.7938 34.0194 58.0499C37.3264 61.3059 41.8115 63.1351 46.4882 63.1351C51.1649 63.1351 55.65 61.3059 58.9569 58.0499C62.2638 54.7938 64.1216 50.3777 64.1216 45.773ZM48.0912 47.3513L48.0944 55.2527C48.0944 55.6713 47.9255 56.0728 47.6249 56.3688C47.3243 56.6648 46.9165 56.8311 46.4914 56.8311C46.0662 56.8311 45.6585 56.6648 45.3579 56.3688C45.0572 56.0728 44.8883 55.6713 44.8883 55.2527V47.3513H36.8571C36.432 47.3513 36.0242 47.1851 35.7236 46.8891C35.423 46.5931 35.2541 46.1916 35.2541 45.773C35.2541 45.3544 35.423 44.9529 35.7236 44.6569C36.0242 44.3609 36.432 44.1946 36.8571 44.1946H44.8851V36.3027C44.8851 35.8841 45.054 35.4826 45.3547 35.1866C45.6553 34.8906 46.063 34.7243 46.4882 34.7243C46.9133 34.7243 47.3211 34.8906 47.6217 35.1866C47.9223 35.4826 48.0912 35.8841 48.0912 36.3027V44.1946H56.0968C56.5219 44.1946 56.9297 44.3609 57.2303 44.6569C57.5309 44.9529 57.6998 45.3544 57.6998 45.773C57.6998 46.1916 57.5309 46.5931 57.2303 46.8891C56.9297 47.1851 56.5219 47.3513 56.0968 47.3513H48.0912Z" fill="white"/>
<ellipse cx="46.5541" cy="45.8379" rx="18.4459" ry="18.1622" fill="#F98300"/>
<path d="M46.1149 26.8108C35.6848 26.8108 27.2297 35.1358 27.2297 45.4054C27.2297 55.675 35.6848 64 46.1149 64C56.545 64 65 55.675 65 45.4054C65 35.1358 56.545 26.8108 46.1149 26.8108ZM47.7456 55.487V58.1059H45.2014V55.5164C41.0265 54.9535 39.1983 51.5759 39.1983 51.5759L41.797 49.4355C41.797 49.4355 43.4563 52.2796 46.4579 52.2796C48.1159 52.2796 49.3737 51.4057 49.3737 49.9127C49.3737 46.4225 39.8233 46.846 39.8233 40.371C39.8233 37.5564 42.0842 35.5286 45.2001 35.0488V32.4324H47.7443V35.0488C49.9168 35.3303 52.4896 36.4561 52.4896 38.878V40.7357H49.1164V39.835C49.1164 38.9061 47.9145 38.2869 46.5697 38.2869C44.8545 38.2869 43.598 39.1313 43.598 40.3135C43.598 43.8881 53.1484 43.0155 53.1484 49.8001C53.1484 52.5892 51.033 55.0072 47.7456 55.487Z" fill="white"/>
</svg>
