<svg width="17" height="17" viewBox="0 0 17 17" fill="none" xmlns="http://www.w3.org/2000/svg">
<path d="M13.8125 7.34619V13.8125C13.8125 14.2352 13.6446 14.6406 13.3457 14.9395C13.0468 15.2383 12.6414 15.4062 12.2188 15.4062H4.78125C4.35856 15.4062 3.95318 15.2383 3.6543 14.9395C3.35541 14.6406 3.1875 14.2352 3.1875 13.8125V3.1875C3.1875 2.76481 3.35541 2.35943 3.6543 2.06055C3.95318 1.76166 4.35856 1.59375 4.78125 1.59375H8.06006C8.34175 1.59379 8.6119 1.7057 8.81111 1.90486L13.5014 6.59514C13.7006 6.79435 13.8125 7.0645 13.8125 7.34619Z" stroke="#4D4D4D" stroke-linejoin="round"/>
<path d="M8.5 1.85938V5.84375C8.5 6.12554 8.61194 6.39579 8.8112 6.59505C9.01046 6.79431 9.28071 6.90625 9.5625 6.90625H13.5469M5.84375 9.5625H11.1562M5.84375 12.2188H11.1562" stroke="#4D4D4D" stroke-linecap="round" stroke-linejoin="round"/>
</svg>
