<svg width="18" height="18" viewBox="0 0 18 18" fill="none" xmlns="http://www.w3.org/2000/svg">
<path d="M4.25332 3.19289C7.19932 0.778635 11.5531 0.946635 14.3033 3.69689C17.2321 6.62564 17.2321 11.3746 14.3033 14.3034C11.3746 17.2321 6.62557 17.2321 3.69682 14.3034C2.79804 13.4058 2.14213 12.2946 1.79067 11.074C1.4392 9.85337 1.40373 8.56346 1.68757 7.32539L1.74532 7.09064L3.19582 7.47314C2.83623 8.83983 2.97059 10.2896 3.57523 11.5669C4.17987 12.8443 5.21597 13.8672 6.50095 14.4554C7.78592 15.0436 9.23729 15.1594 10.5993 14.7823C11.9612 14.4052 13.1464 13.5595 13.9459 12.3942C14.7454 11.2289 15.1079 9.81875 14.9695 8.41233C14.8311 7.00591 14.2008 5.69347 13.1895 4.70631C12.1782 3.71915 10.8509 3.12063 9.44158 3.01623C8.03223 2.91183 6.63126 3.30826 5.48557 4.13564L5.31982 4.26014L6.08257 5.02289L2.63557 5.81789L3.43057 2.37089L4.25257 3.19289H4.25332ZM9.75007 4.50014V6.00014H11.6251V7.50014H7.50007C7.40636 7.49996 7.31598 7.53488 7.24674 7.59802C7.17749 7.66115 7.13438 7.74793 7.12592 7.84125C7.11745 7.93458 7.14423 8.02769 7.20099 8.10226C7.25774 8.17683 7.34036 8.22744 7.43257 8.24414L7.50007 8.25014H10.5001C10.9974 8.25014 11.4743 8.44768 11.8259 8.79931C12.1775 9.15094 12.3751 9.62786 12.3751 10.1251C12.3751 10.6224 12.1775 11.0993 11.8259 11.451C11.4743 11.8026 10.9974 12.0001 10.5001 12.0001H9.75007V13.5001H8.25007V12.0001H6.37507V10.5001H10.5001C10.5938 10.5003 10.6842 10.4654 10.7534 10.4023C10.8227 10.3391 10.8658 10.2523 10.8742 10.159C10.8827 10.0657 10.8559 9.97258 10.7992 9.89801C10.7424 9.82345 10.6598 9.77283 10.5676 9.75614L10.5001 9.75014H7.50007C7.00279 9.75014 6.52588 9.55259 6.17425 9.20096C5.82262 8.84933 5.62507 8.37242 5.62507 7.87514C5.62507 7.37785 5.82262 6.90094 6.17425 6.54931C6.52588 6.19768 7.00279 6.00014 7.50007 6.00014H8.25007V4.50014H9.75007Z" fill="#7B7E7B"/>
</svg>
