<?xml version="1.0" encoding="UTF-8"?>
<svg id="Layer_1" data-name="Layer 1" xmlns="http://www.w3.org/2000/svg" version="1.1" viewBox="0 0 24 24">
  <defs>
    <style>
      .cls-1 {
        fill-rule: evenodd;
      }

      .cls-1, .cls-2 {
        fill: #7b7e7b;
        stroke-width: 0px;
      }
    </style>
  </defs>
  <path class="cls-1" d="M12,3C7,3,3,7,3,12s4,9,9,9,9-4,9-9S17,3,12,3ZM2,12C2,6.5,6.5,2,12,2s10,4.5,10,10-4.5,10-10,10S2,17.5,2,12ZM6,15V7c0-.1,0-.3.1-.4,0,0,.2-.1.4-.1h3c.6,0,1.3.3,1.7.7.5.4.7,1.1.8,1.7,0,.6-.2,1.3-.6,1.8-.4.5-1,.8-1.7.8l2.3,2.3,2.1-2.1.7.7-2.1,2.1,2.1,2.1-.7.7-2.1-2.1-2.1,2.1-.7-.7,2.1-2.1-3-3h-1.3v3.5h-1ZM7,10.5h2.5c.4,0,.8-.2,1.1-.4.3-.3.4-.7.4-1.1s-.2-.8-.4-1.1c-.3-.3-.7-.4-1.1-.4h-2.5v3Z"/>
  <path class="cls-2" d="M17,10.1c0,.3-.2.6-.6.6s-.6-.3-.6-.6.3-.6.6-.6.6.3.6.6ZM15.9,17.2v-5.5h1v5.5h-1Z"/>
</svg>