<svg width="19" height="19" viewBox="0 0 19 19" fill="none" xmlns="http://www.w3.org/2000/svg">
<path d="M5.33984 3.16704H8.08218C8.23261 3.16708 8.37742 3.22423 8.48735 3.32693C8.59727 3.42963 8.66411 3.57023 8.67437 3.72032C8.68462 3.8704 8.63752 4.01878 8.54258 4.13548C8.44765 4.25218 8.31196 4.32849 8.16293 4.34899L8.08218 4.35454H5.33984C4.88862 4.35447 4.45419 4.52565 4.12429 4.8335C3.7944 5.14135 3.59364 5.56293 3.56255 6.01308L3.55859 6.13579V13.6566C3.55874 14.1078 3.73012 14.5422 4.03811 14.8719C4.34611 15.2017 4.76777 15.4022 5.21793 15.4331L5.33984 15.4379H12.8607C13.3122 15.4381 13.7469 15.2669 14.077 14.9589C14.4071 14.6509 14.6079 14.229 14.6388 13.7785L14.6427 13.6566V13.2624C14.6428 13.1119 14.6999 12.9671 14.8026 12.8572C14.9053 12.7473 15.0459 12.6804 15.196 12.6702C15.3461 12.6599 15.4945 12.707 15.6112 12.802C15.7279 12.8969 15.8042 13.0326 15.8247 13.1816L15.8302 13.2624V13.6566C15.8301 14.4166 15.5385 15.1476 15.0155 15.699C14.4925 16.2504 13.7779 16.5803 13.019 16.6206L12.8607 16.6254H5.33984C4.57972 16.6254 3.84852 16.3339 3.29694 15.8109C2.74535 15.2879 2.41539 14.5732 2.37505 13.8142L2.37109 13.6558V6.13499C2.37123 5.37513 2.66272 4.64425 3.18555 4.09285C3.70838 3.54145 4.42273 3.21152 5.18151 3.17099L5.33984 3.16704ZM11.4784 5.16204V2.96912C11.4784 2.85991 11.5084 2.75279 11.5653 2.65955C11.6222 2.56632 11.7036 2.49057 11.8008 2.44065C11.8979 2.39073 12.007 2.36857 12.1159 2.37661C12.2248 2.38465 12.3294 2.42257 12.4181 2.4862L12.4831 2.54004L17.2291 7.09212C17.4508 7.30508 17.4706 7.64629 17.2893 7.8822L17.2291 7.94949L12.4831 12.5032C12.4043 12.5788 12.3061 12.6313 12.1994 12.6548C12.0927 12.6783 11.9816 12.6719 11.8783 12.6363C11.775 12.6007 11.6835 12.5372 11.6139 12.453C11.5444 12.3688 11.4994 12.2669 11.484 12.1588L11.4784 12.0741V9.91679L11.2069 9.94054C9.30689 10.1385 7.48605 10.9942 5.73251 12.5214C5.32084 12.88 4.68593 12.5412 4.75322 12.0005C5.27968 7.78879 7.48209 5.46841 11.2417 5.17708L11.4784 5.16204ZM12.6659 4.36087V5.73995C12.6659 5.89743 12.6034 6.04845 12.492 6.1598C12.3807 6.27115 12.2297 6.3337 12.0722 6.3337C9.00605 6.3337 7.10526 7.66054 6.2843 10.4163L6.22097 10.6364L6.50043 10.4488C8.27059 9.29216 10.131 8.7087 12.0714 8.7087C12.215 8.70874 12.3537 8.76081 12.4619 8.85528C12.57 8.94974 12.6403 9.0802 12.6596 9.2225L12.6651 9.30245V10.6823L15.9601 7.5212L12.6659 4.36087Z" fill="#7B7E7B"/>
</svg>
