<svg width="25" height="25" viewBox="0 0 25 25" fill="none" xmlns="http://www.w3.org/2000/svg">
<path fill-rule="evenodd" clip-rule="evenodd" d="M18.0857 20.144C16.2112 21.6284 13.8566 22.3722 11.4695 22.234C9.08242 22.0959 6.82934 21.0853 5.1386 19.3946C3.44786 17.7039 2.43735 15.4508 2.29918 13.0637C2.16102 10.6766 2.90483 8.32202 4.3892 6.4475L18.0857 20.144ZM19.6772 18.554L5.9807 4.8545C7.85522 3.37012 10.2098 2.62631 12.5969 2.76448C14.984 2.90265 17.2371 3.91316 18.9278 5.6039C20.6185 7.29464 21.6291 9.54772 21.7672 11.9348C21.9054 14.3219 21.1616 16.6765 19.6772 18.551V18.554ZM24.0332 12.5C24.0332 15.6826 22.7689 18.7348 20.5185 20.9853C18.268 23.2357 15.2158 24.5 12.0332 24.5C8.85061 24.5 5.79836 23.2357 3.54792 20.9853C1.29749 18.7348 0.0332031 15.6826 0.0332031 12.5C0.0332031 9.3174 1.29749 6.26516 3.54792 4.01472C5.79836 1.76428 8.85061 0.5 12.0332 0.5C15.2158 0.5 18.268 1.76428 20.5185 4.01472C22.7689 6.26516 24.0332 9.3174 24.0332 12.5Z" fill="#7B7E7B"/>
</svg>
