<svg width="18" height="20" viewBox="0 0 18 20" fill="none" xmlns="http://www.w3.org/2000/svg">
<path d="M13.6667 2.0013H17V18.0013C17 18.3549 16.8595 18.6941 16.6095 18.9441C16.3594 19.1942 16.0203 19.3346 15.6667 19.3346H2.33333C1.97971 19.3346 1.64057 19.1942 1.39052 18.9441C1.14048 18.6941 1 18.3549 1 18.0013V2.0013H4.33333M5.66667 11.3346L8.33333 14.0013L13 8.66797M5 0.667969H13V3.33464C13 3.68826 12.8595 4.0274 12.6095 4.27744C12.3594 4.52749 12.0203 4.66797 11.6667 4.66797H6.33333C5.97971 4.66797 5.64057 4.52749 5.39052 4.27744C5.14048 4.0274 5 3.68826 5 3.33464V0.667969Z" stroke="#7B7E7B"/>
</svg>
