<!-- sample rectangle -->
<svg width="60px" height="90px" viewBox="0 0 53 40" xmlns="http://www.w3.org/2000/svg"><g id="Main-Pages" stroke="none" stroke-width="1" fill="none" fill-rule="evenodd"><g id="MyEyeLab_ProductDetails" transform="translate(-141.000000, -593.000000)"><g id="Hero-&amp;-Thumbs-2" transform="translate(116.000000, 185.000000)"><g id="Group-20" transform="translate(25.000000, 408.000000)"><polygon id="Fill-1" fill="#000000" points="17.2311 22.0414 17.3421 22.6274 17.3771 22.6274 17.4951 22.0414 18.5381 18.0624 20.3251 18.0624 18.1681 24.4024 16.5341 24.4024 14.3771 18.0624 16.1651 18.0624"></polygon><path d="M21.157,24.4025 L22.868,24.4025 L22.868,18.0625 L21.157,18.0625 L21.157,24.4025 Z M21.157,16.5455 L22.868,16.5455 L22.868,15.2625 L21.157,15.2625 L21.157,16.5455 Z" id="Fill-2" fill="#000000"></path><g id="Group-19" transform="translate(0.000000, 0.733700)"><path d="M26.9283,18.5304 C26.6123,18.5304 26.3623,18.6514 26.1783,18.8934 C25.9943,19.1354 25.8813,19.4544 25.8383,19.8484 L25.8563,19.8784 L27.9533,19.8784 L27.9533,19.7254 C27.9533,19.3624 27.8683,19.0724 27.6993,18.8554 C27.5293,18.6384 27.2723,18.5304 26.9283,18.5304 M27.0803,23.7924 C26.1663,23.7924 25.4363,23.4994 24.8893,22.9134 C24.3423,22.3274 24.0693,21.5834 24.0693,20.6804 L24.0693,20.4464 C24.0693,19.5054 24.3273,18.7294 24.8453,18.1204 C25.3633,17.5104 26.0573,17.2084 26.9283,17.2123608 C27.7833,17.2123608 28.4483,17.4694 28.9203,17.9854 C29.3933,18.5014 29.6293,19.1984 29.6293,20.0774 L29.6293,21.0094 L25.8443,21.0094 L25.8323,21.0444 C25.8643,21.4604 26.0033,21.8024 26.2513,22.0714 C26.4993,22.3404 26.8363,22.4734 27.2623,22.4734 C27.6413,22.4734 27.9553,22.4354 28.2053,22.3594 C28.4553,22.2834 28.7293,22.1634 29.0263,21.9994 L29.4893,23.0564 C29.2313,23.2684 28.8933,23.4444 28.4753,23.5834 C28.0573,23.7224 27.5923,23.7924 27.0803,23.7924" id="Fill-3" fill="#000000"></path><polygon id="Fill-5" fill="#000000" points="36.1393 21.4015 36.1743 21.4015 37.0003 17.3295 38.6063 17.3295 36.9943 23.6695 35.5653 23.6695 34.3873 19.8955 34.3523 19.8955 33.1743 23.6695 31.7503 23.6695 30.1393 17.3295 31.7443 17.3295 32.5823 21.3895 32.6183 21.3895 33.8013 17.3295 34.9443 17.3295"></polygon><path d="M20.2413,4.8272 C20.2413,6.2752 19.3763,7.2462 17.9113,7.6702 C19.3933,7.8292 20.6303,8.7112 20.6303,10.6002 C20.6303,12.5962 19.0233,14.2722 16.0753,14.2722 C14.2743,14.2722 12.9153,13.6012 11.9793,12.4722 L13.4793,11.0072 C14.2743,11.8012 14.9803,12.1542 15.9163,12.1542 C17.0113,12.1542 17.7693,11.5182 17.7693,10.4242 C17.7693,9.1702 17.0813,8.7112 15.8283,8.7112 L14.8393,8.7112 L15.1393,6.7872 L15.8283,6.7872 C16.8873,6.7872 17.5403,6.2222 17.5403,5.2332 C17.5403,4.3682 16.9233,3.8562 15.9513,3.8562 C15.0683,3.8562 14.3273,4.2102 13.6213,4.8982 L12.2443,3.3972 C13.3563,2.3382 14.6803,1.7912 16.2693,1.7912 C18.8463,1.7912 20.2413,3.1502 20.2413,4.8272" id="Fill-7" fill="#000000"></path><path d="M27.9532,9.9298 C27.9532,8.3938 27.4592,7.8648 26.5412,7.8648 C25.9052,7.8648 25.3052,8.1998 24.7932,8.7998 C24.8282,11.2888 25.2522,12.2778 26.4522,12.2778 C27.4592,12.2778 27.9532,11.3418 27.9532,9.9298 M30.7422,9.8948 C30.7422,12.3298 29.0832,14.2728 26.4172,14.2728 C23.2572,14.2728 21.8972,11.9428 21.8972,8.5178 C21.8972,4.4748 23.8572,1.7908 27.0882,1.7908 C28.2182,1.7908 29.1182,2.1258 29.8072,2.5848 L28.7822,4.2448 C28.2882,3.9618 27.7762,3.7858 27.1582,3.7858 C25.8162,3.7858 24.9512,4.9508 24.7932,7.0518 C25.5342,6.2758 26.4172,5.9398 27.3172,5.9398 C29.2772,5.9398 30.7422,7.3698 30.7422,9.8948" id="Fill-9" fill="#000000"></path><path d="M34.711,8.0225 C34.711,11.1825 35.188,12.2075 36.353,12.2075 C37.5,12.2075 37.994,11.2535 37.994,8.0225 C37.994,4.7745 37.5,3.8565 36.353,3.8565 C35.188,3.8565 34.711,4.8625 34.711,8.0225 M40.855,8.0225 C40.855,12.0125 39.283,14.2725 36.353,14.2725 C33.422,14.2725 31.851,12.0125 31.851,8.0225 C31.851,4.0155 33.422,1.7915 36.353,1.7915 C39.283,1.7915 40.855,4.0155 40.855,8.0225" id="Fill-11" fill="#000000"></path><g id="Group-15" transform="translate(0.000000, 13.000000)"><mask id="mask-2" fill="white"><polygon id="path-1" points="0 0.1373 52.845 0.1373 52.845 26.0008 0 26.0008"></polygon></mask><g id="Clip-14"></g><path d="M36.715,14.7413 C43.163,13.0533 46.932,10.1723 46.932,6.8253 C46.932,5.4473 46.264,3.4373 43.173,1.5183 L43.173,0.1373 C49.258,2.5793 52.845,6.0943 52.845,9.6863 C52.845,13.1193 49.615,16.4643 43.963,18.9053 L36.715,14.7413 Z M25.086,22.3873 L24.155,22.3223 C10.385,21.3683 0,15.9353 0,9.6863 C0,6.4543 2.866,3.2983 7.923,0.9013 L7.923,2.8483 C6.589,4.0823 5.913,5.4183 5.913,6.8253 C5.913,11.3963 13.354,15.1843 24.006,16.0363 L25.086,16.1233 L25.086,12.4193 L36.906,19.2103 L25.086,26.0013 L25.086,22.3873 Z" id="Fill-13" fill="#000000" mask="url(#mask-2)"></path></g><g id="Group-18" transform="translate(42.000000, 0.000000)"><mask id="mask-4" fill="white"><polygon id="path-3" points="0.350476574 0.2668 6.8887 0.2668 6.8887 6.5913 0.350476574 6.5913"></polygon></mask><g id="Clip-17"></g><path d="M2.2877,3.4473 C2.2877,4.2423 2.8607,4.8513 3.6187,4.8513 C4.3767,4.8513 4.9317,4.2423 4.9317,3.4283 C4.9317,2.7083 4.4687,2.0063 3.6187,2.0063 C2.8057,2.0063 2.2877,2.6893 2.2877,3.4473 M6.8887,3.4073 C6.8887,5.2573 5.3617,6.5913 3.5987,6.5913 C1.7057,6.5913 0.3507,5.1923 0.3507,3.4713 C0.3297,1.6863 1.7917,0.2663 3.6197,0.2663 C5.5557,0.2663 6.8887,1.7083 6.8887,3.4073" id="Fill-16" fill="#000000" mask="url(#mask-4)"></path></g></g></g></g></g></g></svg>