<svg xmlns="http://www.w3.org/2000/svg" xmlns:xlink="http://www.w3.org/1999/xlink" width="19.879" height="23.572" viewBox="0 0 19.879 23.572">
  <defs>
    <clipPath id="clip-path">
      <rect id="Rectangle_270" data-name="Rectangle 270" width="19.879" height="23.572" fill="#54565a" stroke="#54565a" stroke-width="0.4"/>
    </clipPath>
  </defs>
  <g id="Group_502" data-name="Group 502" transform="translate(0 0)">
    <g id="Group_501" data-name="Group 501" transform="translate(0 0)" clip-path="url(#clip-path)">
      <path id="Path_378" data-name="Path 378" d="M4.478,3.144A2.885,2.885,0,0,1,7.274,0a2.874,2.874,0,0,1,2.855,3.127c.265.013.53.015.794.039a3.128,3.128,0,0,1,2.8,2.819c.162,1.721.345,3.44.517,5.159.129,1.284.267,2.566.379,3.851a3.139,3.139,0,0,1-2.653,3.282,4,4,0,0,1-.513.038q-4.148,0-8.3,0A3.1,3.1,0,0,1,.047,15.753,4.7,4.7,0,0,1,.038,14.5c.149-1.633.32-3.263.484-4.894C.648,8.356.764,7.1.9,5.853A3.122,3.122,0,0,1,3.95,3.144c.171,0,.342,0,.528,0m.014,1.23c-.236,0-.44-.018-.641,0A1.86,1.86,0,0,0,2.115,6.062c-.167,1.464-.3,2.932-.45,4.4s-.279,2.922-.438,4.381a1.931,1.931,0,0,0,2,2.254q2.841,0,5.682,0c.877,0,1.755.011,2.631,0A1.905,1.905,0,0,0,13.4,15.07c-.039-.539-.1-1.075-.156-1.613q-.2-2.01-.4-4.021c-.115-1.144-.211-2.291-.352-3.432a1.939,1.939,0,0,0-2.371-1.613c0,.2.01.4,0,.6a1.014,1.014,0,0,1-.089.383.581.581,0,0,1-.647.289.59.59,0,0,1-.474-.55c-.012-.245,0-.492,0-.745H5.72c0,.072-.009.134-.009.2,0,.165,0,.331,0,.5a.608.608,0,1,1-1.216.023c-.011-.234,0-.468,0-.715M5.72,3.126H8.884a1.624,1.624,0,0,0-.756-1.663A1.5,1.5,0,0,0,6.421,1.5a1.628,1.628,0,0,0-.7,1.626" transform="translate(2.626 2.626)" fill="#54565a" stroke="#54565a" stroke-width="0.4"/>
    </g>
  </g>
</svg>
