<svg width="19" height="23" viewBox="0 0 19 23" fill="none" xmlns="http://www.w3.org/2000/svg">
<path d="M17 18.2188H6C5.45 18.2188 4.979 18.0228 4.587 17.6308C4.195 17.2388 3.99934 16.7681 4 16.2188V2.21875C4 1.66875 4.196 1.19775 4.588 0.805752C4.98 0.413752 5.45067 0.218085 6 0.218752H12.175C12.4417 0.218752 12.696 0.268752 12.938 0.368752C13.18 0.468752 13.3923 0.610418 13.575 0.793752L18.425 5.64375C18.6083 5.82709 18.75 6.03975 18.85 6.28175C18.95 6.52375 19 6.77775 19 7.04375V16.2188C19 16.7688 18.804 17.2398 18.412 17.6318C18.02 18.0238 17.5493 18.2194 17 18.2188ZM12 2.21875H6V16.2188H17V7.21875H13C12.7167 7.21875 12.479 7.12275 12.287 6.93075C12.095 6.73875 11.9993 6.50142 12 6.21875V2.21875ZM2 22.2188C1.45 22.2188 0.979002 22.0228 0.587002 21.6308C0.195002 21.2388 -0.000664969 20.7681 1.69779e-06 20.2188V7.21875C1.69779e-06 6.93542 0.0960018 6.69775 0.288002 6.50575C0.480002 6.31375 0.717335 6.21809 1 6.21875C1.28333 6.21875 1.521 6.31475 1.713 6.50675C1.905 6.69875 2.00067 6.93609 2 7.21875V20.2188H12C12.2833 20.2188 12.521 20.3148 12.713 20.5068C12.905 20.6988 13.0007 20.9361 13 21.2188C13 21.5021 12.904 21.7398 12.712 21.9318C12.52 22.1238 12.2827 22.2194 12 22.2188H2Z" fill="#7B7E7B"/>
</svg>
