<svg width="14" height="14" viewBox="0 0 14 14" fill="none" xmlns="http://www.w3.org/2000/svg">
<path d="M8.41189 7.00019L12.7119 2.71019C12.9002 2.52188 13.006 2.26649 13.006 2.00019C13.006 1.73388 12.9002 1.47849 12.7119 1.29019C12.5236 1.10188 12.2682 0.996094 12.0019 0.996094C11.7356 0.996094 11.4802 1.10188 11.2919 1.29019L7.00189 5.59019L2.71189 1.29019C2.52359 1.10188 2.26819 0.996094 2.00189 0.996094C1.73559 0.996094 1.4802 1.10188 1.29189 1.29019C1.10359 1.47849 0.9978 1.73388 0.9978 2.00019C0.9978 2.26649 1.10359 2.52188 1.29189 2.71019L5.59189 7.00019L1.29189 11.2902C1.19816 11.3831 1.12377 11.4937 1.073 11.6156C1.02223 11.7375 0.996094 11.8682 0.996094 12.0002C0.996094 12.1322 1.02223 12.2629 1.073 12.3848C1.12377 12.5066 1.19816 12.6172 1.29189 12.7102C1.38486 12.8039 1.49546 12.8783 1.61732 12.9291C1.73917 12.9798 1.86988 13.006 2.00189 13.006C2.1339 13.006 2.26461 12.9798 2.38647 12.9291C2.50833 12.8783 2.61893 12.8039 2.71189 12.7102L7.00189 8.41019L11.2919 12.7102C11.3849 12.8039 11.4955 12.8783 11.6173 12.9291C11.7392 12.9798 11.8699 13.006 12.0019 13.006C12.1339 13.006 12.2646 12.9798 12.3865 12.9291C12.5083 12.8783 12.6189 12.8039 12.7119 12.7102C12.8056 12.6172 12.88 12.5066 12.9308 12.3848C12.9816 12.2629 13.0077 12.1322 13.0077 12.0002C13.0077 11.8682 12.9816 11.7375 12.9308 11.6156C12.88 11.4937 12.8056 11.3831 12.7119 11.2902L8.41189 7.00019Z" fill="#A9AFBB"/>
</svg>
