
<svg width="18" height="22" viewBox="0 0 18 22" fill="none" xmlns="http://www.w3.org/2000/svg">
<path d="M1.64062 3.71533L2.65097 19.587C2.69897 20.5041 3.37842 21.1742 4.26753 21.1742H13.5627C14.4554 21.1742 15.1222 20.5041 15.1793 19.587L16.1896 3.71533" stroke="#7B7E7B" stroke-linecap="round" stroke-linejoin="round"/>
<path d="M0.671875 3.71533H17.1608H0.671875Z" fill="black"/>
<path d="M0.671875 3.71533H17.1608" stroke="#7B7E7B" stroke-miterlimit="10" stroke-linecap="round"/>
<path d="M5.90063 4.00002V2.01606C5.9002 1.85961 5.92917 1.70461 5.98588 1.55998C6.0426 1.41536 6.12593 1.28395 6.2311 1.17332C6.33626 1.06269 6.46118 0.975027 6.59867 0.915367C6.73616 0.855708 6.8835 0.82523 7.03223 0.825689H10.8042C10.9529 0.82523 11.1003 0.855708 11.2377 0.915367C11.3752 0.975027 11.5002 1.06269 11.6053 1.17332C11.7105 1.28395 11.7938 1.41536 11.8505 1.55998C11.9072 1.70461 11.9362 1.85961 11.9358 2.01606V4.00002M8.91821 7.17435V18.2845M5.52344 7.17435L5.90063 18.2845M12.313 7.17435L11.9358 18.2845" stroke="#7B7E7B" stroke-linecap="round" stroke-linejoin="round"/>
</svg>
