<svg width="20" height="20" viewBox="0 0 20 20" fill="none" xmlns="http://www.w3.org/2000/svg">
<path fill-rule="evenodd" clip-rule="evenodd" d="M15.5556 5.55556C15.5556 8.62389 13.0683 11.1111 10 11.1111C6.93167 11.1111 4.44444 8.62389 4.44444 5.55556C4.44444 2.48722 6.93167 0 10 0C13.0683 0 15.5556 2.48722 15.5556 5.55556ZM14.4444 5.55556C14.4444 6.7343 13.9762 7.86476 13.1427 8.69825C12.3092 9.53175 11.1787 10 10 10C8.82126 10 7.6908 9.53175 6.8573 8.69825C6.02381 7.86476 5.55556 6.7343 5.55556 5.55556C5.55556 4.37682 6.02381 3.24635 6.8573 2.41286C7.6908 1.57936 8.82126 1.11111 10 1.11111C11.1787 1.11111 12.3092 1.57936 13.1427 2.41286C13.9762 3.24635 14.4444 4.37682 14.4444 5.55556ZM6.61889 12.6972L6.625 12.7094L6.66667 12.7911H13.1939C13.3211 12.55 13.6094 12.1656 13.8889 12.2294C14.5167 12.3722 15.1489 12.5711 15.7561 12.8161L15.7744 12.8072L15.7806 12.8194L15.785 12.8278C18.0711 13.7567 20 15.3311 20 16.9833V20H0V16.9833C0 14.8861 3.10889 12.9128 6.11111 12.2294C6.35611 12.1739 6.50167 12.4628 6.61889 12.6972ZM14.8356 13.6572C14.5972 13.5738 14.3562 13.4984 14.1128 13.4311L13.865 13.9022H5.99611L5.76611 13.465L5.56611 13.525C5.56222 13.5617 5.55889 13.6028 5.55722 13.6494C5.55 13.8411 5.56444 14.0683 5.59611 14.2994C5.62861 14.5405 5.68064 14.7785 5.75167 15.0111C6.14193 15.0573 6.50329 15.24 6.77195 15.5268C7.04061 15.8136 7.19928 16.1862 7.21994 16.5786C7.2406 16.971 7.12191 17.3582 6.88485 17.6716C6.64778 17.985 6.30759 18.2046 5.92434 18.2916C5.54109 18.3785 5.13944 18.3272 4.79032 18.1468C4.44121 17.9664 4.16709 17.6684 4.01636 17.3054C3.86564 16.9425 3.84801 16.538 3.9666 16.1633C4.08518 15.7886 4.33235 15.4679 4.66444 15.2578L4.66 15.2422C4.58597 14.9825 4.53083 14.7177 4.495 14.45C4.47143 14.279 4.45586 14.1069 4.44833 13.9344C3.76167 14.2278 3.12111 14.5822 2.58444 14.9733C1.51667 15.7533 1.11111 16.4822 1.11111 16.9833V18.8889H18.8889V16.9833C18.8889 16.4817 18.4833 15.7528 17.4156 14.9739C16.95 14.6391 16.4541 14.3486 15.9344 14.1061C15.9118 14.4072 15.8658 14.7061 15.7967 15H16.1111C16.2143 15.0001 16.3153 15.0288 16.4031 15.0831C16.4908 15.1373 16.5617 15.215 16.6078 15.3072L17.1633 16.4183C17.2022 16.4956 17.2222 16.5806 17.2222 16.6667V17.7778C17.2222 17.9251 17.1637 18.0664 17.0595 18.1706C16.9553 18.2748 16.814 18.3333 16.6667 18.3333H15.5556V17.2222H16.1111V16.7978L15.7678 16.1111H14.2322L13.8889 16.7978V17.2222H14.4444V18.3333H13.3333C13.186 18.3333 13.0447 18.2748 12.9405 18.1706C12.8363 18.0664 12.7778 17.9251 12.7778 17.7778V16.6667C12.7778 16.5806 12.7978 16.4956 12.8367 16.4183L13.3922 15.3072C13.4383 15.215 13.5092 15.1373 13.5969 15.0831C13.6847 15.0288 13.7857 15.0001 13.8889 15H14.6456C14.6522 14.9778 14.6594 14.9556 14.6661 14.9311C14.7183 14.7528 14.765 14.5311 14.7967 14.3C14.8278 14.0711 14.8422 13.8472 14.8356 13.6572ZM6.11111 16.6667C6.11111 16.9856 5.85444 17.2306 5.55556 17.2306C5.25667 17.2306 5 16.9861 5 16.6667C5 16.3478 5.25667 16.1028 5.55556 16.1028C5.85444 16.1028 6.11111 16.3472 6.11111 16.6667Z" fill="black"/>
</svg>
