<svg width="14" height="14" viewBox="0 0 14 14" fill="none" xmlns="http://www.w3.org/2000/svg">
<path d="M10.5 6.125V11.1562C10.5 11.2999 10.4717 11.4421 10.4167 11.5748C10.3618 11.7075 10.2812 11.8281 10.1796 11.9296C10.0781 12.0312 9.95751 12.1118 9.82481 12.1667C9.69211 12.2217 9.54988 12.25 9.40625 12.25H2.84375C2.55367 12.25 2.27547 12.1348 2.07035 11.9296C1.86523 11.7245 1.75 11.4463 1.75 11.1562V4.59375C1.75 4.30367 1.86523 4.02547 2.07035 3.82035C2.27547 3.61523 2.55367 3.5 2.84375 3.5H7.42328" stroke="black" stroke-linecap="round" stroke-linejoin="round"/>
<path d="M12.5765 1.45606C12.5366 1.41216 12.4881 1.37681 12.4341 1.35216C12.3801 1.32751 12.3217 1.31406 12.2623 1.31263C12.203 1.3112 12.144 1.32181 12.0888 1.34383C12.0337 1.36585 11.9836 1.39882 11.9416 1.44075L11.6034 1.77735C11.5624 1.81837 11.5393 1.87399 11.5393 1.93198C11.5393 1.98997 11.5624 2.04559 11.6034 2.08661L11.9134 2.39614C11.9338 2.41656 11.9579 2.43277 11.9845 2.44382C12.0111 2.45488 12.0397 2.46057 12.0685 2.46057C12.0973 2.46057 12.1258 2.45488 12.1524 2.44382C12.179 2.43277 12.2032 2.41656 12.2235 2.39614L12.5533 2.06802C12.7201 1.90149 12.7357 1.63024 12.5765 1.45606ZM10.9195 2.46095L5.98339 7.38829C5.95347 7.4181 5.93171 7.4551 5.92023 7.49575L5.69191 8.17579C5.68644 8.19424 5.68605 8.21383 5.69079 8.23248C5.69552 8.25114 5.70521 8.26817 5.71881 8.28177C5.73242 8.29538 5.74945 8.30507 5.76811 8.3098C5.78676 8.31454 5.80635 8.31415 5.8248 8.30868L6.50429 8.08036C6.54494 8.06888 6.58195 8.04712 6.61175 8.0172L11.5391 3.08055C11.5847 3.03448 11.6103 2.97228 11.6103 2.90747C11.6103 2.84265 11.5847 2.78046 11.5391 2.73438L11.267 2.46095C11.2209 2.41494 11.1584 2.38911 11.0933 2.38911C11.0281 2.38911 10.9656 2.41494 10.9195 2.46095Z" fill="black"/>
</svg>
