<svg width="15" height="14" viewBox="0 0 15 14" fill="none" xmlns="http://www.w3.org/2000/svg">
<path d="M10.9875 0.132995C10.823 0.130157 10.6597 0.160408 10.5072 0.221948C10.3547 0.283489 10.2162 0.375061 10.0998 0.491219L9.55359 1.05422L13.155 4.67195L13.7012 4.1095C13.819 3.99188 13.9125 3.8522 13.9763 3.69843C14.04 3.54467 14.0729 3.37985 14.0729 3.21339C14.0729 3.04693 14.04 2.88211 13.9763 2.72835C13.9125 2.57458 13.819 2.4349 13.7012 2.31729L11.892 0.508147C11.6516 0.269011 11.3266 0.134223 10.9875 0.132995ZM8.93906 1.54951L8.08529 2.36862L11.8407 6.12286L12.7114 5.32068L8.93906 1.54951ZM7.5385 2.96602L1.63364 8.81828C1.56655 8.85261 1.50752 8.90078 1.46043 8.95962C1.41335 9.01845 1.3793 9.08661 1.36052 9.15957L0.0965202 13.4435C0.0679809 13.536 0.0652228 13.6346 0.0885428 13.7286C0.111863 13.8226 0.160378 13.9084 0.228866 13.9769C0.297355 14.0453 0.383225 14.0938 0.477233 14.1171C0.571242 14.1405 0.66983 14.1377 0.762388 14.1092L5.0471 12.8461C5.14436 12.8316 5.2357 12.7904 5.311 12.7272C5.3863 12.664 5.44262 12.5811 5.47371 12.4879L11.2945 6.71972L10.4926 5.91809L4.51779 11.908L2.11106 12.6069L1.59868 12.0953L2.33283 9.58715L8.25626 3.68247L7.5385 2.96547V2.96602ZM8.83583 4.27987L2.84466 10.2867L3.71482 10.474L3.83445 11.2767L9.84309 5.28628L8.83583 4.27987Z" fill="#7B7E7B"/>
</svg>
