
<svg width="23" height="24" viewBox="0 0 23 24" fill="none" xmlns="http://www.w3.org/2000/svg">
<path d="M17.25 10.5625V18.8281C17.25 19.0641 17.2035 19.2978 17.1132 19.5158C17.0229 19.7338 16.8906 19.9319 16.7237 20.0987C16.5569 20.2656 16.3588 20.3979 16.1408 20.4882C15.9228 20.5785 15.6891 20.625 15.4531 20.625H4.67188C4.19531 20.625 3.73827 20.4357 3.40129 20.0987C3.06431 19.7617 2.875 19.3047 2.875 18.8281V8.04688C2.875 7.57031 3.06431 7.11327 3.40129 6.77629C3.73827 6.43931 4.19531 6.25 4.67188 6.25H12.1954" stroke="#7B7E7B" stroke-linecap="round" stroke-linejoin="round"/>
<path d="M20.6614 2.8921C20.5958 2.81998 20.5162 2.76191 20.4275 2.72141C20.3388 2.68091 20.2428 2.65881 20.1453 2.65646C20.0478 2.65411 19.9508 2.67155 19.8602 2.70773C19.7697 2.7439 19.6874 2.79807 19.6183 2.86695L19.0627 3.41994C18.9953 3.48732 18.9575 3.5787 18.9575 3.67397C18.9575 3.76924 18.9953 3.86061 19.0627 3.928L19.5721 4.43652C19.6055 4.47007 19.6451 4.49669 19.6889 4.51485C19.7326 4.53302 19.7794 4.54237 19.8268 4.54237C19.8741 4.54237 19.921 4.53302 19.9647 4.51485C20.0084 4.49669 20.0481 4.47007 20.0815 4.43652L20.6232 3.89745C20.8973 3.62388 20.9229 3.17826 20.6614 2.8921ZM17.9392 4.54298L9.82986 12.6379C9.78069 12.6869 9.74496 12.7477 9.72609 12.8144L9.35099 13.9317C9.34201 13.962 9.34137 13.9941 9.34915 14.0248C9.35693 14.0554 9.37284 14.0834 9.39519 14.1058C9.41755 14.1281 9.44553 14.144 9.47618 14.1518C9.50682 14.1596 9.539 14.159 9.56931 14.15L10.6856 13.7749C10.7524 13.756 10.8132 13.7203 10.8622 13.6711L18.9571 5.56091C19.032 5.48522 19.074 5.38304 19.074 5.27656C19.074 5.17008 19.032 5.06789 18.9571 4.9922L18.5101 4.54298C18.4343 4.46741 18.3317 4.42497 18.2246 4.42497C18.1176 4.42497 18.0149 4.46741 17.9392 4.54298V4.54298Z" fill="#7B7E7B"/>
</svg>
