<svg width="13" height="14" viewBox="0 0 13 14" fill="none" xmlns="http://www.w3.org/2000/svg">
<path fill-rule="evenodd" clip-rule="evenodd" d="M9.152 1.02124C8.90196 0.77128 8.56289 0.630859 8.20933 0.630859C7.85578 0.630859 7.5167 0.77128 7.26667 1.02124L0.390667 7.89724C0.140601 8.14723 7.55165e-05 8.48632 0 8.83991V12.3286C0 12.6999 0.302 13.0019 0.673333 13.0019H4.16267C4.51626 13.0018 4.85534 12.8613 5.10533 12.6112L11.9807 5.73457C12.2306 5.48454 12.371 5.14546 12.371 4.79191C12.371 4.43836 12.2306 4.09928 11.9807 3.84924L9.152 1.02124ZM8.20933 1.96391L11.038 4.79257L9.88733 5.94324L7.05867 3.11457L8.20933 1.96391ZM6.116 4.05724L1.33333 8.83991V11.6679H4.16267L8.94533 6.88524L6.11667 4.05657L6.116 4.05724Z" fill="#7B7E7B"/>
</svg>
