<svg width="25" height="25" viewBox="0 0 25 25" fill="none" xmlns="http://www.w3.org/2000/svg">
<path d="M19.5 19.0008H5.5C4.65 19.0008 4 18.3508 4 17.5008V8.50078C4 7.65078 4.65 7.00078 5.5 7.00078H8.5C8.6 7.00078 8.75 6.90078 8.8 6.85078L9.35 5.75078C9.55 5.35078 10.05 5.05078 10.5 5.05078H14.5C14.95 5.05078 15.45 5.35078 15.65 5.75078L16.2 6.85078C16.25 6.95078 16.4 7.00078 16.5 7.00078H19.5C20.35 7.00078 21 7.65078 21 8.50078V17.5008C21 18.3508 20.35 19.0008 19.5 19.0008ZM5.5 8.00078C5.2 8.00078 5 8.20078 5 8.50078V17.5008C5 17.8008 5.2 18.0008 5.5 18.0008H19.5C19.8 18.0008 20 17.8008 20 17.5008V8.50078C20 8.20078 19.8 8.00078 19.5 8.00078H16.5C16.05 8.00078 15.55 7.70078 15.35 7.30078L14.8 6.20078C14.75 6.10078 14.6 6.00078 14.5 6.00078H10.5C10.4 6.00078 10.25 6.10078 10.2 6.15078L9.65 7.25078C9.45 7.70078 8.95 8.00078 8.5 8.00078H5.5Z" fill="#7B7E7B"/>
<path d="M12.5 17C10 17 8 15 8 12.5C8 10 10 8 12.5 8C15 8 17 10 17 12.5C17 15 15 17 12.5 17ZM12.5 9C10.55 9 9 10.55 9 12.5C9 14.45 10.55 16 12.5 16C14.45 16 16 14.45 16 12.5C16 10.55 14.45 9 12.5 9Z" fill="#7B7E7B"/>
<path d="M17.5 9.5C17.7761 9.5 18 9.27614 18 9C18 8.72386 17.7761 8.5 17.5 8.5C17.2239 8.5 17 8.72386 17 9C17 9.27614 17.2239 9.5 17.5 9.5Z" fill="#7B7E7B"/>
<path d="M6 6H8V6.5H6V6ZM12.5 10.5V10C11.1 10 10 11.1 10 12.5H10.5C10.5 11.4 11.4 10.5 12.5 10.5Z" fill="#7B7E7B"/>
</svg>
