<svg width="20" height="16" viewBox="0 0 20 16" fill="none" xmlns="http://www.w3.org/2000/svg">
<path d="M18.7833 11.0667L17.0083 12.8333L18.7833 14.6L17.6 15.7833L15.8333 14.0083L14.0667 15.7833L12.8917 14.6L14.6583 12.8333L12.8917 11.0667L14.0667 9.89167L15.8333 11.6583L17.6 9.89167L18.7833 11.0667ZM10 4.5C8.61668 4.5 7.50001 5.61667 7.50001 7C7.50001 8.38333 8.61668 9.5 10 9.5C11.3833 9.5 12.5 8.38333 12.5 7C12.5 5.61667 11.3833 4.5 10 4.5ZM10 11.5833C6.86668 11.5833 4.02501 9.8 2.65001 7C3.32356 5.62474 4.36943 4.46604 5.66874 3.65562C6.96805 2.8452 8.46867 2.41557 10 2.41557C11.5313 2.41557 13.032 2.8452 14.3313 3.65562C15.6306 4.46604 16.6765 5.62474 17.35 7C17.1917 7.325 17.0083 7.64167 16.8083 7.94167C17.375 8.05 17.9167 8.25 18.3917 8.54167C18.6917 8.05833 18.95 7.54167 19.1667 7C17.725 3.34167 14.1667 0.75 10 0.75C5.83334 0.75 2.27501 3.34167 0.833344 7C2.27501 10.6583 5.83334 13.25 10 13.25C10.2917 13.25 10.575 13.25 10.8583 13.2083C10.8333 13.0833 10.8333 12.9583 10.8333 12.8333C10.8333 12.375 10.9 11.9333 11.0167 11.5083C10.6833 11.55 10.3417 11.5833 10 11.5833Z" fill="#7B7E7B"/>
</svg>
