<svg width="34" height="34" viewBox="0 0 30 29" xmlns="http://www.w3.org/2000/svg">
<g id="Group_32" data-name="Group 32" transform="translate(0 0)">
<path id="Path_19" data-name="Path 19" d="M80.481,494.527a8.437,8.437,0,1,1,9.629-8.422,8.232,8.232,0,0,1-2.283,5.885,8.507,8.507,0,0,1-4.482,2.553V488.5h1.642l.371-2.376H82.864c0-.473,0-.928,0-1.384a2.91,2.91,0,0,1,.029-.489,1.063,1.063,0,0,1,1.022-.943c.506-.036,1.015-.025,1.524-.034.084,0,.167,0,.261,0v-2.082c-.308-.037-.62-.083-.932-.109a6.01,6.01,0,0,0-2.039.073,2.765,2.765,0,0,0-2.166,2.409c-.072.569-.055,1.15-.073,1.724-.008.27,0,.541,0,.826H78.606V488.5h1.875Z" transform="translate(-73.32 -477.738)" fill="#062F6E">
</path>
</g>
</svg>
