<svg xmlns="http://www.w3.org/2000/svg" xmlns:xlink="http://www.w3.org/1999/xlink" width="23.149" height="21.224" viewBox="0 0 23.149 21.224">
  <defs>
    <clipPath id="clip-path">
      <rect id="Rectangle_393" data-name="Rectangle 393" width="23.149" height="21.224" transform="translate(-2 -2)" fill="#54565a" stroke="#54565a" stroke-width="0.15"/>
    </clipPath>
  </defs>
  <g id="Group_554" data-name="Group 554" transform="translate(2 2)">
    <g id="Group_553" data-name="Group 553" transform="translate(0 0)" clip-path="url(#clip-path)">
      <path id="Path_407" data-name="Path 407" d="M17.52,1.63a5.589,5.589,0,0,0-7.889,0l-.087.087L9.52,1.693A5.577,5.577,0,0,0,1.635,9.582l7.45,7.45a.656.656,0,0,0,.927,0L17.52,9.519a5.589,5.589,0,0,0,0-7.89m-.927,6.963L9.548,15.642,2.562,8.656A4.267,4.267,0,0,1,8.593,2.62l.488.487a.656.656,0,0,0,.927,0l.549-.55a4.268,4.268,0,1,1,6.037,6.036Z" transform="translate(0 0)" fill="#54565a" stroke="#54565a" stroke-width="0.15"/>
    </g>
  </g>
</svg>
