<?xml version="1.0" encoding="UTF-8"?>
<svg width="225px" height="95px" viewBox="0 0 225 95" version="1.1" xmlns="http://www.w3.org/2000/svg" xmlns:xlink="http://www.w3.org/1999/xlink">
    <title>Group</title>
    <g id="Symbols" stroke="none" stroke-width="1" fill="none" fill-rule="evenodd">
        <g id="Footer-New" transform="translate(-147.000000, -41.000000)">
            <g id="Group" transform="translate(148.000000, 41.000000)">
                <path d="M16.894,93.774 C7.868,93.774 9.59232693e-14,87.21 9.59232693e-14,76.591 C9.59232693e-14,65.971 7.868,59.407 16.894,59.407 C25.969,59.407 33.789,65.971 33.789,76.591 C33.789,87.21 25.969,93.774 16.894,93.774 M16.894,61.724 C9.317,61.724 2.752,67.178 2.752,76.543 C2.752,85.81 9.365,91.312 16.894,91.312 C24.521,91.312 31.085,85.81 31.085,76.543 C31.085,67.227 24.521,61.724 16.894,61.724" id="Fill-38" fill="#FFFFFF"></path>
                <path d="M16.894,93.774 C7.868,93.774 9.59232693e-14,87.21 9.59232693e-14,76.591 C9.59232693e-14,65.971 7.868,59.407 16.894,59.407 C25.969,59.407 33.789,65.971 33.789,76.591 C33.789,87.21 25.969,93.774 16.894,93.774 M16.894,61.724 C9.317,61.724 2.752,67.178 2.752,76.543 C2.752,85.81 9.365,91.312 16.894,91.312 C24.521,91.312 31.085,85.81 31.085,76.543 C31.085,67.227 24.521,61.724 16.894,61.724" id="Stroke-39" stroke="#FFFFFF"></path>
                <path d="M16.894,93.774 C7.868,93.774 9.59232693e-14,87.21 9.59232693e-14,76.591 C9.59232693e-14,65.971 7.868,59.407 16.894,59.407 C25.969,59.407 33.789,65.971 33.789,76.591 C33.789,87.21 25.969,93.774 16.894,93.774 Z M16.894,61.724 C9.317,61.724 2.752,67.178 2.752,76.543 C2.752,85.81 9.365,91.312 16.894,91.312 C24.521,91.312 31.085,85.81 31.085,76.543 C31.085,67.227 24.521,61.724 16.894,61.724 Z" id="Stroke-40" stroke="#FFFFFF" stroke-width="0.555"></path>
                <path d="M62.989,75.335 C61.057,77.025 58.45,77.652 55.313,77.652 L50.293,77.652 L50.293,93.194 L47.687,93.194 L47.687,59.89 L55.313,59.89 C58.45,59.89 61.057,60.519 62.989,62.207 C64.92,63.898 66.03,65.875 66.03,68.772 C66.03,71.667 64.92,73.647 62.989,75.335 M60.962,63.751 C59.611,62.785 57.823,62.255 55.41,62.255 L50.293,62.255 L50.293,75.287 L55.41,75.287 C57.823,75.287 59.611,74.757 60.962,73.791 C62.264,72.825 63.279,71.04 63.279,68.772 C63.279,66.454 62.264,64.717 60.962,63.751" id="Fill-41" fill="#FFFFFF"></path>
                <path d="M62.989,75.335 C61.057,77.025 58.45,77.652 55.313,77.652 L50.293,77.652 L50.293,93.194 L47.687,93.194 L47.687,59.89 L55.313,59.89 C58.45,59.89 61.057,60.519 62.989,62.207 C64.92,63.898 66.03,65.875 66.03,68.772 C66.03,71.667 64.92,73.647 62.989,75.335 M60.962,63.751 C59.611,62.785 57.823,62.255 55.41,62.255 L50.293,62.255 L50.293,75.287 L55.41,75.287 C57.823,75.287 59.611,74.757 60.962,73.791 C62.264,72.825 63.279,71.04 63.279,68.772 C63.279,66.454 62.264,64.717 60.962,63.751" id="Stroke-42" stroke="#FFFFFF"></path>
                <path d="M62.989,75.335 C61.057,77.025 58.45,77.652 55.313,77.652 L50.293,77.652 L50.293,93.194 L47.687,93.194 L47.687,59.89 L55.313,59.89 C58.45,59.89 61.057,60.519 62.989,62.207 C64.92,63.898 66.03,65.875 66.03,68.772 C66.03,71.667 64.92,73.647 62.989,75.335 Z M60.962,63.751 C59.611,62.785 57.823,62.255 55.41,62.255 L50.293,62.255 L50.293,75.287 L55.41,75.287 C57.823,75.287 59.611,74.757 60.962,73.791 C62.264,72.825 63.279,71.04 63.279,68.772 C63.279,66.454 62.264,64.717 60.962,63.751 Z" id="Stroke-43" stroke="#FFFFFF" stroke-width="0.555"></path>
                <polyline id="Fill-44" fill="#FFFFFF" points="98.32 62.255 88.425 62.255 88.425 93.195 85.819 93.195 85.819 62.255 75.924 62.255 75.924 59.89 98.32 59.89 98.32 62.255"></polyline>
                <polygon id="Stroke-45" stroke="#FFFFFF" points="98.32 62.255 88.425 62.255 88.425 93.195 85.819 93.195 85.819 62.255 75.924 62.255 75.924 59.89 98.32 59.89"></polygon>
                <polygon id="Stroke-46" stroke="#FFFFFF" stroke-width="0.555" points="98.32 62.255 88.425 62.255 88.425 93.195 85.819 93.195 85.819 62.255 75.924 62.255 75.924 59.89 98.32 59.89"></polygon>
                <polygon id="Fill-47" fill="#FFFFFF" points="110.627 93.195 113.234 93.195 113.234 59.889 110.627 59.889"></polygon>
                <polygon id="Stroke-48" stroke="#FFFFFF" points="110.627 93.195 113.234 93.195 113.234 59.889 110.627 59.889"></polygon>
                <polygon id="Stroke-49" stroke="#FFFFFF" stroke-width="0.555" points="110.627 93.195 113.234 93.195 113.234 59.889 110.627 59.889"></polygon>
                <path d="M156.191,88.609 C153.777,91.264 149.916,93.774 143.882,93.774 C134.229,93.774 127.085,86.727 127.085,76.591 C127.085,66.454 134.47,59.407 143.882,59.407 C149.674,59.407 153.536,61.82 155.949,64.234 L154.26,66.166 C152.571,63.992 148.708,61.773 143.882,61.773 C135.676,61.773 129.885,67.806 129.885,76.494 C129.885,85.182 135.676,91.312 143.882,91.312 C148.467,91.312 152.086,89.575 154.501,86.921 L156.191,88.609" id="Fill-50" fill="#FFFFFF"></path>
                <path d="M156.191,88.609 C153.777,91.264 149.916,93.774 143.882,93.774 C134.229,93.774 127.085,86.727 127.085,76.591 C127.085,66.454 134.47,59.407 143.882,59.407 C149.674,59.407 153.536,61.82 155.949,64.234 L154.26,66.166 C152.571,63.992 148.708,61.773 143.882,61.773 C135.676,61.773 129.885,67.806 129.885,76.494 C129.885,85.182 135.676,91.312 143.882,91.312 C148.467,91.312 152.086,89.575 154.501,86.921 L156.191,88.609 Z" id="Stroke-51" stroke="#FFFFFF"></path>
                <path d="M156.191,88.609 C153.777,91.264 149.916,93.774 143.882,93.774 C134.229,93.774 127.085,86.727 127.085,76.591 C127.085,66.454 134.47,59.407 143.882,59.407 C149.674,59.407 153.536,61.82 155.949,64.234 L154.26,66.166 C152.571,63.992 148.708,61.773 143.882,61.773 C135.676,61.773 129.885,67.806 129.885,76.494 C129.885,85.182 135.676,91.312 143.882,91.312 C148.467,91.312 152.086,89.575 154.501,86.921 L156.191,88.609 Z" id="Stroke-52" stroke="#FFFFFF" stroke-width="0.555"></path>
                <path d="M195.528,93.194 L192.486,93.194 L188.383,83.203 L172.503,83.203 L168.352,93.194 L165.602,93.194 L179.839,59.794 L181.287,59.794 L195.528,93.194 Z M187.369,80.789 L180.42,63.752 L173.469,80.789 L187.369,80.789 L187.369,80.789 Z" id="Fill-53" fill="#FFFFFF"></path>
                <path d="M195.528,93.194 L192.486,93.194 L188.383,83.203 L172.503,83.203 L168.352,93.194 L165.602,93.194 L179.839,59.794 L181.287,59.794 L195.528,93.194 Z M187.369,80.789 L180.42,63.752 L173.469,80.789 L187.369,80.789 Z" id="Stroke-54" stroke="#FFFFFF"></path>
                <path d="M195.528,93.194 L192.486,93.194 L188.383,83.203 L172.503,83.203 L168.352,93.194 L165.602,93.194 L179.839,59.794 L181.287,59.794 L195.528,93.194 Z M187.369,80.789 L180.42,63.752 L173.469,80.789 L187.369,80.789 Z" id="Stroke-55" stroke="#FFFFFF" stroke-width="0.555"></path>
                <polyline id="Fill-56" fill="#FFFFFF" points="222.073 93.194 207.591 93.194 207.591 59.889 210.198 59.889 210.198 90.829 222.073 90.829 222.073 93.194"></polyline>
                <polygon id="Stroke-57" stroke="#FFFFFF" points="222.073 93.194 207.591 93.194 207.591 59.889 210.198 59.889 210.198 90.829 222.073 90.829"></polygon>
                <polygon id="Stroke-58" stroke="#FFFFFF" stroke-width="0.555" points="222.073 93.194 207.591 93.194 207.591 59.889 210.198 59.889 210.198 90.829 222.073 90.829"></polygon>
                <path d="M18.153,50.379 C12.398,50.379 8.632,48.531 6.5,46.826 L4.013,50.167 L1.597,50.167 L1.1,33.539 L2.735,33.539 C5.647,41.072 10.195,48.248 19.006,48.248 C25.331,48.248 28.03,44.623 28.03,39.295 C28.03,34.961 25.331,31.692 21.067,29.986 C17.017,28.353 14.885,27.571 10.905,25.794 C5.435,23.379 2.521,19.47 2.521,13.147 C2.521,5.614 8.632,-4.61852778e-14 16.733,-4.61852778e-14 C20.427,-4.61852778e-14 24.478,1.635 26.965,3.553 L29.381,0.214 L31.796,0.214 L32.151,16.343 L30.588,16.343 C27.746,8.315 24.549,2.133 15.028,2.133 C12.966,2.133 8.277,3.838 8.277,9.381 C8.277,13.715 10.621,16.201 14.53,18.334 C18.011,20.252 20.995,20.891 24.193,22.455 C30.304,25.226 34.213,28.068 34.213,35.6 C34.213,44.27 27.32,50.379 18.153,50.379" id="Fill-59" fill="#FFFFFF"></path>
                <path d="M49.064,50.167 C43.237,50.167 40.466,46.686 40.466,40.361 L40.466,20.535 L33.644,20.535 L33.644,17.482 L40.608,17.482 L40.608,6.467 L46.79,6.467 L46.79,17.482 L56.525,17.482 L56.525,20.535 L46.861,20.535 L46.861,39.508 C46.861,43.559 47.998,46.188 52.332,46.188 C55.956,46.188 56.24,43.345 56.668,40.646 L58.23,40.646 C57.662,45.761 54.322,50.167 49.064,50.167" id="Fill-60" fill="#FFFFFF"></path>
                <path d="M84.664,50.167 C81.324,50.167 79.547,48.674 78.411,45.405 L78.197,45.405 C75.639,48.391 71.944,50.31 67.681,50.31 C62.779,50.31 59.438,47.323 59.438,42.776 C59.438,36.95 62.849,34.96 66.402,33.61 C70.453,32.047 75.355,30.839 78.339,29.133 L78.339,25.155 C78.339,23.876 78.126,17.979 72.228,17.979 C69.528,17.979 68.533,19.612 67.894,20.395 C67.894,21.459 68.533,23.024 68.533,24.585 C68.533,26.079 66.971,27.642 64.413,27.642 C62.068,27.642 61.215,25.794 61.215,23.946 C61.215,19.685 67.255,16.415 72.655,16.415 C79.69,16.415 84.876,17.482 84.876,26.93 C84.876,33.184 84.521,40.503 84.521,42.848 C84.521,43.914 85.517,46.471 87.862,46.471 C90.206,46.471 90.418,43.7 90.632,41 L92.196,41 C91.768,47.608 89.068,50.167 84.664,50.167 M66.331,41.711 C66.331,45.619 68.107,47.396 71.163,47.396 C74.858,47.396 76.421,45.761 78.126,43.628 L78.411,31.194 C71.305,33.398 66.331,35.386 66.331,41.711" id="Fill-61" fill="#FFFFFF"></path>
                <path d="M113.514,49.456 L113.514,48.034 C114.792,47.964 115.859,47.821 116.854,47.537 C118.202,47.111 118.771,45.903 118.771,44.339 L118.771,27.215 C118.771,22.313 115.929,19.612 112.873,19.612 C107.686,19.612 104.774,22.952 103.991,24.586 L103.991,43.984 C103.991,45.547 104.631,46.614 105.909,47.183 C106.976,47.679 108.042,47.964 109.25,48.034 L109.25,49.456 L92.481,49.456 L92.481,48.034 C93.76,47.964 94.613,47.821 95.608,47.537 C96.957,47.111 97.527,45.903 97.527,44.339 L97.527,23.947 C97.383,22.455 96.743,20.962 95.608,20.182 C94.755,19.612 93.405,19.115 92.126,19.043 L92.126,17.693 L103.493,16.912 L103.991,17.41 L103.991,22.241 L104.134,22.241 C106.834,19.612 109.533,16.414 115.645,16.414 C122.253,16.414 125.309,20.892 125.309,27.642 L125.309,44.055 C125.309,45.619 125.877,46.686 127.156,47.253 C128.151,47.679 129.004,47.964 130.282,48.034 L130.282,49.456 L113.514,49.456" id="Fill-62" fill="#FFFFFF"></path>
                <path d="M142.791,50.167 C136.963,50.167 134.193,46.686 134.193,40.361 L134.193,20.535 L127.371,20.535 L127.371,17.482 L134.335,17.482 L134.335,6.467 L140.517,6.467 L140.517,17.482 L150.252,17.482 L150.252,20.535 L140.588,20.535 L140.588,39.508 C140.588,43.559 141.725,46.188 146.059,46.188 C149.683,46.188 149.967,43.345 150.394,40.646 L151.956,40.646 C151.389,45.761 148.049,50.167 142.791,50.167" id="Fill-63" fill="#FFFFFF"></path>
                <path d="M168.798,50.45 C160.27,50.45 152.738,43.984 152.738,33.538 C152.738,23.449 159.347,16.414 169.295,16.414 C179.242,16.414 185.495,23.592 185.495,33.041 C185.495,42.492 179.527,50.45 168.798,50.45 M169.224,18.05 C161.833,18.05 159.915,26.222 159.915,32.972 C159.915,41.427 162.544,48.816 169.224,48.816 C175.547,48.816 178.319,41.64 178.319,33.113 C178.319,25.652 176.116,18.05 169.224,18.05" id="Fill-64" fill="#FFFFFF"></path>
                <path d="M206.743,49.456 L206.743,48.034 C208.022,47.964 209.087,47.821 210.082,47.537 C211.431,47.111 212,45.903 212,44.339 L212,27.215 C212,22.313 209.158,19.612 206.103,19.612 C200.915,19.612 198.003,22.952 197.221,24.586 L197.221,43.984 C197.221,45.547 197.861,46.614 199.139,47.183 C200.204,47.679 201.271,47.964 202.479,48.034 L202.479,49.456 L185.71,49.456 L185.71,48.034 C186.99,47.964 187.842,47.821 188.836,47.537 C190.187,47.111 190.756,45.903 190.756,44.339 L190.756,23.947 C190.613,22.455 189.972,20.962 188.836,20.182 C187.984,19.612 186.634,19.115 185.355,19.043 L185.355,17.693 L196.723,16.912 L197.221,17.41 L197.221,22.241 L197.363,22.241 C200.063,19.612 202.763,16.414 208.874,16.414 C215.483,16.414 218.538,20.892 218.538,27.642 L218.538,44.055 C218.538,45.619 219.106,46.686 220.386,47.253 C221.38,47.679 222.234,47.964 223.511,48.034 L223.511,49.456 L206.743,49.456" id="Fill-65" fill="#FFFFFF"></path>
                <path d="M219.809,59.724 C217.933,59.724 216.493,61.239 216.493,63.038 C216.493,64.914 217.906,66.353 219.809,66.353 C221.711,66.353 223.149,64.784 223.149,63.038 C223.149,61.239 221.711,59.724 219.809,59.724 L219.809,59.724 Z M219.809,60.315 C221.3,60.315 222.405,61.522 222.405,63.038 C222.405,64.579 221.3,65.736 219.809,65.736 C218.345,65.736 217.238,64.579 217.238,63.038 C217.238,61.522 218.293,60.315 219.809,60.315 L219.809,60.315 Z M221.711,64.503 C221.608,64.451 221.506,64.374 221.377,64.246 C220.99,63.81 220.785,63.526 220.529,63.038 C220.939,62.885 221.222,62.602 221.222,62.164 C221.222,61.418 220.554,61.265 219.989,61.265 L218.24,61.265 L218.24,61.649 C218.654,61.676 218.703,61.676 218.703,62.138 L218.703,63.887 C218.703,64.349 218.654,64.349 218.216,64.374 L218.216,64.784 L219.937,64.784 L219.937,64.374 C219.502,64.349 219.449,64.349 219.449,63.887 L219.449,63.27 L219.552,63.27 C219.68,63.27 219.809,63.295 219.91,63.449 C220.015,63.629 220.142,63.963 220.374,64.271 C220.682,64.683 221.043,64.811 221.608,64.811 L221.711,64.503 Z M219.449,62.885 L219.449,61.958 C219.449,61.701 219.552,61.649 219.781,61.649 C219.989,61.649 220.4,61.753 220.4,62.241 C220.4,62.498 220.323,62.678 220.117,62.781 C220.015,62.858 219.809,62.885 219.68,62.885 L219.449,62.885 L219.449,62.885 Z" id="Fill-67" fill="#FFFFFF"></path>
            </g>
        </g>
    </g>
</svg>