<svg width="23" height="23" viewBox="0 0 23 23" fill="none" xmlns="http://www.w3.org/2000/svg">
<path d="M17.25 10.0625V18.3281C17.25 18.5641 17.2035 18.7978 17.1132 19.0158C17.0229 19.2338 16.8906 19.4319 16.7237 19.5987C16.5569 19.7656 16.3588 19.8979 16.1408 19.9882C15.9228 20.0785 15.6891 20.125 15.4531 20.125H4.67188C4.19531 20.125 3.73827 19.9357 3.40129 19.5987C3.06431 19.2617 2.875 18.8047 2.875 18.3281V7.54688C2.875 7.07031 3.06431 6.61327 3.40129 6.27629C3.73827 5.93931 4.19531 5.75 4.67188 5.75H12.1954" stroke="#7B7E7B" stroke-linecap="round" stroke-linejoin="round"/>
<path d="M20.6614 2.3921C20.5958 2.31998 20.5162 2.26191 20.4275 2.22141C20.3388 2.18091 20.2428 2.15881 20.1453 2.15646C20.0478 2.15411 19.9508 2.17155 19.8602 2.20773C19.7697 2.2439 19.6874 2.29807 19.6183 2.36695L19.0627 2.91994C18.9953 2.98732 18.9575 3.0787 18.9575 3.17397C18.9575 3.26924 18.9953 3.36061 19.0627 3.428L19.5721 3.93652C19.6055 3.97007 19.6451 3.99669 19.6889 4.01485C19.7326 4.03302 19.7794 4.04237 19.8268 4.04237C19.8741 4.04237 19.921 4.03302 19.9647 4.01485C20.0084 3.99669 20.0481 3.97007 20.0815 3.93652L20.6232 3.39745C20.8973 3.12388 20.9229 2.67826 20.6614 2.3921ZM17.9392 4.04298L9.82986 12.1379C9.78069 12.1869 9.74496 12.2477 9.72609 12.3144L9.35099 13.4317C9.34201 13.462 9.34137 13.4941 9.34915 13.5248C9.35693 13.5554 9.37284 13.5834 9.39519 13.6058C9.41755 13.6281 9.44553 13.644 9.47618 13.6518C9.50682 13.6596 9.539 13.659 9.56931 13.65L10.6856 13.2749C10.7524 13.256 10.8132 13.2203 10.8622 13.1711L18.9571 5.06091C19.032 4.98522 19.074 4.88304 19.074 4.77656C19.074 4.67008 19.032 4.56789 18.9571 4.4922L18.5101 4.04298C18.4343 3.96741 18.3317 3.92497 18.2246 3.92497C18.1176 3.92497 18.0149 3.96741 17.9392 4.04298Z" fill="#7B7E7B"/>
</svg>
