<svg xmlns="http://www.w3.org/2000/svg" viewBox="0 0 512 512" style="enable-background:new 0 0 512 512" xml:space="preserve" width="36" height="36">
<path style="fill:#2197d8" d="M398.339 71.921c-78.611-78.611-206.066-78.611-284.677 0-78.611 78.611-78.611 206.066 0 284.677L256 498.937l142.338-142.338c78.612-78.612 78.612-206.066.001-284.678z"/>
<path style="fill:#2ba5f7" d="M136.755 333.505c-31.852-31.852-49.394-74.201-49.394-119.247s17.541-87.394 49.394-119.245c31.852-31.852 74.201-49.394 119.247-49.394 45.044 0 87.394 17.541 119.245 49.393s49.394 74.201 49.394 119.245c0 45.046-17.541 87.395-49.394 119.245L256 452.749 136.755 333.505z"/>
<path style="fill:#ccc" d="M299.106 111.715h32.658v68.814h-32.658z"/><path style="fill:#333" d="M256 512a13.065 13.065 0 0 1-9.237-3.826l-142.34-142.338c-83.578-83.579-83.578-219.572 0-303.151 83.58-83.579 219.574-83.579 303.152 0 83.578 83.579 83.578 219.572 0 303.151L265.237 508.173A13.057 13.057 0 0 1 256 512zm0-485.975c-50.279 0-97.549 19.58-133.102 55.133S67.766 163.981 67.766 214.26c0 50.28 19.579 97.549 55.132 133.101L256 480.463l133.101-133.101c73.393-73.393 73.393-192.81 0-266.203C353.549 45.606 306.279 26.025 256 26.025z"/>
<path style="fill:#e6e6e6" d="M340.196 169.797v149.22H171.799v-149.22l84.205-39.595z"/>
<path style="fill:#ccc" d="M356.368 277.502a122.571 122.571 0 0 1-16.172 20.81 122.663 122.663 0 0 1-26.27 20.705H189.33a121.358 121.358 0 0 1-17.531-12.501V199.842c12.319 54.917 61.384 95.949 120.011 95.949 17.191 0 33.533-3.527 48.386-9.889a122.3 122.3 0 0 0 16.172-8.4z"/>
<path style="fill:#333" d="M371.028 198.319c-1.89 0-3.811-.413-5.63-1.283L256 144.684l-109.398 52.352c-6.507 3.114-14.308.363-17.422-6.145-3.114-6.508-.363-14.308 6.145-17.422l115.038-55.051a13.064 13.064 0 0 1 11.277 0l115.036 55.051c6.508 3.114 9.259 10.914 6.145 17.422-2.245 4.69-6.922 7.428-11.793 7.428z"/>
<path style="fill:#ccc" d="M232.406 237.135h47.197v81.89h-47.197z"/>
<path style="fill:#333" d="M340.2 201.147c-7.213 0-13.063 5.848-13.063 13.063v91.749h-34.474v-68.827c0-7.215-5.85-13.063-13.063-13.063h-47.201c-7.213 0-13.063 5.848-13.063 13.063v68.827h-34.474V214.21c0-7.215-5.85-13.063-13.063-13.063s-13.063 5.848-13.063 13.063v104.812c0 7.215 5.85 13.063 13.063 13.063H340.2c7.213 0 13.063-5.848 13.063-13.063V214.21c0-7.215-5.848-13.063-13.063-13.063zm-94.736 104.812v-55.764h21.075v55.764h-21.075zM331.771 142.955c-7.213 0-13.063-5.848-13.063-13.063v-5.108h-19.764c-7.213 0-13.063-5.848-13.063-13.063s5.85-13.063 13.063-13.063h32.828c7.213 0 13.063 5.848 13.063 13.063v18.171c-.001 7.214-5.85 13.063-13.064 13.063z"/>
</svg>