<svg width="24" height="24" viewBox="0 0 24 24" fill="none" xmlns="http://www.w3.org/2000/svg">
<rect x="1.5" y="2.5" width="21" height="17" rx="3.5" stroke="#7B7E7B"/>
<path d="M7.165 7.212H8.144L9.398 11.414L9.937 13.207H9.981C10.223 12.5543 10.4393 11.9567 10.63 11.414L12.104 7.289H12.346L13.82 11.414C14.0107 11.9567 14.227 12.5543 14.469 13.207H14.513L15.052 11.414L16.306 7.212H17.285L14.832 15.154H14.293L12.797 10.963C12.6797 10.6257 12.4963 10.1197 12.247 9.445H12.203C12.0123 9.995 11.8327 10.4973 11.664 10.952L10.157 15.154H9.618L7.165 7.212Z" fill="#7B7E7B"/>
</svg>
