<?xml version="1.0" encoding="UTF-8"?>
<svg id="Layer_1" data-name="Layer 1" xmlns="http://www.w3.org/2000/svg" viewBox="0 0 143.28 76.08">
  <defs>
    <style>
      .cls-1 {
        stroke-width: 0px;
      }
    </style>
  </defs>
  <path class="cls-1" d="m7.57,37.83c-1.21,0-2.32.02-3.44,0-1.83-.03-3.14-1.29-3.2-3.03-.05-1.78,1.27-3.19,3.1-3.26,1.08-.04,2.16-.07,3.23,0,.9.07,1.19-.29,1.44-1.13,2.86-9.44,8.93-15.91,18.35-18.92,14.09-4.51,28.94,2.89,34.22,16.84.13.33.24.67.4,1.08,6.68-3.57,13.37-3.63,20.12,0,.3-.75.57-1.43.85-2.12,4.09-10.16,14.27-17.03,25.25-17.05,12.51-.01,22.93,7.57,26.72,19.52.23.73.57.92,1.26.89,1.16-.04,2.32-.04,3.47,0,1.77.05,3,1.26,3.11,3,.1,1.66-.96,3.06-2.67,3.26-1.25.15-2.53.03-3.68.03-.33,2.49-.48,4.79-.97,7.03-2.47,11.32-12.17,20.1-23.67,21.29-16.64,1.73-28.84-10.1-30.66-23.7-.2-1.49-.12-3.02-.26-4.53-.04-.44-.29-1.02-.63-1.25-5.44-3.68-10.99-3.64-16.39.06-.35.24-.56.91-.55,1.38.13,13.19-8.41,24.46-21.26,27.43-17.53,4.06-32.24-8.44-33.87-23.71-.11-.99-.18-1.98-.28-3.12Zm121.93.09c.02-11.75-9.52-21.36-21.25-21.4-11.64-.04-21.29,9.57-21.32,21.22-.03,11.64,9.45,21.33,20.9,21.35,12.06.02,21.66-9.35,21.68-21.17Zm-115.5-.08c.03,11.91,9.62,21.35,21.73,21.24,11.95-.11,21.08-10.33,20.88-21.6-.2-11.42-9.83-21-21.37-20.95-11.66.06-21.28,9.7-21.24,21.31Z"/>
</svg>