<?xml version="1.0" encoding="UTF-8"?>
<!DOCTYPE svg PUBLIC "-//W3C//DTD SVG 1.1//EN" "http://www.w3.org/Graphics/SVG/1.1/DTD/svg11.dtd">
<svg xmlns="http://www.w3.org/2000/svg" version="1.1" width="58px" height="18px" style="shape-rendering:geometricPrecision; text-rendering:geometricPrecision; image-rendering:optimizeQuality; fill-rule:evenodd; clip-rule:evenodd" xmlns:xlink="http://www.w3.org/1999/xlink">
<g><path style="opacity:0.214" fill="#000000" d="M 57.5,3.5 C 57.5,3.83333 57.5,4.16667 57.5,4.5C 54.7174,7.76589 51.0508,9.09923 46.5,8.5C 44.1112,7.94634 42.4445,6.44634 41.5,4C 42.1667,3.33333 42.8333,2.66667 43.5,2C 48.4569,0.965575 53.1236,1.46558 57.5,3.5 Z M 45.5,2.5 C 48.9783,2.18424 52.3117,2.68424 55.5,4C 51.5,4.66667 47.5,4.66667 43.5,4C 44.4158,3.72158 45.0825,3.22158 45.5,2.5 Z"/></g>
<g><path style="opacity:0.26" fill="#000000" d="M -0.5,8.5 C -0.5,7.83333 -0.5,7.16667 -0.5,6.5C 3.51013,2.50281 7.51013,2.50281 11.5,6.5C 15.8873,2.2314 19.8873,2.56473 23.5,7.5C 20.1523,15.0002 16.1523,15.3335 11.5,8.5C 7.30783,15.099 3.30783,15.099 -0.5,8.5 Z M 3.5,5.5 C 8.15839,5.65301 9.15839,7.48634 6.5,11C 2.53694,11.1177 1.53694,9.28433 3.5,5.5 Z M 15.5,5.5 C 20.1585,5.01463 21.4919,6.84796 19.5,11C 15.2662,11.267 13.9329,9.43362 15.5,5.5 Z"/></g>
<g><path style="opacity:0.22" fill="#000000" d="M 46.5,8.5 C 50.5463,10.9921 50.213,13.1587 45.5,15C 40.633,16.4067 36.633,15.24 33.5,11.5C 34.09,10.2011 35.09,9.36775 36.5,9C 39.8168,8.50166 43.1501,8.33499 46.5,8.5 Z M 40.5,9.5 C 42.8008,10.0604 45.1341,10.5604 47.5,11C 43.5,13 39.5,13 35.5,11C 37.3817,10.8019 39.0484,10.3019 40.5,9.5 Z"/></g>
</svg>
