<svg width="24" height="24" viewBox="0 0 24 24" fill="none" xmlns="http://www.w3.org/2000/svg">
<g clip-path="url(#clip0_27898_423943)">
<path d="M5 20C4.45 20 3.979 19.804 3.587 19.412C3.195 19.02 2.99934 18.5493 3 18V4C3 3.45 3.196 2.979 3.588 2.587C3.98 2.195 4.45067 1.99934 5 2H19C19.55 2 20.021 2.196 20.413 2.588C20.805 2.98 21.0007 3.45067 21 4V11.1C20.8333 11.0667 20.6707 11.0417 20.512 11.025C20.3533 11.0083 20.1827 11 20 11H19V4H5V18H8.1C8.16667 18.3667 8.25433 18.7167 8.363 19.05C8.47167 19.3833 8.61734 19.7 8.8 20H5ZM5 17V18V4V17ZM7 16H8.1C8.23334 15.1833 8.525 14.429 8.975 13.737C9.425 13.045 10 12.466 10.7 12H7V16ZM7 10H11V6H7V10ZM14 21C12.9 21 11.9583 20.6083 11.175 19.825C10.3917 19.0417 10 18.1 10 17C10 15.9 10.3917 14.9583 11.175 14.175C11.9583 13.3917 12.9 13 14 13H16V15H14C13.45 15 12.979 15.196 12.587 15.588C12.195 15.98 11.9993 16.4507 12 17C12 17.55 12.196 18.021 12.588 18.413C12.98 18.805 13.4507 19.0007 14 19H16V21H14ZM13 10H17V6H13V10ZM14 18V16H20V18H14ZM18 21V19H20C20.55 19 21.021 18.804 21.413 18.412C21.805 18.02 22.0007 17.5493 22 17C22 16.45 21.804 15.979 21.412 15.587C21.02 15.195 20.5493 14.9993 20 15H18V13H20C21.1 13 22.0417 13.3877 22.825 14.163C23.6083 14.9383 24 15.884 24 17C24 18.1 23.6083 19.0417 22.825 19.825C22.0417 20.6083 21.1 21 20 21H18Z" fill="#7B7E7B"/>
</g>
<defs>
<clipPath id="clip0_27898_423943">
<rect width="24" height="24" fill="white"/>
</clipPath>
</defs>
</svg>
