                          <svg width="34" height="34" viewBox="0 0 30 29" xmlns="http://www.w3.org/2000/svg"><g id="Group_33" data-name="Group 33" transform="translate(0 0)"><path id="Path_20" data-name="Path 20" d="M108.183,486.133a8.4,8.4,0,1,1,8.4,8.41A8.408,8.408,0,0,1,108.183,486.133Zm3.042,0h-.018c0,.808,0,1.615,0,2.423a3.213,3.213,0,0,0,.041.557,2.855,2.855,0,0,0,2.826,2.4q2.507.024,5.015,0a2.858,2.858,0,0,0,2.871-2.914c.006-1.638.011-3.277-.006-4.914a3.3,3.3,0,0,0-.176-1.026,2.866,2.866,0,0,0-2.744-1.893c-1.587,0-3.174,0-4.761,0a5.318,5.318,0,0,0-.557.03,2.837,2.837,0,0,0-2.484,2.563C111.188,484.278,111.225,485.206,111.225,486.133Z" transform="translate(-108.183 -477.739)" fill="#062F6E"></path><path id="Path_21" data-name="Path 21" d="M113.726,487.8c0-.689,0-1.378,0-2.068a2.411,2.411,0,0,1,2.482-2.481q2.058,0,4.118,0a2.411,2.411,0,0,1,2.441,2.454c0,1.39,0,2.78,0,4.169a2.4,2.4,0,0,1-1.985,2.415,2.47,2.47,0,0,1-.471.046c-1.378,0-2.756.006-4.134,0a2.427,2.427,0,0,1-2.419-2.03,2.727,2.727,0,0,1-.03-.473C113.724,489.157,113.726,488.48,113.726,487.8Zm4.515,2.918a2.93,2.93,0,1,0-2.971-2.934A2.957,2.957,0,0,0,118.241,490.72Zm3.086-6.556a.835.835,0,1,0,.835.826A.836.836,0,0,0,121.327,484.163Z" transform="translate(-109.845 -479.392)" fill="#062F6E"></path><path id="Path_22" data-name="Path 22" d="M119.27,490.93a2.091,2.091,0,1,1,2.13-2.091A2.112,2.112,0,0,1,119.27,490.93Z" transform="translate(-110.87 -480.44)" fill="#062F6E"></path></g></svg>
