<?xml version="1.0" encoding="UTF-8"?>
<svg xmlns="http://www.w3.org/2000/svg" xmlns:xlink="http://www.w3.org/1999/xlink" width="12px" height="12px" viewBox="0 0 12 12" version="1.1">
<g id="surface1">
<path style=" stroke:none;fill-rule:nonzero;fill:rgb(83.137255%,24.313725%,5.490196%);fill-opacity:1;" d="M 5.5 7.5 L 6.5 7.5 L 6.5 8.5 L 5.5 8.5 Z M 5.5 3.5 L 6.5 3.5 L 6.5 6.5 L 5.5 6.5 Z M 6 1 C 3.234375 1 1 3.25 1 6 C 1 7.324219 1.527344 8.597656 2.464844 9.535156 C 2.929688 10 3.480469 10.367188 4.085938 10.621094 C 4.691406 10.871094 5.34375 11 6 11 C 7.324219 11 8.597656 10.472656 9.535156 9.535156 C 10.472656 8.597656 11 7.324219 11 6 C 11 5.34375 10.871094 4.691406 10.621094 4.085938 C 10.367188 3.480469 10 2.929688 9.535156 2.464844 C 9.070312 2 8.519531 1.632812 7.914062 1.378906 C 7.308594 1.128906 6.65625 1 6 1 Z M 6 10 C 4.9375 10 3.921875 9.578125 3.171875 8.828125 C 2.421875 8.078125 2 7.0625 2 6 C 2 4.9375 2.421875 3.921875 3.171875 3.171875 C 3.921875 2.421875 4.9375 2 6 2 C 7.0625 2 8.078125 2.421875 8.828125 3.171875 C 9.578125 3.921875 10 4.9375 10 6 C 10 7.0625 9.578125 8.078125 8.828125 8.828125 C 8.078125 9.578125 7.0625 10 6 10 Z M 6 10 "/>
</g>
</svg>
