<svg id="Location_Icon" data-name="Location Icon" xmlns="http://www.w3.org/2000/svg" width="15.358" height="19.199" viewBox="0 0 15.358 19.199">
  <path id="Path_15" data-name="Path 15" d="M.923,2.495,1.6,1.817ZM1.6,1.817l.68.677a.986.986,0,0,1-.312.21.959.959,0,0,1-1.048-.21L.917,2.488.9,2.472l-.06-.06q-.508-.524-1-1.062Q-1.39,0-2.514-1.441a26.88,26.88,0,0,1-2.4-3.585A8.284,8.284,0,0,1-6.076-8.742a7.612,7.612,0,0,1,7.68-7.68,7.612,7.612,0,0,1,7.679,7.68A8.273,8.273,0,0,1,8.119-5.027a26.854,26.854,0,0,1-2.4,3.586A48.034,48.034,0,0,1,2.366,2.412l-.06.06-.016.016-.006.006Zm0-7.68A2.88,2.88,0,0,0,3.64-6.706a2.885,2.885,0,0,0,.843-2.037,2.885,2.885,0,0,0-.843-2.037A2.88,2.88,0,0,0,1.6-11.622a2.88,2.88,0,0,0-2.037.843,2.88,2.88,0,0,0-.843,2.037A2.88,2.88,0,0,0-.433-6.706,2.88,2.88,0,0,0,1.6-5.862" transform="translate(6.076 16.422)" fill="#f5880d"/>
</svg>
