<svg width="24" height="24" viewBox="0 0 24 24" fill="none" xmlns="http://www.w3.org/2000/svg">
<path d="M17.58 4H14V2H21V9H19V5.41L15.17 9.24C15.6219 9.92243 15.8994 10.7054 15.9781 11.5201C16.0568 12.3348 15.9343 13.1564 15.6213 13.9127C15.3083 14.669 14.8144 15.3369 14.183 15.8578C13.5516 16.3786 12.802 16.7365 12 16.9V19H14V21H12V23H10V21H8V19H10V16.9C8.87064 16.6695 7.8556 16.0558 7.12669 15.1629C6.39778 14.27 5.99976 13.1527 6 12C6 10.6739 6.52678 9.40215 7.46447 8.46447C8.40215 7.52678 9.67392 7 11 7C12 7 12.96 7.3 13.75 7.83L17.58 4ZM11 9C10.2044 9 9.44129 9.31607 8.87868 9.87868C8.31607 10.4413 8 11.2044 8 12C8 12.7956 8.31607 13.5587 8.87868 14.1213C9.44129 14.6839 10.2044 15 11 15C11.7956 15 12.5587 14.6839 13.1213 14.1213C13.6839 13.5587 14 12.7956 14 12C14 11.2044 13.6839 10.4413 13.1213 9.87868C12.5587 9.31607 11.7956 9 11 9Z" fill="#7B7E7B"/>
</svg>
