<svg width="14" height="24" viewBox="0 0 14 24" fill="none" xmlns="http://www.w3.org/2000/svg">
<path d="M5.5 1.5H3.25C2.65326 1.5 2.08097 1.73705 1.65901 2.15901C1.23705 2.58097 1 3.15326 1 3.75V20.25C1 20.8467 1.23705 21.419 1.65901 21.841C2.08097 22.2629 2.65326 22.5 3.25 22.5H10.75C11.3467 22.5 11.919 22.2629 12.341 21.841C12.7629 21.419 13 20.8467 13 20.25V3.75C13 3.15326 12.7629 2.58097 12.341 2.15901C11.919 1.73705 11.3467 1.5 10.75 1.5H8.5M5.5 1.5V3H8.5V1.5M5.5 1.5H8.5M5.5 20.25H8.5" stroke="black" stroke-width="1.5" stroke-linecap="round" stroke-linejoin="round"/>
</svg>
