<svg
      width="68"
      height="32"
      viewBox="0 0 68 32"
      fill="none"
      xmlns="http://www.w3.org/2000/svg"
    >
      <path
        d="M15 2H65C66.6569 2 68 3.34315 68 5V27C68 28.6569 66.6569 30 65 30H15V2Z"
        fill="#A9AFBB"
      />
      <path d="M0 16L15 2.14359L15 29.8564L0 16Z" fill="#A9AFBB" />
      <path
        d="M28.232 10.088H28.974L33.468 15.184L35.428 17.424H35.47V14.904V10.088H36.618V20.196H36.38L31.396 14.568L29.422 12.328H29.38V14.848V20H28.232V10.088ZM39.6195 17.088V17.144C39.6195 17.7973 39.8155 18.32 40.2075 18.712C40.5995 19.104 41.0988 19.3 41.7055 19.3C42.1068 19.3 42.4568 19.2067 42.7555 19.02C43.0635 18.8333 43.3481 18.5393 43.6095 18.138L43.7215 18.11L44.4915 18.628C44.1741 19.16 43.7728 19.566 43.2875 19.846C42.8115 20.126 42.2701 20.266 41.6635 20.266C41.0381 20.266 40.4828 20.126 39.9975 19.846C39.5215 19.5567 39.1481 19.16 38.8775 18.656C38.6161 18.1427 38.4855 17.5593 38.4855 16.906C38.4855 16.234 38.6161 15.6413 38.8775 15.128C39.1481 14.6147 39.5168 14.218 39.9835 13.938C40.4501 13.658 40.9868 13.518 41.5935 13.518C42.4988 13.518 43.2221 13.812 43.7635 14.4C44.3048 14.988 44.5755 15.8047 44.5755 16.85C44.5755 16.934 44.5708 17.0133 44.5615 17.088H39.6195ZM41.5935 14.47C41.0801 14.47 40.6508 14.624 40.3055 14.932C39.9601 15.24 39.7455 15.6693 39.6615 16.22H43.4415C43.4041 15.6787 43.2175 15.254 42.8815 14.946C42.5548 14.6287 42.1255 14.47 41.5935 14.47ZM47.814 20.224L45.532 13.784H46.666L48.08 18.096H48.108L49.886 13.868H50.138L51.888 18.096H51.916L53.358 13.784H54.464L52.182 20.224H51.874L50.012 15.94H49.984L48.122 20.224H47.814Z"
        fill="#E1E6EA"
      />
      <circle cx="19" cy="16" r="2" fill="white" />
    </svg>