<svg width="21" height="18" viewBox="0 0 21 18" fill="none" xmlns="http://www.w3.org/2000/svg">
<g clip-path="url(#clip0_4563_115280)">
<path d="M6.49926 6.99926H7.49926M10.4993 10.9993H11.4993M11.4993 6.49926L6.49926 11.4993M8.30026 2.28926L7.17126 3.41626C6.98623 3.60162 6.73516 3.70593 6.47326 3.70626H4.69526C4.43322 3.70626 4.18192 3.81035 3.99664 3.99564C3.81135 4.18092 3.70726 4.43222 3.70726 4.69426V6.47226C3.70693 6.73416 3.60262 6.98523 3.41726 7.17026L2.28926 8.30126C2.10405 8.48653 2 8.73778 2 8.99976C2 9.26173 2.10405 9.51298 2.28926 9.69826L3.41926 10.8273C3.5109 10.9189 3.5836 11.0277 3.63318 11.1475C3.68277 11.2673 3.70828 11.3956 3.70826 11.5253V13.3033C3.70826 13.8493 4.15026 14.2913 4.69626 14.2913H6.47426C6.73626 14.2913 6.98726 14.3953 7.17226 14.5813L8.30226 15.7103C8.48753 15.8955 8.73878 15.9995 9.00076 15.9995C9.26273 15.9995 9.51398 15.8955 9.69926 15.7103L10.8283 14.5803C11.0135 14.3953 11.2645 14.2913 11.5263 14.2913H13.3043C13.5663 14.2913 13.8176 14.1872 14.0029 14.0019C14.1882 13.8166 14.2923 13.5653 14.2923 13.3033V11.5253C14.2923 11.2633 14.3963 11.0123 14.5823 10.8273L15.7113 9.69726C15.8965 9.51198 16.0005 9.26073 16.0005 8.99876C16.0005 8.73678 15.8965 8.48553 15.7113 8.30026L14.5813 7.17126C14.3963 6.98606 14.2923 6.73502 14.2923 6.47326V4.69526C14.2923 4.43322 14.1882 4.18192 14.0029 3.99664C13.8176 3.81135 13.5663 3.70726 13.3043 3.70726H11.5263C11.2643 3.70693 11.0133 3.60262 10.8283 3.41726L9.69726 2.28926C9.51198 2.10405 9.26073 2 8.99876 2C8.73678 2 8.48553 2.10405 8.30026 2.28926V2.28926Z" stroke="#7B7E7B"/>
</g>
<defs>
<clipPath id="clip0_4563_115280">
<rect width="15" height="15" fill="white" transform="translate(1.5 1.5)"/>
</clipPath>
</defs>
</svg>
