<svg width="40" height="40" viewBox="0 0 40 40" fill="none" xmlns="http://www.w3.org/2000/svg">
<path d="M29.3436 4C31.3629 4 32.9998 5.63695 32.9998 7.65623V32.851C32.9998 34.8703 31.3629 36.5073 29.3436 36.5073H10.6562C8.63695 36.5073 7 34.8703 7 32.851V7.65623C7 5.72109 8.50338 4.13708 10.4059 4.00844L10.6562 4H29.3436ZM30.5624 26.7499H9.43748V32.851C9.43748 33.5241 9.98313 34.0698 10.6562 34.0698H29.3436C30.0167 34.0698 30.5624 33.5241 30.5624 32.851V26.7499ZM13.0958 29.1873H26.9061C27.5792 29.1873 28.1249 29.733 28.1249 30.4061C28.1249 31.0231 27.6664 31.533 27.0715 31.6137L26.9061 31.6248H13.0958C12.4227 31.6248 11.8771 31.0792 11.8771 30.4061C11.8771 29.7891 12.3356 29.2792 12.9304 29.1985L13.0958 29.1873H26.9061H13.0958ZM29.3436 6.43748H10.6562L10.4909 6.44861C9.89598 6.52931 9.43748 7.03923 9.43748 7.65623V24.3124H13.5V20.6489C13.5 19.5972 14.2992 18.7321 15.3235 18.6281L15.5312 18.6176H24.4686C25.5203 18.6176 26.3854 19.4169 26.4894 20.4412L26.4999 20.6489V24.3124H30.5624V7.65623C30.5624 6.98313 30.0167 6.43748 29.3436 6.43748ZM24.0624 21.0551H15.9374V24.3124H24.0624V21.0551ZM19.9999 8.8677C22.2436 8.8677 24.0624 10.6865 24.0624 12.9302C24.0624 15.1738 22.2436 16.9926 19.9999 16.9926C17.7563 16.9926 15.9374 15.1738 15.9374 12.9302C15.9374 10.6865 17.7563 8.8677 19.9999 8.8677ZM19.9999 11.3052C19.1025 11.3052 18.3749 12.0327 18.3749 12.9302C18.3749 13.8276 19.1025 14.5552 19.9999 14.5552C20.8974 14.5552 21.6249 13.8276 21.6249 12.9302C21.6249 12.0327 20.8974 11.3052 19.9999 11.3052Z" fill="#DEDEDE"/>
</svg>
