<svg width="19" height="20" viewBox="0 0 19 20" fill="none" xmlns="http://www.w3.org/2000/svg">
<path d="M4.53425 11.002C4.40164 11.002 4.27446 11.0547 4.1807 11.1484C4.08693 11.2422 4.03425 11.3694 4.03425 11.502V14.502C4.03425 14.6346 4.08693 14.7618 4.1807 14.8556C4.27446 14.9493 4.40164 15.002 4.53425 15.002C4.66686 15.002 4.79404 14.9493 4.8878 14.8556C4.98157 14.7618 5.03425 14.6346 5.03425 14.502V14.002H5.53125C5.92907 14.002 6.31061 13.844 6.59191 13.5627C6.87321 13.2814 7.03125 12.8998 7.03125 12.502C7.03125 12.1042 6.87321 11.7226 6.59191 11.4413C6.31061 11.16 5.92907 11.002 5.53125 11.002H4.53425ZM5.53125 13.002H5.03425V12.002H5.53125C5.66386 12.002 5.79104 12.0547 5.8848 12.1484C5.97857 12.2422 6.03125 12.3694 6.03125 12.502C6.03125 12.6346 5.97857 12.7618 5.8848 12.8556C5.79104 12.9493 5.66386 13.002 5.53125 13.002ZM12.0293 11.502C12.0293 11.3694 12.0819 11.2422 12.1757 11.1484C12.2695 11.0547 12.3966 11.002 12.5293 11.002H14.0343C14.1669 11.002 14.294 11.0547 14.3878 11.1484C14.4816 11.2422 14.5343 11.3694 14.5343 11.502C14.5343 11.6346 14.4816 11.7618 14.3878 11.8556C14.294 11.9493 14.1669 12.002 14.0343 12.002H13.0282L13.0273 13.004H14.0343C14.1669 13.004 14.294 13.0567 14.3878 13.1504C14.4816 13.2442 14.5343 13.3714 14.5343 13.504C14.5343 13.6366 14.4816 13.7638 14.3878 13.8576C14.294 13.9513 14.1669 14.004 14.0343 14.004H13.0273L13.0293 14.501C13.0294 14.5667 13.0166 14.6317 12.9916 14.6924C12.9666 14.7531 12.9298 14.8083 12.8835 14.8548C12.7899 14.9488 12.6629 15.0017 12.5302 15.002C12.3976 15.0023 12.2704 14.9498 12.1764 14.8563C12.0824 14.7627 12.0295 14.6356 12.0293 14.503L12.0262 13.505V13.503L12.0293 11.502ZM8.53125 11.002C8.39864 11.002 8.27146 11.0547 8.1777 11.1484C8.08393 11.2422 8.03125 11.3694 8.03125 11.502V14.502C8.03125 14.6346 8.08393 14.7618 8.1777 14.8556C8.27146 14.9493 8.39864 15.002 8.53125 15.002H9.02925C9.55968 15.002 10.0684 14.7913 10.4435 14.4162C10.8185 14.0411 11.0293 13.5324 11.0293 13.002C11.0293 12.4716 10.8185 11.9629 10.4435 11.5878C10.0684 11.2127 9.55968 11.002 9.02925 11.002H8.53125ZM9.03125 14.002V12.002C9.29647 12.002 9.55082 12.1074 9.73836 12.2949C9.92589 12.4824 10.0312 12.7368 10.0312 13.002C10.0312 13.2672 9.92589 13.5216 9.73836 13.7091C9.55082 13.8966 9.29647 14.002 9.03125 14.002ZM17.0312 18V16.836C17.6222 16.555 18.0312 15.952 18.0312 15.254V10.75C18.0312 10.052 17.6222 9.45 17.0312 9.168V7.828C17.0311 7.29761 16.8203 6.78899 16.4452 6.414L10.6163 0.586C10.6008 0.571627 10.5844 0.558266 10.5673 0.546C10.5549 0.53645 10.5429 0.526443 10.5312 0.516C10.4624 0.451071 10.3893 0.39093 10.3123 0.336C10.2866 0.319482 10.2599 0.304779 10.2323 0.292L10.1842 0.268L10.1342 0.239C10.0802 0.208 10.0253 0.176 9.96825 0.152C9.76911 0.0724632 9.55836 0.0258544 9.34425 0.0139999C9.32447 0.0127123 9.30478 0.0103757 9.28525 0.00699997C9.25811 0.00280811 9.23071 0.000469395 9.20325 0H3.03125C2.50082 0 1.99211 0.210714 1.61704 0.585786C1.24196 0.960859 1.03125 1.46957 1.03125 2V9.168C0.44025 9.449 0.03125 10.052 0.03125 10.75V15.254C0.03125 15.952 0.44025 16.554 1.03125 16.836V18C1.03125 18.5304 1.24196 19.0391 1.61704 19.4142C1.99211 19.7893 2.50082 20 3.03125 20H15.0312C15.5617 20 16.0704 19.7893 16.4455 19.4142C16.8205 19.0391 17.0312 18.5304 17.0312 18ZM15.0312 18.5H3.03125C2.89864 18.5 2.77146 18.4473 2.6777 18.3536C2.58393 18.2598 2.53125 18.1326 2.53125 18V17.004H15.5312V18C15.5312 18.1326 15.4786 18.2598 15.3848 18.3536C15.291 18.4473 15.1639 18.5 15.0312 18.5ZM15.5312 8V9H2.53125V2C2.53125 1.86739 2.58393 1.74021 2.6777 1.64645C2.77146 1.55268 2.89864 1.5 3.03125 1.5H9.03125V6C9.03125 6.53043 9.24196 7.03914 9.61704 7.41421C9.99211 7.78929 10.5008 8 11.0312 8H15.5312ZM14.4093 6.5H11.0312C10.8986 6.5 10.7715 6.44732 10.6777 6.35355C10.5839 6.25979 10.5312 6.13261 10.5312 6V2.621L14.4093 6.5ZM1.78125 10.5H16.2812C16.3476 10.5 16.4111 10.5263 16.458 10.5732C16.5049 10.6201 16.5312 10.6837 16.5312 10.75V15.254C16.5312 15.3203 16.5049 15.3839 16.458 15.4308C16.4111 15.4777 16.3476 15.504 16.2812 15.504H1.78125C1.71495 15.504 1.65136 15.4777 1.60447 15.4308C1.55759 15.3839 1.53125 15.3203 1.53125 15.254V10.75C1.53125 10.6837 1.55759 10.6201 1.60447 10.5732C1.65136 10.5263 1.71495 10.5 1.78125 10.5Z" fill="#7B7E7B"/>
</svg>
