<svg width="18" height="20" viewBox="0 0 18 20" fill="none" xmlns="http://www.w3.org/2000/svg">
<path d="M0.288086 3.5L1.56809 2.25L10.7981 11.5L17.5381 18.22L16.2681 19.5L13.2681 16.5H1.53809V13.5C1.53809 11.64 4.14809 10.42 6.62809 9.86L0.288086 3.5ZM17.5381 13.5V15.68L15.6381 13.78V13.5C15.6381 13.24 15.1381 12.85 14.3381 12.5L11.5381 9.68C14.2481 10.13 17.5381 11.41 17.5381 13.5ZM3.43809 13.5V14.6H11.3681L8.25809 11.5C5.72809 11.8 3.43809 12.95 3.43809 13.5ZM9.53809 0.5C10.599 0.5 11.6164 0.921427 12.3665 1.67157C13.1167 2.42172 13.5381 3.43913 13.5381 4.5C13.5381 6.45 12.1381 8.08 10.2881 8.43L5.60809 3.75C5.78335 2.83596 6.27154 2.01153 6.98876 1.41841C7.70597 0.825294 8.6074 0.50055 9.53809 0.5ZM9.53809 2.5C9.00765 2.5 8.49895 2.71071 8.12387 3.08579C7.7488 3.46086 7.53809 3.96957 7.53809 4.5C7.53809 5.03043 7.7488 5.53914 8.12387 5.91421C8.49895 6.28929 9.00765 6.5 9.53809 6.5C10.0685 6.5 10.5772 6.28929 10.9523 5.91421C11.3274 5.53914 11.5381 5.03043 11.5381 4.5C11.5381 3.96957 11.3274 3.46086 10.9523 3.08579C10.5772 2.71071 10.0685 2.5 9.53809 2.5Z" fill="#7B7E7B"/>
</svg>
