<svg width="24" height="24" viewBox="0 0 24 24" fill="none" xmlns="http://www.w3.org/2000/svg">
<path d="M21.5813 19.9698C20.1302 17.4667 17.7584 15.6298 14.9719 14.851C16.2868 14.1832 17.3384 13.0919 17.9571 11.7531C18.5758 10.4144 18.7256 8.90632 18.3822 7.47207C18.0389 6.03782 17.2224 4.76104 16.0645 3.84765C14.9066 2.93426 13.4748 2.4375 12.0001 2.4375C10.5253 2.4375 9.0935 2.93426 7.93563 3.84765C6.77775 4.76104 5.96129 6.03782 5.61792 7.47207C5.27455 8.90632 5.4243 10.4144 6.043 11.7531C6.66171 13.0919 7.71331 14.1832 9.02819 14.851C6.24173 15.6298 3.86993 17.4667 2.41882 19.9698C2.38057 20.0334 2.35553 20.1042 2.34521 20.1777C2.33489 20.2513 2.33949 20.3262 2.35874 20.3979C2.37799 20.4697 2.41149 20.5368 2.45725 20.5953C2.503 20.6538 2.56008 20.7025 2.62507 20.7385C2.68908 20.7755 2.75975 20.7995 2.83304 20.8091C2.90633 20.8188 2.9808 20.8139 3.05219 20.7947C3.12359 20.7756 3.19051 20.7425 3.24913 20.6975C3.30775 20.6525 3.35691 20.5963 3.39382 20.5323C4.266 19.0215 5.5205 17.767 7.03121 16.8947C8.54193 16.0225 10.2556 15.5633 12.0001 15.5633C13.7445 15.5633 15.4582 16.0225 16.9689 16.8947C18.4796 17.767 19.7341 19.0215 20.6063 20.5323C20.6557 20.6178 20.7268 20.6889 20.8124 20.7382C20.8979 20.7876 20.995 20.8136 21.0938 20.8135C21.1923 20.812 21.2889 20.7862 21.3751 20.7385C21.4401 20.7025 21.4971 20.6538 21.5429 20.5953C21.5886 20.5368 21.6222 20.4697 21.6414 20.3979C21.6607 20.3262 21.6653 20.2513 21.6549 20.1777C21.6446 20.1042 21.6196 20.0334 21.5813 19.9698ZM6.56257 9.00101C6.56257 7.92558 6.88147 6.87429 7.47895 5.9801C8.07643 5.08591 8.92566 4.38897 9.91923 3.97742C10.9128 3.56587 12.0061 3.45819 13.0609 3.66799C14.1156 3.8778 15.0845 4.39567 15.845 5.15612C16.6054 5.91657 17.1233 6.88544 17.3331 7.94021C17.5429 8.99498 17.4352 10.0883 17.0237 11.0819C16.6121 12.0754 15.9152 12.9247 15.021 13.5221C14.1268 14.1196 13.0755 14.4385 12.0001 14.4385C10.558 14.4385 9.1749 13.8656 8.15518 12.8459C7.13545 11.8262 6.56257 10.4431 6.56257 9.00101Z" fill="black"/>
</svg>
