                          <svg width="34" height="34" viewBox="0 0 30 29" xmlns="http://www.w3.org/2000/svg"><g id="Group_35" data-name="Group 35" transform="translate(0)"><path id="Path_24" data-name="Path 24" d="M187.816,486.13a8.405,8.405,0,1,1,8.411,8.408A8.413,8.413,0,0,1,187.816,486.13Zm7.641,1.823c.186.126.35.225.5.342a2.17,2.17,0,0,0,1.762.372,3.1,3.1,0,0,0,2.2-1.548,5.221,5.221,0,0,0,.683-3.551,3.241,3.241,0,0,0-1.866-2.589,4.957,4.957,0,0,0-4.756.055,4.038,4.038,0,0,0-2.12,4.353,1.872,1.872,0,0,0,1.424,1.6c.112.031.17.012.221-.1a1.042,1.042,0,0,0-.082-1.09,2.219,2.219,0,0,1-.209-2.052,3.421,3.421,0,0,1,3.7-2.243,2.338,2.338,0,0,1,2.056,1.773,3.569,3.569,0,0,1,.108.66,4.38,4.38,0,0,1-.7,2.824,1.623,1.623,0,0,1-1.2.8c-.851.073-1.419-.288-1.228-1.248.083-.424.232-.834.33-1.255a9.449,9.449,0,0,0,.243-1.27.713.713,0,0,0-.538-.767.946.946,0,0,0-1.152.3,2.264,2.264,0,0,0-.348,2.307.615.615,0,0,1,.034.326c-.092.429-.2.856-.307,1.282a13.6,13.6,0,0,0-.56,3.233c0,.436.025.872.04,1.364a2.93,2.93,0,0,0,.749-.785,6.064,6.064,0,0,0,.788-2C195.307,488.694,195.375,488.338,195.457,487.953Z" transform="translate(-187.816 -477.734)" fill="#062F6E"></path></g></svg>
