
<svg width="25" height="24" viewBox="0 0 25 24" fill="none" xmlns="http://www.w3.org/2000/svg">
<g clip-path="url(#clip0_4664_117673)">
<path d="M19.8086 6.00469V0.75H4.43359V6.00469C3.47309 6.05392 2.5681 6.46985 1.90525 7.16671C1.2424 7.86358 0.872234 8.78824 0.871094 9.75V18.75H4.05859V17.25H2.37109V9.75C2.37176 9.15347 2.60903 8.58156 3.03084 8.15975C3.45266 7.73794 4.02456 7.50067 4.62109 7.5H19.6211C20.2176 7.50067 20.7895 7.73794 21.2113 8.15975C21.6332 8.58156 21.8704 9.15347 21.8711 9.75V17.25H19.8086V18.75H23.3711V9.75C23.37 8.78824 22.9998 7.86358 22.3369 7.16671C21.6741 6.46985 20.7691 6.05392 19.8086 6.00469ZM18.3086 6H5.93359V2.25H18.3086V6Z" fill="#7B7E7B"/>
<path d="M18.6836 9.375H20.1836V10.875H18.6836V9.375ZM5.55859 12.375H3.68359V13.875H5.55859V23.25H18.3086V13.875H20.1836V12.375H5.55859ZM16.8086 21.75H7.05859V13.875H16.8086V21.75Z" fill="#7B7E7B"/>
</g>
<defs>
<clipPath id="clip0_4664_117673">
<rect width="24" height="24" fill="white" transform="translate(0.121094)"/>
</clipPath>
</defs>
</svg>
