
<svg width="25" height="24" viewBox="0 0 25 24" fill="none" xmlns="http://www.w3.org/2000/svg">
<path d="M16.8438 19.5C17.6722 19.5 18.3438 18.8284 18.3438 18C18.3438 17.1716 17.6722 16.5 16.8438 16.5C16.0153 16.5 15.3438 17.1716 15.3438 18C15.3438 18.8284 16.0153 19.5 16.8438 19.5Z" fill="#7B7E7B"/>
<path d="M22.6765 17.6093C22.2131 16.4287 21.4134 15.41 20.3766 14.6796C19.3398 13.9491 18.1114 13.539 16.8438 13.5C15.5761 13.539 14.3477 13.9491 13.3109 14.6796C12.2741 15.41 11.4744 16.4287 11.011 17.6093L10.8438 18L11.011 18.3907C11.4744 19.5713 12.2741 20.59 13.3109 21.3204C14.3477 22.0509 15.5761 22.461 16.8438 22.5C18.1114 22.461 19.3398 22.0509 20.3766 21.3204C21.4134 20.59 22.2131 19.5713 22.6765 18.3907L22.8438 18L22.6765 17.6093ZM16.8438 21C16.2504 21 15.6704 20.8241 15.177 20.4944C14.6837 20.1648 14.2992 19.6962 14.0721 19.148C13.845 18.5999 13.7856 17.9967 13.9014 17.4147C14.0171 16.8328 14.3029 16.2982 14.7224 15.8787C15.142 15.4591 15.6765 15.1734 16.2585 15.0576C16.8404 14.9419 17.4436 15.0013 17.9918 15.2284C18.54 15.4554 19.0085 15.8399 19.3382 16.3333C19.6678 16.8266 19.8438 17.4067 19.8438 18C19.8428 18.7953 19.5264 19.5578 18.964 20.1202C18.4016 20.6826 17.6391 20.999 16.8438 21V21ZM5.59375 12.75H9.34375V14.25H5.59375V12.75ZM5.59375 9H14.5938V10.5H5.59375V9ZM5.59375 5.25H14.5938V6.75H5.59375V5.25Z" fill="#7B7E7B"/>
<path d="M16.8438 1.5H3.34375C2.94629 1.50119 2.56545 1.6596 2.2844 1.94065C2.00335 2.2217 1.84494 2.60254 1.84375 3V21C1.84494 21.3975 2.00335 21.7783 2.2844 22.0593C2.56545 22.3404 2.94629 22.4988 3.34375 22.5H9.34375V21H3.34375V3H16.8438V11.25H18.3438V3C18.3426 2.60254 18.1841 2.2217 17.9031 1.94065C17.6221 1.6596 17.2412 1.50119 16.8438 1.5V1.5Z" fill="#7B7E7B"/>
</svg>
