<svg width="25" height="22" viewBox="0 0 25 22" fill="none" xmlns="http://www.w3.org/2000/svg">
<path d="M0.799988 2.70156C0.799988 2.14461 1.02124 1.61046 1.41506 1.21664C1.80889 0.822812 2.34303 0.601563 2.89999 0.601562H21.1C21.6569 0.601562 22.1911 0.822812 22.5849 1.21664C22.9787 1.61046 23.2 2.14461 23.2 2.70156V7.46996C22.7587 7.27931 22.2803 7.19031 21.8 7.20956V2.70156C21.8 2.51591 21.7262 2.33786 21.595 2.20659C21.4637 2.07531 21.2856 2.00156 21.1 2.00156H2.89999C2.71434 2.00156 2.53629 2.07531 2.40501 2.20659C2.27374 2.33786 2.19999 2.51591 2.19999 2.70156V15.3016C2.19999 15.4872 2.27374 15.6653 2.40501 15.7965C2.53629 15.9278 2.71434 16.0016 2.89999 16.0016H6.39999V13.9016C6.39999 13.3446 6.62124 12.8105 7.01506 12.4166C7.40889 12.0228 7.94303 11.8016 8.49999 11.8016H15.5C16.0569 11.8016 16.5911 12.0228 16.9849 12.4166C17.3787 12.8105 17.6 13.3446 17.6 13.9016V15.4052C17.0246 15.4234 16.5668 15.6012 16.2 15.849V13.9016C16.2 13.7159 16.1262 13.5379 15.995 13.4066C15.8637 13.2753 15.6856 13.2016 15.5 13.2016H8.49999C8.31433 13.2016 8.13629 13.2753 8.00501 13.4066C7.87374 13.5379 7.79999 13.7159 7.79999 13.9016V16.0016H15.9942C15.5532 16.36 15.2592 16.808 15.0422 17.1356C14.9849 17.2258 14.9251 17.3145 14.863 17.4016H2.89999C2.34303 17.4016 1.80889 17.1803 1.41506 16.7865C1.02124 16.3927 0.799988 15.8585 0.799988 15.3016V2.70156ZM12 10.4016C12.9282 10.4016 13.8185 10.0328 14.4749 9.37644C15.1312 8.72006 15.5 7.82982 15.5 6.90156C15.5 5.9733 15.1312 5.08307 14.4749 4.42669C13.8185 3.77031 12.9282 3.40156 12 3.40156C11.0717 3.40156 10.1815 3.77031 9.52511 4.42669C8.86874 5.08307 8.49999 5.9733 8.49999 6.90156C8.49999 7.82982 8.86874 8.72006 9.52511 9.37644C10.1815 10.0328 11.0717 10.4016 12 10.4016ZM12 9.00156C11.443 9.00156 10.9089 8.78031 10.5151 8.38649C10.1212 7.99266 9.89999 7.45852 9.89999 6.90156C9.89999 6.34461 10.1212 5.81046 10.5151 5.41664C10.9089 5.02281 11.443 4.80156 12 4.80156C12.5569 4.80156 13.0911 5.02281 13.4849 5.41664C13.8787 5.81046 14.1 6.34461 14.1 6.90156C14.1 7.45852 13.8787 7.99266 13.4849 8.38649C13.0911 8.78031 12.5569 9.00156 12 9.00156ZM20.169 10.7726L20.7276 9.45516C20.9894 8.83636 21.6166 8.50036 22.2326 8.62916L22.3642 8.66276L23.0642 8.88676C23.7586 9.10936 24.2892 9.70296 24.4614 10.4492C24.8688 12.223 24.3802 14.3832 22.9928 16.9284C21.6082 19.4708 20.092 20.9982 18.4414 21.5134C17.8002 21.7136 17.1114 21.5694 16.5934 21.134L16.4576 21.008L15.9256 20.4746C15.7021 20.2445 15.5577 19.9492 15.5134 19.6315C15.4691 19.3138 15.5272 18.9902 15.6792 18.7078L15.7576 18.579L16.5584 17.403C16.704 17.181 16.9128 17.0077 17.1579 16.9057C17.403 16.8036 17.673 16.7774 17.9332 16.8304L18.0732 16.8682L19.553 17.3624C20.1424 16.9144 20.6352 16.3544 21.0286 15.6754C21.366 15.0944 21.5886 14.5064 21.6908 13.91L21.7328 13.6104L20.5022 12.4414C20.3036 12.2478 20.1624 12.0031 20.0942 11.7343C20.026 11.4654 20.0335 11.183 20.1158 10.9182L20.1676 10.7726H20.169Z" fill="#7B7E7B"/>
</svg>
