
<svg width="25" height="24" viewBox="0 0 25 24" fill="none" xmlns="http://www.w3.org/2000/svg">
<g clip-path="url(#clip0_24745_390121)">
<path d="M4.36418 0V17.5385C4.36418 18.0508 3.95341 18.4615 3.44111 18.4615C2.9288 18.4615 2.51803 18.0508 2.51803 17.5385V6.46154H3.44111V4.61538H0.671875V17.5385C0.671875 19.0569 1.92264 20.3077 3.44111 20.3077H12.6719C12.4873 19.7538 12.383 19.1077 12.383 18.4615H6.03864C6.14388 18.1698 6.21126 17.8643 6.21126 17.5385V1.84615H20.9805V12C21.6266 12.1846 22.2728 12.4615 22.8266 12.9231V0H4.36418ZM8.05649 3.69231V7.38462H19.1334V3.69231H8.05649ZM8.05649 9.23077V11.0769H12.6719V9.23077H8.05649ZM14.518 9.23077V11.0769H19.1334V9.23077H14.518ZM8.05649 12V13.8462H12.6719V12H8.05649ZM19.1334 12.9231C16.0651 12.9231 13.595 15.3932 13.595 18.4615C13.595 21.5298 16.0651 24 19.1334 24V22.1538C17.0325 22.1538 15.4411 20.5625 15.4411 18.4615C15.4411 16.3606 17.0325 14.7692 19.1334 14.7692C21.2343 14.7692 22.8257 16.3606 22.8257 18.4615C22.8257 19.2628 22.5977 20.0031 22.1906 20.5966L20.9796 19.3846L20.518 23.5385L24.6719 23.0769L23.518 21.9231C24.2851 20.9594 24.6719 19.7326 24.6719 18.4615C24.6719 15.3932 22.2017 12.9231 19.1334 12.9231ZM8.05649 14.7692V16.6154H12.6719V14.7692H8.05649Z" fill="#7B7E7B"/>
</g>
<defs>
<clipPath id="clip0_24745_390121">
<rect width="24" height="24" fill="white" transform="translate(0.671875)"/>
</clipPath>
</defs>
</svg>
