
<svg width="25" height="24" viewBox="0 0 25 24" fill="none" xmlns="http://www.w3.org/2000/svg">
<g clip-path="url(#clip0_11612_225174)">
<path d="M18.0241 9.53097C18.165 9.39014 18.2441 9.19913 18.2441 8.99997C18.2441 8.80081 18.165 8.6098 18.0241 8.46897C17.8833 8.32814 17.6923 8.24902 17.4931 8.24902C17.294 8.24902 17.103 8.32814 16.9621 8.46897L12.9931 12.4395L11.2741 10.719C11.2044 10.6492 11.1216 10.5939 11.0305 10.5562C10.9394 10.5184 10.8418 10.499 10.7431 10.499C10.6445 10.499 10.5469 10.5184 10.4558 10.5562C10.3647 10.5939 10.2819 10.6492 10.2121 10.719C10.1424 10.7887 10.0871 10.8715 10.0494 10.9626C10.0116 11.0537 9.99219 11.1514 9.99219 11.25C9.99219 11.3486 10.0116 11.4462 10.0494 11.5373C10.0871 11.6285 10.1424 11.7112 10.2121 11.781L12.4621 14.031C12.5318 14.1008 12.6146 14.1562 12.7057 14.194C12.7968 14.2318 12.8945 14.2513 12.9931 14.2513C13.0918 14.2513 13.1895 14.2318 13.2806 14.194C13.3717 14.1562 13.4545 14.1008 13.5241 14.031L18.0241 9.53097Z" fill="#7B7E7B"/>
<path d="M1.74219 1.5C1.54328 1.5 1.35251 1.57902 1.21186 1.71967C1.07121 1.86032 0.992188 2.05109 0.992188 2.25C0.992188 2.44891 1.07121 2.63968 1.21186 2.78033C1.35251 2.92098 1.54328 3 1.74219 3H3.40719L4.00869 5.4105L6.25569 17.388C6.28786 17.5599 6.37907 17.7151 6.51355 17.8268C6.64804 17.9386 6.81734 17.9998 6.99219 18H8.49219C7.69654 18 6.93348 18.3161 6.37087 18.8787C5.80826 19.4413 5.49219 20.2044 5.49219 21C5.49219 21.7956 5.80826 22.5587 6.37087 23.1213C6.93348 23.6839 7.69654 24 8.49219 24C9.28784 24 10.0509 23.6839 10.6135 23.1213C11.1761 22.5587 11.4922 21.7956 11.4922 21C11.4922 20.2044 11.1761 19.4413 10.6135 18.8787C10.0509 18.3161 9.28784 18 8.49219 18H18.9922C18.1965 18 17.4335 18.3161 16.8709 18.8787C16.3083 19.4413 15.9922 20.2044 15.9922 21C15.9922 21.7956 16.3083 22.5587 16.8709 23.1213C17.4335 23.6839 18.1965 24 18.9922 24C19.7878 24 20.5509 23.6839 21.1135 23.1213C21.6761 22.5587 21.9922 21.7956 21.9922 21C21.9922 20.2044 21.6761 19.4413 21.1135 18.8787C20.5509 18.3161 19.7878 18 18.9922 18H20.4922C20.667 17.9998 20.8363 17.9386 20.9708 17.8268C21.1053 17.7151 21.1965 17.5599 21.2287 17.388L23.4787 5.388C23.499 5.27976 23.4951 5.16838 23.4675 5.06178C23.4399 4.95518 23.3891 4.85597 23.3188 4.77121C23.2485 4.68644 23.1604 4.6182 23.0607 4.57133C22.9611 4.52445 22.8523 4.5001 22.7422 4.5H5.32719L4.71969 2.0685C4.6792 1.90618 4.58561 1.76205 4.45378 1.65904C4.32196 1.55603 4.15948 1.50005 3.99219 1.5H1.74219ZM7.61469 16.5L5.64519 6H21.8392L19.8697 16.5H7.61469ZM9.99219 21C9.99219 21.3978 9.83415 21.7794 9.55285 22.0607C9.27154 22.342 8.89001 22.5 8.49219 22.5C8.09436 22.5 7.71283 22.342 7.43153 22.0607C7.15022 21.7794 6.99219 21.3978 6.99219 21C6.99219 20.6022 7.15022 20.2206 7.43153 19.9393C7.71283 19.658 8.09436 19.5 8.49219 19.5C8.89001 19.5 9.27154 19.658 9.55285 19.9393C9.83415 20.2206 9.99219 20.6022 9.99219 21ZM20.4922 21C20.4922 21.3978 20.3342 21.7794 20.0529 22.0607C19.7715 22.342 19.39 22.5 18.9922 22.5C18.5944 22.5 18.2128 22.342 17.9315 22.0607C17.6502 21.7794 17.4922 21.3978 17.4922 21C17.4922 20.6022 17.6502 20.2206 17.9315 19.9393C18.2128 19.658 18.5944 19.5 18.9922 19.5C19.39 19.5 19.7715 19.658 20.0529 19.9393C20.3342 20.2206 20.4922 20.6022 20.4922 21Z" fill="#7B7E7B"/>
</g>
<defs>
<clipPath id="clip0_11612_225174">
<rect width="24" height="24" fill="white" transform="translate(0.992188)"/>
</clipPath>
</defs>
</svg>
