<svg width="14" height="15" viewBox="0 0 14 15" fill="none" xmlns="http://www.w3.org/2000/svg">
<path d="M7.18213 10.0781C6.67223 10.0781 6.17377 9.92692 5.7498 9.64363C5.32583 9.36034 4.99539 8.9577 4.80025 8.48661C4.60512 8.01552 4.55407 7.49714 4.65354 6.99703C4.75302 6.49693 4.99856 6.03755 5.35912 5.67699C5.71968 5.31643 6.17906 5.07089 6.67916 4.97141C7.17927 4.87194 7.69765 4.92299 8.16874 5.11812C8.63983 5.31326 9.04247 5.6437 9.32576 6.06767C9.60905 6.49164 9.76026 6.9901 9.76026 7.5C9.75948 8.18352 9.48761 8.83883 9.00428 9.32215C8.52096 9.80548 7.86565 10.0773 7.18213 10.0781ZM7.18213 5.85938C6.85765 5.85938 6.54045 5.9556 6.27065 6.13587C6.00085 6.31614 5.79057 6.57238 5.66639 6.87216C5.54222 7.17195 5.50973 7.50182 5.57303 7.82007C5.63633 8.13832 5.79259 8.43065 6.02203 8.6601C6.25148 8.88954 6.54381 9.0458 6.86206 9.1091C7.18031 9.1724 7.51019 9.13992 7.80997 9.01574C8.10976 8.89156 8.36599 8.68128 8.54626 8.41148C8.72653 8.14168 8.82276 7.82449 8.82276 7.5C8.82227 7.06503 8.64926 6.64801 8.34169 6.34044C8.03412 6.03287 7.6171 5.85986 7.18213 5.85938Z" fill="#f98300"/>
<path d="M13.6143 5.55706L12.6835 6.32326C12.8485 7.09908 12.8485 7.90092 12.6835 8.67674L13.6143 9.44294C13.7216 9.53089 13.7942 9.65419 13.8189 9.79075C13.8436 9.92731 13.8189 10.0682 13.7492 10.1882L12.7938 11.843C12.7247 11.9634 12.615 12.0553 12.4844 12.1021C12.3537 12.149 12.2106 12.1478 12.0808 12.0988L10.9511 11.6755C10.3626 12.2072 9.66827 12.6085 8.91377 12.853L8.71554 14.0416C8.6931 14.1786 8.62261 14.3031 8.5167 14.3928C8.41079 14.4826 8.27638 14.5316 8.13757 14.5312H6.22677C6.08797 14.5316 5.95357 14.4826 5.84766 14.3928C5.74175 14.3031 5.67126 14.1786 5.6488 14.0416L5.4507 12.853C4.69619 12.6085 4.0019 12.2072 3.41339 11.6755L2.28356 12.0988C2.15371 12.1478 2.01066 12.149 1.88003 12.1021C1.74939 12.0553 1.63972 11.9634 1.57065 11.843L0.61525 10.1881C0.54557 10.0681 0.520895 9.92721 0.545642 9.79065C0.570389 9.6541 0.642943 9.53081 0.750308 9.44288L1.68098 8.67674C1.51598 7.90092 1.51598 7.09908 1.68098 6.32326L0.75022 5.55706C0.642872 5.4691 0.570338 5.34581 0.545607 5.20925C0.520877 5.07269 0.545564 4.93179 0.61525 4.81178L1.57068 3.157C1.63975 3.0366 1.74944 2.94474 1.8801 2.89787C2.01075 2.851 2.15382 2.8522 2.28368 2.90124L3.41342 3.32449C4.00193 2.79277 4.69622 2.39149 5.45073 2.14699L5.64883 0.958387C5.67128 0.821412 5.74177 0.696907 5.84767 0.607183C5.95358 0.51746 6.08797 0.468384 6.22677 0.468748H8.13757C8.27638 0.468369 8.41078 0.517436 8.51669 0.607156C8.6226 0.696875 8.6931 0.821381 8.71554 0.958358L8.91368 2.14699C9.66819 2.3915 10.3625 2.79278 10.951 3.32449L12.0808 2.90118C12.2106 2.85217 12.3537 2.851 12.4843 2.89787C12.615 2.94474 12.7246 3.03659 12.7937 3.15697L13.749 4.81186C13.8187 4.93184 13.8435 5.07271 13.8188 5.20926C13.7941 5.3458 13.7216 5.46909 13.6143 5.55706ZM12.1308 3.88362L10.7214 4.41167L10.5079 4.19681C9.92071 3.60494 9.18623 3.18045 8.38024 2.96713L8.08727 2.8899L7.83986 1.40625H6.52472L6.2774 2.8899L5.98443 2.96713C5.17844 3.18045 4.44396 3.60494 3.85674 4.19681L3.64332 4.41167L2.23364 3.88362L1.57619 5.0226L2.73719 5.97838L2.65809 6.27055C2.44056 7.07575 2.44056 7.92425 2.65809 8.72944L2.73719 9.02159L1.57619 9.97737L2.23378 11.1164L3.64323 10.5883L3.85666 10.8032C4.44387 11.3951 5.17835 11.8195 5.98434 12.0329L6.27731 12.1101L6.5246 13.5937H7.83986L8.08718 12.1101L8.38015 12.0329C9.18614 11.8195 9.92063 11.3951 10.5078 10.8032L10.7213 10.5883L12.1307 11.1164L12.7883 9.9774L11.6273 9.02159L11.7064 8.72944C11.924 7.92425 11.924 7.07575 11.7064 6.27055L11.6273 5.97838L12.7883 5.02262L12.1308 3.88362Z" fill="#f98300"/>
</svg>
