<svg width="13" height="8" viewBox="0 0 13 8" fill="none" xmlns="http://www.w3.org/2000/svg">
<path d="M10.14 0.334558L6.23563 4.23897L2.33122 0.334558C2.23808 0.24142 2.12779 0.194851 2.00034 0.194851C1.87289 0.194851 1.76259 0.24142 1.66945 0.334558L0.448866 1.55515C0.355728 1.64828 0.30916 1.75858 0.30916 1.88603C0.30916 2.01348 0.355728 2.12377 0.448866 2.21691L5.90475 7.67279C5.99789 7.76593 6.10818 7.8125 6.23563 7.8125C6.36309 7.8125 6.47338 7.76593 6.56652 7.67279L12.0224 2.21691C12.1155 2.12377 12.1621 2.01348 12.1621 1.88603C12.1621 1.75858 12.1155 1.64828 12.0224 1.55515L10.8018 0.334558C10.7087 0.24142 10.5984 0.194851 10.4709 0.194851C10.3435 0.194851 10.2332 0.24142 10.14 0.334558Z" fill="#A9AFBB"/>
</svg>
