<svg width="8" height="13" viewBox="0 0 8 13" fill="none" xmlns="http://www.w3.org/2000/svg">
<path d="M0.330651 2.21347L4.23506 6.11788L0.330651 10.0223C0.237514 10.1154 0.190945 10.2257 0.190945 10.3532C0.190945 10.4806 0.237514 10.5909 0.330651 10.6841L1.55124 11.9046C1.64438 11.9978 1.75467 12.0444 1.88212 12.0444C2.00957 12.0444 2.11987 11.9978 2.213 11.9046L7.66889 6.44876C7.76203 6.35563 7.80859 6.24533 7.80859 6.11788C7.80859 5.99043 7.76203 5.88014 7.66889 5.787L2.213 0.331112C2.11987 0.237975 2.00957 0.191406 1.88212 0.191406C1.75467 0.191406 1.64438 0.237975 1.55124 0.331112L0.330651 1.5517C0.237514 1.64484 0.190945 1.75513 0.190945 1.88258C0.190945 2.01004 0.237514 2.12033 0.330651 2.21347Z" fill="black"/>
</svg>
