<svg width="80" height="80" viewBox="0 0 80 80" fill="none" xmlns="http://www.w3.org/2000/svg">
<g clip-path="url(#clip0_64419_529566)">
<path fill-rule="evenodd" clip-rule="evenodd" d="M40 80C62.0914 80 80 62.0914 80 40C80 17.9086 62.0914 0 40 0C17.9086 0 0 17.9086 0 40C0 62.0914 17.9086 80 40 80ZM47.5867 46.0074L59.5 48.3787C63.8367 49.5588 66 57.875 66 65H14C14 57.875 16.1633 49.5588 20.5 48.3787L32.4133 45.9963C33.5 43.6139 33.5 42.4338 33.5 41.2426C33.1374 40.8451 32.6549 40.4489 32.1729 40.053C31.2105 39.2626 30.25 38.4738 30.25 37.6801C29.1633 34.1176 29.1633 31.7463 29.1633 31.7463C29.0863 31.6453 28.9951 31.5327 28.8943 31.4082C28.184 30.5312 27 29.0692 27 26.9926C27 25.6049 27.7409 24.2171 28.3555 23.0659C28.7911 22.25 29.1633 21.5529 29.1633 21.0588C29.1633 11.5625 33.8555 8 40 8C46.4188 8 50.8367 11.5625 50.8367 21.0699C50.8367 21.5574 51.2058 22.2481 51.6391 23.0589C52.2548 24.2109 53 25.6054 53 27.0037C53 28.8956 51.9881 30.2188 51.2917 31.1295C51.1111 31.3656 50.9517 31.574 50.8367 31.7574C50.8367 31.7574 50.8367 34.1287 49.75 37.6912C49.75 38.4849 48.7895 39.2737 47.8271 40.0642C47.3451 40.46 46.8626 40.8562 46.5 41.2537C46.5 42.5896 46.5 43.625 47.5867 46.0074Z" fill="#E1E6EA"/>
</g>
<defs>
<clipPath id="clip0_64419_529566">
<rect width="80" height="80" fill="white"/>
</clipPath>
</defs>
</svg>
