<svg width="19" height="20" viewBox="0 0 19 20" fill="none" xmlns="http://www.w3.org/2000/svg">
<path d="M15.2266 8.5625V16.8281C15.2266 17.0641 15.1801 17.2978 15.0898 17.5158C14.9995 17.7338 14.8671 17.9319 14.7003 18.0987C14.5334 18.2656 14.3353 18.3979 14.1173 18.4882C13.8993 18.5785 13.6657 18.625 13.4297 18.625H2.64844C2.17188 18.625 1.71483 18.4357 1.37786 18.0987C1.04088 17.7617 0.851563 17.3047 0.851562 16.8281V6.04688C0.851563 5.57031 1.04088 5.11327 1.37786 4.77629C1.71483 4.43931 2.17188 4.25 2.64844 4.25H10.172" stroke="#7B7E7B" stroke-linecap="round" stroke-linejoin="round"/>
<path d="M18.638 0.892103C18.5723 0.819977 18.4928 0.761909 18.404 0.721407C18.3153 0.680905 18.2193 0.658811 18.1218 0.65646C18.0243 0.654108 17.9274 0.671549 17.8368 0.707727C17.7462 0.743904 17.6639 0.798069 17.5949 0.866947L17.0392 1.41994C16.9719 1.48732 16.934 1.5787 16.934 1.67397C16.934 1.76924 16.9719 1.86061 17.0392 1.928L17.5486 2.43652C17.582 2.47007 17.6217 2.49669 17.6654 2.51485C17.7091 2.53302 17.756 2.54237 17.8033 2.54237C17.8507 2.54237 17.8975 2.53302 17.9412 2.51485C17.985 2.49669 18.0246 2.47007 18.058 2.43652L18.5998 1.89745C18.8738 1.62388 18.8994 1.17826 18.638 0.892103ZM15.9157 2.54298L7.80642 10.6379C7.75726 10.6869 7.72152 10.7477 7.70265 10.8144L7.32756 11.9317C7.31857 11.962 7.31793 11.9941 7.32571 12.0248C7.33349 12.0554 7.3494 12.0834 7.37176 12.1058C7.39411 12.1281 7.42209 12.144 7.45274 12.1518C7.48338 12.1596 7.51556 12.159 7.54588 12.15L8.66218 11.7749C8.72896 11.756 8.78976 11.7203 8.83873 11.6711L16.9336 3.56091C17.0085 3.48522 17.0505 3.38304 17.0505 3.27656C17.0505 3.17008 17.0085 3.06789 16.9336 2.9922L16.4867 2.54298C16.4109 2.46741 16.3082 2.42497 16.2012 2.42497C16.0942 2.42497 15.9915 2.46741 15.9157 2.54298Z" fill="#7B7E7B"/>
</svg>
