<svg width="24" height="21" viewBox="0 0 24 21" fill="none" xmlns="http://www.w3.org/2000/svg">
<path d="M8.82993 17.6963C8.39065 17.6963 8.03125 18.0582 8.03125 18.5005C8.03125 18.9429 8.39065 19.3048 8.82993 19.3048C9.26922 19.3048 9.62862 18.9429 9.62862 18.5005C9.62862 18.0582 9.26917 17.6963 8.82993 17.6963Z" fill="#7B7E7B"/>
<path d="M19.2049 17.6963C18.7657 17.6963 18.4062 18.0582 18.4062 18.5005C18.4062 18.9429 18.7657 19.3048 19.2049 19.3048C19.6442 19.3048 20.0036 18.9429 20.0036 18.5005C20.0036 18.0582 19.6442 17.6963 19.2049 17.6963Z" fill="#7B7E7B"/>
<path d="M18.0105 14.8779H17.2118C16.9722 14.8779 16.8125 15.0388 16.8125 15.28C16.8125 15.5213 16.9722 15.6821 17.2118 15.6821H18.0105C18.2501 15.6821 18.4098 15.5213 18.4098 15.28C18.4099 15.0388 18.2501 14.8779 18.0105 14.8779Z" fill="#7B7E7B"/>
<path d="M12.0212 10.8555H6.43057C6.19097 10.8555 6.03125 11.0163 6.03125 11.2576C6.03125 11.4988 6.19097 11.6597 6.43057 11.6597H12.0213C12.2609 11.6597 12.4206 11.4988 12.4206 11.2576C12.4206 11.0163 12.2608 10.8555 12.0212 10.8555Z" fill="#7B7E7B"/>
<path d="M4.43507 6.83904C5.75287 6.83904 6.83107 5.75333 6.83107 4.42636C6.83107 3.09938 5.75287 2.01367 4.43507 2.01367C3.11726 2.01367 2.03906 3.09938 2.03906 4.42636C2.03906 5.75333 3.11726 6.83904 4.43507 6.83904ZM4.43507 2.81787C5.31358 2.81787 6.03239 3.54167 6.03239 4.42631C6.03239 5.31094 5.31358 6.03475 4.43507 6.03475C3.55655 6.03475 2.83775 5.31094 2.83775 4.42631C2.83775 3.54167 3.55655 2.81787 4.43507 2.81787Z" fill="#7B7E7B"/>
<path d="M23.4808 14.074L21.939 13.4371C21.9323 13.4268 21.9253 13.417 21.9177 13.4075L20.9251 9.40951C20.8053 8.84654 20.3261 8.48463 19.767 8.48463H16.0133V7.27829C16.0133 6.83595 15.6539 6.47405 15.2146 6.47405H8.24108C8.58757 5.78752 8.8253 5.13784 8.8253 4.2222C8.8253 1.88995 6.86857 0 4.43261 0C1.99669 0 0.0399178 1.88995 0 4.2222C0 5.3481 0.359401 6.0719 0.838601 6.95659C0.918484 7.07722 0.998319 7.23805 1.0782 7.39893C2.17143 9.52718 3.76308 12.1237 4.03329 12.5924V13.2698V18.0952C4.03329 18.5375 4.39269 18.8994 4.83197 18.8994H6.46345C6.65509 20.0367 7.64353 20.91 8.8253 20.91C10.0071 20.91 10.9955 20.0367 11.1871 18.8994H16.8462C17.0378 20.0367 18.0262 20.91 19.208 20.91C20.3898 20.91 21.3782 20.0367 21.5698 18.8994H23.2013C23.6406 18.8994 24 18.5375 24 18.0952V14.838C24 14.4761 23.8003 14.1947 23.4808 14.074ZM15.2146 8.84654V9.24863C15.2146 11.2592 13.6173 12.8677 11.6206 12.8677H4.83192V12.5862C5.0609 12.2115 5.92604 10.783 6.78004 9.24863H12.8186C13.0582 9.24863 13.2179 9.0878 13.2179 8.84654C13.2179 8.60527 13.0582 8.44444 12.8186 8.44444H7.22072C7.40454 8.10303 7.58237 7.7645 7.74709 7.43917L7.81223 7.27518C7.81911 7.26274 7.82595 7.25035 7.83283 7.2381H15.2146V8.84654ZM1.59732 6.59473C1.15804 5.75029 0.838601 5.14712 0.838601 4.22224C0.838601 2.33229 2.43592 0.804291 4.43261 0.804291C6.42929 0.804291 8.02661 2.33234 8.02661 4.22224C8.02661 5.14712 7.70713 5.71005 7.26789 6.59473C7.18801 6.71536 7.10817 6.87619 7.02829 7.03707C6.28394 8.50042 5.25684 10.2482 4.64432 11.2977C4.5664 11.4285 4.49461 11.5487 4.42999 11.6569C3.86983 10.6903 2.67426 8.7234 1.83697 7.03712C1.75708 6.87619 1.6772 6.75556 1.59732 6.59473ZM8.8253 20.1058C7.94678 20.1058 7.22797 19.382 7.22797 18.4973C7.22797 17.6127 7.94678 16.8889 8.8253 16.8889C9.70381 16.8889 10.4226 17.6127 10.4226 18.4973C10.4226 19.382 9.70381 20.1058 8.8253 20.1058ZM19.2079 20.1058C18.3294 20.1058 17.6106 19.382 17.6106 18.4973C17.6106 17.6127 18.3294 16.8889 19.2079 16.8889C20.0865 16.8889 20.8053 17.6127 20.8053 18.4973C20.8053 19.382 20.0865 20.1058 19.2079 20.1058ZM23.2013 18.0952H21.5698C21.435 17.295 20.9057 16.626 20.1919 16.2995C20.1761 16.2922 20.1604 16.2847 20.1444 16.2777C20.1343 16.2734 20.1241 16.2695 20.114 16.2653C20.0881 16.2545 20.0621 16.244 20.0358 16.2341C20.0287 16.2315 20.0215 16.229 20.0143 16.2264C19.9851 16.2158 19.9555 16.2056 19.9257 16.1961C19.9193 16.194 19.9128 16.1921 19.9063 16.1901C19.876 16.1807 19.8454 16.1719 19.8145 16.1637C19.8076 16.1619 19.8008 16.1601 19.7939 16.1584C19.7636 16.1507 19.7331 16.1435 19.7022 16.1369C19.6944 16.1353 19.6867 16.1336 19.679 16.132C19.6492 16.126 19.6192 16.1206 19.589 16.1157C19.5801 16.1143 19.5712 16.1127 19.5622 16.1114C19.5331 16.107 19.5038 16.1033 19.4744 16.1C19.4644 16.0989 19.4545 16.0976 19.4445 16.0966C19.415 16.0936 19.3854 16.0915 19.3556 16.0897C19.3458 16.0891 19.3361 16.0881 19.3262 16.0876C19.287 16.0857 19.2476 16.0846 19.2079 16.0846C19.1681 16.0846 19.1287 16.0857 19.0895 16.0876C19.0797 16.0881 19.0699 16.0891 19.0601 16.0897C19.0304 16.0915 19.0007 16.0936 18.9712 16.0966C18.9612 16.0975 18.9513 16.0989 18.9413 16.1C18.9119 16.1033 18.8826 16.107 18.8535 16.1114C18.8445 16.1127 18.8356 16.1143 18.8266 16.1157C18.7965 16.1206 18.7665 16.126 18.7367 16.132C18.7289 16.1336 18.7212 16.1352 18.7134 16.1369C18.6826 16.1434 18.6521 16.1506 18.6218 16.1583C18.6149 16.1601 18.6081 16.1618 18.6012 16.1637C18.5703 16.1719 18.5397 16.1807 18.5094 16.1901C18.503 16.1921 18.4965 16.194 18.49 16.1961C18.4602 16.2056 18.4307 16.2158 18.4014 16.2264C18.3943 16.229 18.3871 16.2315 18.38 16.2341C18.3536 16.244 18.3276 16.2546 18.3016 16.2654C18.2916 16.2696 18.2814 16.2735 18.2714 16.2778C18.2554 16.2848 18.2396 16.2923 18.2238 16.2996C17.5101 16.6262 16.9808 17.2951 16.846 18.0952H11.1871C11.0523 17.2951 10.5231 16.6262 9.80948 16.2997C9.79357 16.2923 9.7778 16.2848 9.7617 16.2778C9.75173 16.2735 9.74158 16.2696 9.73152 16.2654C9.70559 16.2546 9.67953 16.244 9.65313 16.2341C9.64607 16.2315 9.63886 16.229 9.63175 16.2264C9.60245 16.2158 9.57292 16.2056 9.54311 16.1961C9.5367 16.1941 9.5302 16.1921 9.52374 16.1901C9.49341 16.1807 9.46281 16.1719 9.43192 16.1637C9.42509 16.1619 9.41826 16.1601 9.41138 16.1583C9.38106 16.1506 9.3505 16.1434 9.31966 16.1369C9.31189 16.1352 9.30417 16.1335 9.2964 16.132C9.26664 16.126 9.23664 16.1206 9.20646 16.1157C9.19752 16.1142 9.18863 16.1127 9.17964 16.1113C9.15058 16.1069 9.12124 16.1033 9.0918 16.1C9.08184 16.0989 9.07192 16.0975 9.0619 16.0965C9.03247 16.0936 9.0028 16.0915 8.97303 16.0896C8.96321 16.089 8.95352 16.0881 8.94364 16.0876C8.90448 16.0857 8.86503 16.0845 8.8253 16.0845C8.78556 16.0845 8.74611 16.0857 8.70695 16.0876C8.69712 16.0881 8.68738 16.089 8.67756 16.0896C8.64779 16.0915 8.61813 16.0936 8.58869 16.0965C8.57868 16.0975 8.56875 16.0989 8.55879 16.1C8.52935 16.1033 8.50001 16.107 8.47095 16.1113C8.46196 16.1127 8.45307 16.1142 8.44413 16.1157C8.41395 16.1206 8.38395 16.126 8.35419 16.132C8.34642 16.1335 8.33865 16.1352 8.33093 16.1369C8.30009 16.1434 8.26953 16.1506 8.23921 16.1583C8.23238 16.1601 8.2255 16.1618 8.21867 16.1637C8.18778 16.1719 8.15722 16.1807 8.12685 16.19C8.12039 16.192 8.11389 16.194 8.10743 16.196C8.07762 16.2055 8.04814 16.2157 8.01884 16.2264C8.01168 16.229 8.00448 16.2314 7.99736 16.2341C7.97102 16.244 7.945 16.2545 7.91912 16.2653C7.90901 16.2694 7.89881 16.2734 7.88879 16.2777C7.87279 16.2847 7.85707 16.2922 7.8412 16.2995C7.12746 16.626 6.59814 17.295 6.46331 18.0951H4.83183V13.6719H11.6206C14.0565 13.6719 16.0133 11.7015 16.0133 9.28883V9.24863H19.767C19.9667 9.24863 20.1264 9.40946 20.1663 9.57034L21.0761 13.2698H18.1297C17.8502 13.2698 17.6106 13.0285 17.6106 12.7471V10.8571C17.6106 10.6159 17.4509 10.455 17.2113 10.455C16.9717 10.455 16.812 10.6159 16.812 10.8571V12.7471C16.812 13.4709 17.411 14.074 18.1298 14.074H21.4443L23.2014 14.7577V18.0952H23.2013Z" fill="#7B7E7B"/>
</svg>
