<svg width="12" height="14" viewBox="0 0 12 14" fill="none" xmlns="http://www.w3.org/2000/svg">
<path d="M1.58984 2.76562L2.20259 12.3913C2.23169 12.9475 2.64377 13.3539 3.18298 13.3539H8.82024C9.3616 13.3539 9.76601 12.9475 9.80063 12.3913L10.4134 2.76562" stroke="black" stroke-linecap="round" stroke-linejoin="round"/>
<path d="M1 2.76562H11H1Z" fill="black"/>
<path d="M1 2.76562H11" stroke="black" stroke-miterlimit="10" stroke-linecap="round"/>
<path d="M4.17016 2.92514V1.72193C4.1699 1.62705 4.18747 1.53304 4.22187 1.44533C4.25626 1.35762 4.3068 1.27792 4.37058 1.21083C4.43436 1.14374 4.51012 1.09057 4.5935 1.05439C4.67688 1.01821 4.76624 0.999725 4.85644 1H7.14402C7.23422 0.999725 7.32358 1.01821 7.40696 1.05439C7.49034 1.09057 7.5661 1.14374 7.62988 1.21083C7.69366 1.27792 7.7442 1.35762 7.77859 1.44533C7.81299 1.53304 7.83056 1.62705 7.83029 1.72193V2.92514M6.00023 4.85027V11.5882M3.94141 4.85027L4.17016 11.5882M8.05905 4.85027L7.83029 11.5882" stroke="black" stroke-linecap="round" stroke-linejoin="round"/>
</svg>
