<svg width="18" height="18" viewBox="0 0 18 18" fill="none" xmlns="http://www.w3.org/2000/svg">
<path d="M9 1.125C4.65117 1.125 1.125 4.65117 1.125 9C1.125 13.3488 4.65117 16.875 9 16.875C13.3488 16.875 16.875 13.3488 16.875 9C16.875 4.65117 13.3488 1.125 9 1.125ZM9 15.5391C5.38945 15.5391 2.46094 12.6105 2.46094 9C2.46094 5.38945 5.38945 2.46094 9 2.46094C12.6105 2.46094 15.5391 5.38945 15.5391 9C15.5391 12.6105 12.6105 15.5391 9 15.5391ZM9.83848 8.59219L9.39199 8.48848V6.12773C10.06 6.21914 10.473 6.6375 10.5434 7.15078C10.5521 7.22109 10.6119 7.27207 10.6822 7.27207H11.4715C11.5541 7.27207 11.6191 7.2 11.6121 7.11738C11.5049 6.02227 10.6031 5.31914 9.39902 5.19785V4.62305C9.39902 4.5457 9.33574 4.48242 9.2584 4.48242H8.76445C8.68711 4.48242 8.62383 4.5457 8.62383 4.62305V5.20312C7.3793 5.32441 6.40547 6.01172 6.40547 7.29492C6.40547 8.4832 7.28086 9.05625 8.2002 9.27598L8.63438 9.38672V11.8951C7.85742 11.7914 7.42148 11.3766 7.33184 10.8176C7.32129 10.7508 7.26152 10.7016 7.19297 10.7016H6.38086C6.29824 10.7016 6.2332 10.7719 6.24023 10.8545C6.31934 11.8213 7.05234 12.7107 8.6168 12.825V13.377C8.6168 13.4543 8.68008 13.5176 8.75742 13.5176H9.25664C9.33398 13.5176 9.39727 13.4543 9.39727 13.3752L9.39375 12.818C10.7701 12.6967 11.7545 11.9602 11.7545 10.6383C11.7527 9.41836 10.9775 8.87344 9.83848 8.59219ZM8.63262 8.30742C8.53418 8.2793 8.45156 8.25293 8.36895 8.21953C7.7748 8.00508 7.49883 7.65879 7.49883 7.2123C7.49883 6.57422 7.98223 6.21035 8.63262 6.12773V8.30742ZM9.39199 11.9004V9.55019C9.44648 9.56602 9.4957 9.57832 9.54668 9.58887C10.3781 9.84199 10.6576 10.1936 10.6576 10.7332C10.6576 11.4205 10.1408 11.8336 9.39199 11.9004Z" fill="#7B7E7B"/>
</svg>
